<?xml version="1.0" encoding="utf-8" standalone="no"?>
<!DOCTYPE svg PUBLIC "-//W3C//DTD SVG 1.1//EN"
  "http://www.w3.org/Graphics/SVG/1.1/DTD/svg11.dtd">
<svg xmlns:xlink="http://www.w3.org/1999/xlink" width="325.44pt" height="342.077812pt" viewBox="0 0 325.44 342.077812" xmlns="http://www.w3.org/2000/svg" version="1.1">
 <metadata>
  <rdf:RDF xmlns:dc="http://purl.org/dc/elements/1.1/" xmlns:cc="http://creativecommons.org/ns#" xmlns:rdf="http://www.w3.org/1999/02/22-rdf-syntax-ns#">
   <cc:Work>
    <dc:type rdf:resource="http://purl.org/dc/dcmitype/StillImage"/>
    <dc:date>2026-02-03T06:54:46.611814</dc:date>
    <dc:format>image/svg+xml</dc:format>
    <dc:creator>
     <cc:Agent>
      <dc:title>Matplotlib v3.10.8, https://matplotlib.org/</dc:title>
     </cc:Agent>
    </dc:creator>
   </cc:Work>
  </rdf:RDF>
 </metadata>
 <defs>
  <style type="text/css">*{stroke-linejoin: round; stroke-linecap: butt}</style>
 </defs>
 <g id="figure_1">
  <g id="patch_1">
   <path d="M 0 342.077812 
L 325.44 342.077812 
L 325.44 0 
L 0 0 
z
" style="fill: #ffffff"/>
  </g>
  <g id="axes_1">
   <g id="patch_2">
    <path d="M 7.2 334.877813 
L 318.24 334.877813 
L 318.24 23.837812 
L 7.2 23.837812 
z
" style="fill: #ffffff"/>
   </g>
   <g id="patch_3">
    <path d="M 304.101818 179.357812 
C 304.101818 257.440835 240.803022 320.739631 162.72 320.739631 
C 84.636978 320.739631 21.338182 257.440835 21.338182 179.357812 
C 21.338182 101.27479 84.636978 37.975994 162.72 37.975994 
C 240.803022 37.975994 304.101818 101.27479 304.101818 179.357812 
" clip-path="url(#p0e57e179dc)" style="fill: none; stroke: #ffffff; stroke-width: 0.72; stroke-linejoin: miter"/>
   </g>
   <g id="patch_4">
    <path d="M 278.073611 181.151987 
L 277.884238 180.790754 
L 277.066157 180.247011 
L 276.245527 179.710933 
L 276.051665 179.357812 
L 276.245527 179.004692 
L 277.066157 178.468614 
L 277.884238 177.924871 
L 278.073611 177.563638 
L 278.073611 177.563638 
L 277.873096 177.208469 
L 277.0385 176.690431 
L 276.201595 176.180134 
L 275.996845 175.833213 
L 276.179631 175.474234 
L 276.983192 174.912894 
L 277.783967 174.343972 
L 277.962014 173.977024 
L 277.962014 173.977024 
L 277.75055 173.628263 
L 276.900247 173.136432 
L 276.047877 172.652409 
L 275.832436 172.312024 
L 276.00397 171.947534 
L 276.789685 171.361475 
L 277.572379 170.767924 
L 277.738928 170.395616 
L 277.738928 170.395616 
L 277.516719 170.053601 
L 276.651532 169.588451 
L 275.784521 169.131172 
L 275.558599 168.797651 
L 275.718714 168.428002 
L 276.485822 167.817791 
L 277.249678 167.200186 
L 277.404568 166.822879 
L 277.404568 166.822879 
L 277.17183 166.487939 
L 276.292595 166.049922 
L 275.411782 165.619827 
L 275.175597 165.293494 
L 275.324139 164.919045 
L 276.071898 164.285272 
L 276.816178 163.644209 
L 276.959258 163.262268 
L 276.959258 163.262268 
L 276.716217 162.934728 
L 275.823785 162.524267 
L 274.930022 162.121774 
L 274.683802 161.802944 
L 274.820626 161.424056 
L 275.548314 160.767334 
L 276.272296 160.103435 
L 276.40343 159.717228 
L 276.150319 159.397406 
L 275.245553 159.014898 
L 274.339705 158.640395 
L 274.083689 158.329377 
L 274.208664 157.946417 
L 274.915576 157.267382 
L 275.618561 156.581288 
L 275.73762 156.19119 
L 275.73762 156.19119 
L 275.474685 155.879394 
L 274.558461 155.525209 
L 273.641404 155.179059 
L 273.375839 154.876153 
L 273.488843 154.489492 
L 274.174295 153.7888 
L 274.855603 153.081175 
L 274.962472 152.687563 
L 274.962472 152.687563 
L 274.689968 152.384096 
L 273.763172 152.058576 
L 272.835794 151.741114 
L 272.560937 151.446614 
L 272.661861 151.056625 
L 273.32519 150.334955 
L 273.984161 149.606484 
L 274.078737 149.209739 
L 274.078737 149.209739 
L 273.796927 148.914893 
L 272.860456 148.618354 
L 271.923653 148.329887 
L 271.63977 148.044077 
L 271.728517 147.651138 
L 272.369082 146.909188 
L 273.005078 146.160575 
L 273.08727 145.761081 
L 273.08727 145.761081 
L 272.796427 145.475141 
L 271.851186 145.20787 
L 270.905865 144.948677 
L 270.613231 144.671834 
L 270.689715 144.276326 
L 271.306895 143.514813 
L 271.919302 142.746783 
L 271.98903 142.344925 
L 271.98903 142.344925 
L 271.689434 142.068169 
L 270.736339 141.830424 
L 269.783414 141.600756 
L 269.482312 141.333148 
L 269.546458 140.935452 
L 270.139657 140.155113 
L 270.727882 139.368409 
L 270.785079 138.964577 
L 270.785079 138.964577 
L 270.477021 138.697272 
L 269.516993 138.489284 
L 268.557387 138.289362 
L 268.248107 138.031248 
L 268.299855 137.631749 
L 268.868498 136.83334 
L 269.431972 136.028722 
L 269.476582 135.623307 
L 269.476582 135.623307 
L 269.16036 135.365712 
L 268.194328 135.187681 
L 267.228968 135.0177 
L 266.911811 134.769329 
L 266.951109 134.368414 
L 267.494646 133.552706 
L 268.032825 132.730953 
L 268.064805 132.324347 
L 268.064805 132.324347 
L 267.740724 132.076711 
L 266.769623 131.92881 
L 265.799444 131.788933 
L 265.474716 131.550546 
L 265.501526 131.148603 
L 266.019433 130.316385 
L 266.531794 129.478293 
L 266.551113 129.070889 
L 266.551113 129.070889 
L 266.219488 128.833452 
L 265.244257 128.715823 
L 264.270197 128.606187 
L 263.938212 128.378013 
L 263.952509 127.975431 
L 264.444283 127.12751 
L 264.930333 126.273888 
L 264.936972 125.86608 
L 264.936972 125.86608 
L 264.598123 125.639072 
L 263.619705 125.551829 
L 262.642707 125.472539 
L 262.303786 125.254801 
L 262.305556 124.851969 
L 262.770722 123.989163 
L 263.229989 123.120839 
L 263.223942 122.713022 
L 262.878197 122.496661 
L 261.89754 122.439889 
L 260.918548 122.391022 
L 260.57302 122.183929 
L 260.562261 121.781237 
L 261.000368 120.904382 
L 261.432408 120.022195 
L 261.413682 119.614763 
L 261.413682 119.614763 
L 261.061375 119.409259 
L 260.079426 119.383014 
L 259.099388 119.364616 
L 258.747587 119.16837 
L 258.724309 118.766207 
L 259.134935 117.876151 
L 259.53933 116.980954 
L 259.507941 116.574302 
L 259.149414 116.379854 
L 258.167124 116.38416 
L 257.186987 116.39625 
L 256.829253 116.21104 
L 256.79348 115.809796 
L 257.176226 114.9074 
L 257.552585 114.000059 
L 257.508564 113.59458 
L 257.508564 113.59458 
L 257.144164 113.411376 
L 256.162482 113.446229 
L 255.183196 113.488796 
L 254.819875 113.3148 
L 254.77164 112.914863 
L 255.126137 112.001 
L 255.474096 111.082394 
L 255.417486 110.678479 
L 255.047564 110.506697 
L 254.067441 110.572063 
L 253.089953 110.645065 
L 252.721396 110.482453 
L 252.660746 110.084209 
L 252.986651 109.159764 
L 253.305873 108.23078 
L 253.236729 107.828822 
L 253.236729 107.828822 
L 252.861643 107.668627 
L 251.884028 107.764443 
L 250.909282 107.867809 
L 250.535846 107.716738 
L 250.462841 107.320573 
L 250.759838 106.386439 
L 251.050014 105.447977 
L 250.968403 105.048364 
L 250.968403 105.048364 
L 250.588516 104.899912 
L 249.614353 105.026085 
L 248.643294 105.159716 
L 248.265341 105.020332 
L 248.18005 104.626628 
L 248.447852 103.68371 
L 248.708701 102.736677 
L 248.614702 102.339795 
L 248.230382 102.20323 
L 247.260615 102.359638 
L 246.294181 102.523404 
L 245.912076 102.395842 
L 245.814582 102.004981 
L 246.052929 101.05419 
L 246.2842 100.099504 
L 246.177903 99.705737 
L 245.789523 99.58119 
L 244.825088 99.767682 
L 243.864215 99.961425 
L 243.478327 99.845807 
L 243.368725 99.458168 
L 243.577388 98.500425 
L 243.778856 97.539007 
L 243.660364 97.148737 
L 243.268298 97.036328 
L 242.31013 97.252724 
L 241.355748 97.476256 
L 240.966451 97.372696 
L 240.844846 96.988653 
L 241.023622 96.024883 
L 241.195093 95.057665 
L 241.064521 94.671268 
L 241.064521 94.671268 
L 240.669149 94.571108 
L 239.718174 94.817198 
L 238.771205 95.070303 
L 238.378876 94.9789 
L 238.245386 94.598824 
L 238.394103 93.629961 
L 238.53541 92.657878 
L 238.392885 92.275729 
L 237.994589 92.187913 
L 237.051727 92.463459 
L 236.113088 92.745892 
L 235.718106 92.666735 
L 235.57286 92.290995 
L 235.691373 91.317975 
L 235.802381 90.341967 
L 235.64804 89.964436 
L 235.64804 89.964436 
L 235.247205 89.889049 
L 234.313369 90.193785 
L 233.383967 90.505273 
L 232.986715 90.438438 
L 232.829854 90.067397 
L 232.918049 89.091162 
L 232.998649 88.112174 
L 232.832641 87.739625 
L 232.832641 87.739625 
L 232.429656 87.676741 
L 231.505749 88.010371 
L 230.586484 88.350613 
L 230.187345 88.296164 
L 230.019021 87.930181 
L 230.076813 86.951676 
L 230.126928 85.970655 
L 229.949414 85.603449 
L 229.949414 85.603449 
L 229.544668 85.553128 
L 228.631584 85.91533 
L 227.723345 86.283997 
L 227.322705 86.241987 
L 227.143081 85.881416 
L 227.170413 84.901586 
L 227.189994 83.919482 
L 227.001146 83.557974 
L 226.595031 83.520265 
L 225.693653 83.910689 
L 224.797319 84.307423 
L 224.395566 84.277894 
L 224.204815 83.923083 
L 224.201661 82.942878 
L 224.19069 81.960639 
L 223.99069 81.605179 
L 223.99069 81.605179 
L 223.583599 81.580118 
L 222.694799 81.998386 
L 221.811237 82.422804 
L 221.40876 82.405784 
L 221.207067 82.057077 
L 221.17343 81.077444 
L 221.131917 80.096022 
L 220.920959 79.746954 
L 220.920959 79.746954 
L 220.513285 79.734566 
L 219.637923 80.180273 
L 218.767988 80.631964 
L 218.365177 80.627469 
L 218.152736 80.285204 
L 218.088649 79.30709 
L 218.016634 78.327434 
L 217.794922 77.985096 
L 217.794922 77.985096 
L 217.38706 77.985392 
L 216.525983 78.458107 
L 215.670516 78.936635 
L 215.26776 78.94467 
L 215.044778 78.609176 
L 214.950303 77.633529 
L 214.847855 76.656586 
L 214.615604 76.321309 
L 214.615604 76.321309 
L 214.207948 76.33429 
L 213.361989 76.833556 
L 212.521818 77.338457 
L 212.119507 77.359013 
L 211.886199 77.030617 
L 211.761427 76.05838 
L 211.628646 75.085096 
L 211.38608 74.757203 
L 211.38608 74.757203 
L 210.979025 74.782856 
L 210.149003 75.30819 
L 209.32494 75.838976 
L 208.923463 75.872034 
L 208.680054 75.551052 
L 208.525107 74.583166 
L 208.362121 73.614482 
L 208.109475 73.294292 
L 208.109475 73.294292 
L 207.703415 73.332592 
L 206.890132 73.883485 
L 206.082975 74.439642 
L 205.68272 74.48517 
L 205.429447 74.171914 
L 205.244473 73.209315 
L 205.05144 72.246168 
L 204.788958 71.933991 
L 204.788958 71.933991 
L 204.384286 71.9849 
L 203.588529 72.56082 
L 202.799059 73.141811 
L 202.400414 73.199764 
L 202.137521 72.894537 
L 201.922699 71.938156 
L 201.699806 70.981478 
L 201.427743 70.677615 
L 201.427743 70.677615 
L 201.024849 70.741084 
L 200.247388 71.341473 
L 199.476369 71.946736 
L 199.079719 72.01706 
L 198.80746 71.720155 
L 198.563 70.770918 
L 198.310461 69.821635 
L 198.02908 69.52638 
L 198.02908 69.52638 
L 197.628355 69.602349 
L 196.869942 70.226626 
L 196.11812 70.855575 
L 195.723848 70.9382 
L 195.442488 70.649907 
L 195.168624 69.708731 
L 194.886686 68.767761 
L 194.596258 68.4814 
L 194.596258 68.4814 
L 194.19809 68.569794 
L 193.459458 69.217356 
L 192.72756 69.869382 
L 192.336049 69.964229 
L 192.045859 69.684826 
L 191.742857 68.752622 
L 191.431791 67.820876 
L 191.132597 67.543685 
L 191.132597 67.543685 
L 190.737371 67.64442 
L 190.019236 68.31464 
L 189.307969 68.989113 
L 188.919598 69.09609 
L 188.620858 68.825846 
L 188.289012 67.903517 
L 187.949119 66.981896 
L 187.64145 66.714144 
L 187.64145 66.714144 
L 187.249547 66.827122 
L 186.552604 67.519352 
L 185.862657 68.215618 
L 185.4778 68.334622 
L 185.170801 68.073799 
L 184.810431 67.162237 
L 184.44204 66.251632 
L 184.126192 65.993578 
L 184.126192 65.993578 
L 183.737993 66.118689 
L 183.062915 66.832259 
L 182.394955 67.549646 
L 182.013986 67.680561 
L 181.699023 67.429413 
L 181.310478 66.529498 
L 180.913946 65.630791 
L 180.590226 65.382685 
L 180.590226 65.382685 
L 180.206105 65.519808 
L 179.553545 66.254028 
L 178.90822 66.991841 
L 178.531506 67.134541 
L 178.208885 66.893309 
L 177.792541 66.005914 
L 177.36825 65.119974 
L 177.036971 64.882055 
L 177.036971 64.882055 
L 176.657301 65.031058 
L 176.02789 65.785217 
L 175.405823 66.542743 
L 175.033729 66.69709 
L 174.703762 66.466008 
L 174.260021 65.591991 
L 173.808384 64.719674 
L 173.469865 64.492173 
L 173.469865 64.492173 
L 173.095013 64.652912 
L 172.489361 65.426281 
L 171.891154 66.202786 
L 171.52404 66.36863 
L 171.187046 66.147923 
L 170.716338 65.288128 
L 170.23779 64.430279 
L 169.89236 64.213416 
L 169.89236 64.213416 
L 169.522687 64.385735 
L 168.94138 65.177566 
L 168.367612 65.9723 
L 168.005833 66.149481 
L 167.662138 65.93936 
L 167.164918 65.09462 
L 166.659923 64.252069 
L 166.307915 64.046054 
L 166.307915 64.046054 
L 165.943781 64.229787 
L 165.387381 65.039313 
L 164.838606 65.851506 
L 164.482513 66.039853 
L 164.132449 65.840523 
L 163.609199 65.011655 
L 163.078244 64.185217 
L 162.72 63.990249 
L 162.72 63.990249 
L 162.361756 64.185217 
L 161.830801 65.011655 
L 161.307551 65.840523 
L 160.957487 66.039853 
L 160.601394 65.851506 
L 160.052619 65.039313 
L 159.496219 64.229787 
L 159.132085 64.046054 
L 158.780077 64.252069 
L 158.275082 65.09462 
L 157.777862 65.93936 
L 157.434167 66.149481 
L 157.072388 65.9723 
L 156.49862 65.177566 
L 155.917313 64.385735 
L 155.54764 64.213416 
L 155.54764 64.213416 
L 155.20221 64.430279 
L 154.723662 65.288128 
L 154.252954 66.147923 
L 153.91596 66.36863 
L 153.548846 66.202786 
L 152.950639 65.426281 
L 152.344987 64.652912 
L 151.970135 64.492173 
L 151.970135 64.492173 
L 151.631616 64.719674 
L 151.179979 65.591991 
L 150.736238 66.466008 
L 150.406271 66.69709 
L 150.034177 66.542743 
L 149.41211 65.785217 
L 148.782699 65.031058 
L 148.403029 64.882055 
L 148.403029 64.882055 
L 148.07175 65.119974 
L 147.647459 66.005914 
L 147.231115 66.893309 
L 146.908494 67.134541 
L 146.53178 66.991841 
L 145.886455 66.254028 
L 145.233895 65.519808 
L 144.849774 65.382685 
L 144.849774 65.382685 
L 144.526054 65.630791 
L 144.129522 66.529498 
L 143.740977 67.429413 
L 143.426014 67.680561 
L 143.045045 67.549646 
L 142.377085 66.832259 
L 141.702007 66.118689 
L 141.313808 65.993578 
L 141.313808 65.993578 
L 140.99796 66.251632 
L 140.629569 67.162237 
L 140.269199 68.073799 
L 139.9622 68.334622 
L 139.577343 68.215618 
L 138.887396 67.519352 
L 138.190453 66.827122 
L 137.79855 66.714144 
L 137.79855 66.714144 
L 137.490881 66.981896 
L 137.150988 67.903517 
L 136.819142 68.825846 
L 136.520402 69.09609 
L 136.132031 68.989113 
L 135.420764 68.31464 
L 134.702629 67.64442 
L 134.307403 67.543685 
L 134.307403 67.543685 
L 134.008209 67.820876 
L 133.697143 68.752622 
L 133.394141 69.684826 
L 133.103951 69.964229 
L 132.71244 69.869382 
L 131.980542 69.217356 
L 131.24191 68.569794 
L 130.843742 68.4814 
L 130.843742 68.4814 
L 130.553314 68.767761 
L 130.271376 69.708731 
L 129.997512 70.649907 
L 129.716152 70.9382 
L 129.32188 70.855575 
L 128.570058 70.226626 
L 127.811645 69.602349 
L 127.41092 69.52638 
L 127.41092 69.52638 
L 127.129539 69.821635 
L 126.877 70.770918 
L 126.63254 71.720155 
L 126.360281 72.01706 
L 125.963631 71.946736 
L 125.192612 71.341473 
L 124.415151 70.741084 
L 124.012257 70.677615 
L 124.012257 70.677615 
L 123.740194 70.981478 
L 123.517301 71.938156 
L 123.302479 72.894537 
L 123.039586 73.199764 
L 122.640941 73.141811 
L 121.851471 72.56082 
L 121.055714 71.9849 
L 120.651042 71.933991 
L 120.38856 72.246168 
L 120.195527 73.209315 
L 120.010553 74.171914 
L 119.75728 74.48517 
L 119.357025 74.439642 
L 118.549868 73.883485 
L 117.736585 73.332592 
L 117.330525 73.294292 
L 117.330525 73.294292 
L 117.077879 73.614482 
L 116.914893 74.583166 
L 116.759946 75.551052 
L 116.516537 75.872034 
L 116.11506 75.838976 
L 115.290997 75.30819 
L 114.460975 74.782856 
L 114.05392 74.757203 
L 114.05392 74.757203 
L 113.811354 75.085096 
L 113.678573 76.05838 
L 113.553801 77.030617 
L 113.320493 77.359013 
L 112.918182 77.338457 
L 112.078011 76.833556 
L 111.232052 76.33429 
L 110.824396 76.321309 
L 110.824396 76.321309 
L 110.592145 76.656586 
L 110.489697 77.633529 
L 110.395222 78.609176 
L 110.17224 78.94467 
L 109.769484 78.936635 
L 108.914017 78.458107 
L 108.05294 77.985392 
L 107.645078 77.985096 
L 107.645078 77.985096 
L 107.423366 78.327434 
L 107.351351 79.30709 
L 107.287264 80.285204 
L 107.074823 80.627469 
L 106.672012 80.631964 
L 105.802077 80.180273 
L 104.926715 79.734566 
L 104.519041 79.746954 
L 104.519041 79.746954 
L 104.308083 80.096022 
L 104.26657 81.077444 
L 104.232933 82.057077 
L 104.03124 82.405784 
L 103.628763 82.422804 
L 102.745201 81.998386 
L 101.856401 81.580118 
L 101.44931 81.605179 
L 101.44931 81.605179 
L 101.24931 81.960639 
L 101.238339 82.942878 
L 101.235185 83.923083 
L 101.044434 84.277894 
L 100.642681 84.307423 
L 99.746347 83.910689 
L 98.844969 83.520265 
L 98.438854 83.557974 
L 98.438854 83.557974 
L 98.250006 83.919482 
L 98.269587 84.901586 
L 98.296919 85.881416 
L 98.117295 86.241987 
L 97.716655 86.283997 
L 96.808416 85.91533 
L 95.895332 85.553128 
L 95.490586 85.603449 
L 95.490586 85.603449 
L 95.313072 85.970655 
L 95.363187 86.951676 
L 95.420979 87.930181 
L 95.252655 88.296164 
L 94.853516 88.350613 
L 93.934251 88.010371 
L 93.010344 87.676741 
L 92.607359 87.739625 
L 92.607359 87.739625 
L 92.441351 88.112174 
L 92.521951 89.091162 
L 92.610146 90.067397 
L 92.453285 90.438438 
L 92.056033 90.505273 
L 91.126631 90.193785 
L 90.192795 89.889049 
L 89.79196 89.964436 
L 89.79196 89.964436 
L 89.637619 90.341967 
L 89.748627 91.317975 
L 89.86714 92.290995 
L 89.721894 92.666735 
L 89.326912 92.745892 
L 88.388273 92.463459 
L 87.445411 92.187913 
L 87.047115 92.275729 
L 87.047115 92.275729 
L 86.90459 92.657878 
L 87.045897 93.629961 
L 87.194614 94.598824 
L 87.061124 94.9789 
L 86.668795 95.070303 
L 85.721826 94.817198 
L 84.770851 94.571108 
L 84.375479 94.671268 
L 84.375479 94.671268 
L 84.244907 95.057665 
L 84.416378 96.024883 
L 84.595154 96.988653 
L 84.473549 97.372696 
L 84.084252 97.476256 
L 83.12987 97.252724 
L 82.171702 97.036328 
L 81.779636 97.148737 
L 81.779636 97.148737 
L 81.661144 97.539007 
L 81.862612 98.500425 
L 82.071275 99.458168 
L 81.961673 99.845807 
L 81.575785 99.961425 
L 80.614912 99.767682 
L 79.650477 99.58119 
L 79.262097 99.705737 
L 79.262097 99.705737 
L 79.1558 100.099504 
L 79.387071 101.05419 
L 79.625418 102.004981 
L 79.527924 102.395842 
L 79.145819 102.523404 
L 78.179385 102.359638 
L 77.209618 102.20323 
L 76.825298 102.339795 
L 76.825298 102.339795 
L 76.731299 102.736677 
L 76.992148 103.68371 
L 77.25995 104.626628 
L 77.174659 105.020332 
L 76.796706 105.159716 
L 75.825647 105.026085 
L 74.851484 104.899912 
L 74.471597 105.048364 
L 74.471597 105.048364 
L 74.389986 105.447977 
L 74.680162 106.386439 
L 74.977159 107.320573 
L 74.904154 107.716738 
L 74.530718 107.867809 
L 73.555972 107.764443 
L 72.578357 107.668627 
L 72.203271 107.828822 
L 72.203271 107.828822 
L 72.134127 108.23078 
L 72.453349 109.159764 
L 72.779254 110.084209 
L 72.718604 110.482453 
L 72.350047 110.645065 
L 71.372559 110.572063 
L 70.392436 110.506697 
L 70.022514 110.678479 
L 70.022514 110.678479 
L 69.965904 111.082394 
L 70.313863 112.001 
L 70.66836 112.914863 
L 70.620125 113.3148 
L 70.256804 113.488796 
L 69.277518 113.446229 
L 68.295836 113.411376 
L 67.931436 113.59458 
L 67.931436 113.59458 
L 67.887415 114.000059 
L 68.263774 114.9074 
L 68.64652 115.809796 
L 68.610747 116.21104 
L 68.253013 116.39625 
L 67.272876 116.38416 
L 66.290586 116.379854 
L 65.932059 116.574302 
L 65.90067 116.980954 
L 66.305065 117.876151 
L 66.715691 118.766207 
L 66.692413 119.16837 
L 66.340612 119.364616 
L 65.360574 119.383014 
L 64.378625 119.409259 
L 64.026318 119.614763 
L 64.026318 119.614763 
L 64.007592 120.022195 
L 64.439632 120.904382 
L 64.877739 121.781237 
L 64.86698 122.183929 
L 64.521452 122.391022 
L 63.54246 122.439889 
L 62.561803 122.496661 
L 62.216058 122.713022 
L 62.216058 122.713022 
L 62.210011 123.120839 
L 62.669278 123.989163 
L 63.134444 124.851969 
L 63.136214 125.254801 
L 62.797293 125.472539 
L 61.820295 125.551829 
L 60.841877 125.639072 
L 60.503028 125.86608 
L 60.503028 125.86608 
L 60.509667 126.273888 
L 60.995717 127.12751 
L 61.487491 127.975431 
L 61.501788 128.378013 
L 61.169803 128.606187 
L 60.195743 128.715823 
L 59.220512 128.833452 
L 58.888887 129.070889 
L 58.888887 129.070889 
L 58.908206 129.478293 
L 59.420567 130.316385 
L 59.938474 131.148603 
L 59.965284 131.550546 
L 59.640556 131.788933 
L 58.670377 131.92881 
L 57.699276 132.076711 
L 57.375195 132.324347 
L 57.375195 132.324347 
L 57.407175 132.730953 
L 57.945354 133.552706 
L 58.488891 134.368414 
L 58.528189 134.769329 
L 58.211032 135.0177 
L 57.245672 135.187681 
L 56.27964 135.365712 
L 55.963418 135.623307 
L 56.008028 136.028722 
L 56.571502 136.83334 
L 57.140145 137.631749 
L 57.191893 138.031248 
L 56.882613 138.289362 
L 55.923007 138.489284 
L 54.962979 138.697272 
L 54.654921 138.964577 
L 54.654921 138.964577 
L 54.712118 139.368409 
L 55.300343 140.155113 
L 55.893542 140.935452 
L 55.957688 141.333148 
L 55.656586 141.600756 
L 54.703661 141.830424 
L 53.750566 142.068169 
L 53.45097 142.344925 
L 53.45097 142.344925 
L 53.520698 142.746783 
L 54.133105 143.514813 
L 54.750285 144.276326 
L 54.826769 144.671834 
L 54.534135 144.948677 
L 53.588814 145.20787 
L 52.643573 145.475141 
L 52.35273 145.761081 
L 52.35273 145.761081 
L 52.434922 146.160575 
L 53.070918 146.909188 
L 53.711483 147.651138 
L 53.80023 148.044077 
L 53.516347 148.329887 
L 52.579544 148.618354 
L 51.643073 148.914893 
L 51.361263 149.209739 
L 51.361263 149.209739 
L 51.455839 149.606484 
L 52.11481 150.334955 
L 52.778139 151.056625 
L 52.879063 151.446614 
L 52.604206 151.741114 
L 51.676828 152.058576 
L 50.750032 152.384096 
L 50.477528 152.687563 
L 50.584397 153.081175 
L 51.265705 153.7888 
L 51.951157 154.489492 
L 52.064161 154.876153 
L 51.798596 155.179059 
L 50.881539 155.525209 
L 49.965315 155.879394 
L 49.70238 156.19119 
L 49.70238 156.19119 
L 49.821439 156.581288 
L 50.524424 157.267382 
L 51.231336 157.946417 
L 51.356311 158.329377 
L 51.100295 158.640395 
L 50.194447 159.014898 
L 49.289681 159.397406 
L 49.03657 159.717228 
L 49.03657 159.717228 
L 49.167704 160.103435 
L 49.891686 160.767334 
L 50.619374 161.424056 
L 50.756198 161.802944 
L 50.509978 162.121774 
L 49.616215 162.524267 
L 48.723783 162.934728 
L 48.480742 163.262268 
L 48.480742 163.262268 
L 48.623822 163.644209 
L 49.368102 164.285272 
L 50.115861 164.919045 
L 50.264403 165.293494 
L 50.028218 165.619827 
L 49.147405 166.049922 
L 48.26817 166.487939 
L 48.035432 166.822879 
L 48.035432 166.822879 
L 48.190322 167.200186 
L 48.954178 167.817791 
L 49.721286 168.428002 
L 49.881401 168.797651 
L 49.655479 169.131172 
L 48.788468 169.588451 
L 47.923281 170.053601 
L 47.701072 170.395616 
L 47.701072 170.395616 
L 47.867621 170.767924 
L 48.650315 171.361475 
L 49.43603 171.947534 
L 49.607564 172.312024 
L 49.392123 172.652409 
L 48.539753 173.136432 
L 47.68945 173.628263 
L 47.477986 173.977024 
L 47.477986 173.977024 
L 47.656033 174.343972 
L 48.456808 174.912894 
L 49.260369 175.474234 
L 49.443155 175.833213 
L 49.238405 176.180134 
L 48.4015 176.690431 
L 47.566904 177.208469 
L 47.366389 177.563638 
L 47.366389 177.563638 
L 47.555762 177.924871 
L 48.373843 178.468614 
L 49.194473 179.004692 
L 49.388335 179.357812 
L 49.194473 179.710933 
L 48.373843 180.247011 
L 47.555762 180.790754 
L 47.366389 181.151987 
L 47.366389 181.151987 
L 47.566904 181.507156 
L 48.4015 182.025194 
L 49.238405 182.535491 
L 49.443155 182.882412 
L 49.260369 183.241391 
L 48.456808 183.802731 
L 47.656033 184.371653 
L 47.477986 184.738601 
L 47.477986 184.738601 
L 47.68945 185.087362 
L 48.539753 185.579193 
L 49.392123 186.063216 
L 49.607564 186.403601 
L 49.43603 186.768091 
L 48.650315 187.35415 
L 47.867621 187.947701 
L 47.701072 188.320009 
L 47.923281 188.662024 
L 48.788468 189.127174 
L 49.655479 189.584453 
L 49.881401 189.917974 
L 49.721286 190.287623 
L 48.954178 190.897834 
L 48.190322 191.515439 
L 48.035432 191.892746 
L 48.035432 191.892746 
L 48.26817 192.227686 
L 49.147405 192.665703 
L 50.028218 193.095798 
L 50.264403 193.422131 
L 50.115861 193.79658 
L 49.368102 194.430353 
L 48.623822 195.071416 
L 48.480742 195.453357 
L 48.480742 195.453357 
L 48.723783 195.780897 
L 49.616215 196.191358 
L 50.509978 196.593851 
L 50.756198 196.912681 
L 50.619374 197.291569 
L 49.891686 197.948291 
L 49.167704 198.61219 
L 49.03657 198.998397 
L 49.03657 198.998397 
L 49.289681 199.318219 
L 50.194447 199.700727 
L 51.100295 200.07523 
L 51.356311 200.386248 
L 51.231336 200.769208 
L 50.524424 201.448243 
L 49.821439 202.134337 
L 49.70238 202.524435 
L 49.70238 202.524435 
L 49.965315 202.836231 
L 50.881539 203.190416 
L 51.798596 203.536566 
L 52.064161 203.839472 
L 51.951157 204.226133 
L 51.265705 204.926825 
L 50.584397 205.63445 
L 50.477528 206.028062 
L 50.477528 206.028062 
L 50.750032 206.331529 
L 51.676828 206.657049 
L 52.604206 206.974511 
L 52.879063 207.269011 
L 52.778139 207.659 
L 52.11481 208.38067 
L 51.455839 209.109141 
L 51.361263 209.505886 
L 51.361263 209.505886 
L 51.643073 209.800732 
L 52.579544 210.097271 
L 53.516347 210.385738 
L 53.80023 210.671548 
L 53.711483 211.064487 
L 53.070918 211.806437 
L 52.434922 212.55505 
L 52.35273 212.954544 
L 52.35273 212.954544 
L 52.643573 213.240484 
L 53.588814 213.507755 
L 54.534135 213.766948 
L 54.826769 214.043791 
L 54.750285 214.439299 
L 54.133105 215.200812 
L 53.520698 215.968842 
L 53.45097 216.3707 
L 53.45097 216.3707 
L 53.750566 216.647456 
L 54.703661 216.885201 
L 55.656586 217.114869 
L 55.957688 217.382477 
L 55.893542 217.780173 
L 55.300343 218.560512 
L 54.712118 219.347216 
L 54.654921 219.751048 
L 54.654921 219.751048 
L 54.962979 220.018353 
L 55.923007 220.226341 
L 56.882613 220.426263 
L 57.191893 220.684377 
L 57.140145 221.083876 
L 56.571502 221.882285 
L 56.008028 222.686903 
L 55.963418 223.092318 
L 55.963418 223.092318 
L 56.27964 223.349913 
L 57.245672 223.527944 
L 58.211032 223.697925 
L 58.528189 223.946296 
L 58.488891 224.347211 
L 57.945354 225.162919 
L 57.407175 225.984672 
L 57.375195 226.391278 
L 57.699276 226.638914 
L 58.670377 226.786815 
L 59.640556 226.926692 
L 59.965284 227.165079 
L 59.938474 227.567022 
L 59.420567 228.39924 
L 58.908206 229.237332 
L 58.888887 229.644736 
L 58.888887 229.644736 
L 59.220512 229.882173 
L 60.195743 229.999802 
L 61.169803 230.109438 
L 61.501788 230.337612 
L 61.487491 230.740194 
L 60.995717 231.588115 
L 60.509667 232.441737 
L 60.503028 232.849545 
L 60.503028 232.849545 
L 60.841877 233.076553 
L 61.820295 233.163796 
L 62.797293 233.243086 
L 63.136214 233.460824 
L 63.134444 233.863656 
L 62.669278 234.726462 
L 62.210011 235.594786 
L 62.216058 236.002603 
L 62.216058 236.002603 
L 62.561803 236.218964 
L 63.54246 236.275736 
L 64.521452 236.324603 
L 64.86698 236.531696 
L 64.877739 236.934388 
L 64.439632 237.811243 
L 64.007592 238.69343 
L 64.026318 239.100862 
L 64.026318 239.100862 
L 64.378625 239.306366 
L 65.360574 239.332611 
L 66.340612 239.351009 
L 66.692413 239.547255 
L 66.715691 239.949418 
L 66.305065 240.839474 
L 65.90067 241.734671 
L 65.932059 242.141323 
L 65.932059 242.141323 
L 66.290586 242.335771 
L 67.272876 242.331465 
L 68.253013 242.319375 
L 68.610747 242.504585 
L 68.64652 242.905829 
L 68.263774 243.808225 
L 67.887415 244.715566 
L 67.931436 245.121045 
L 67.931436 245.121045 
L 68.295836 245.304249 
L 69.277518 245.269396 
L 70.256804 245.226829 
L 70.620125 245.400825 
L 70.66836 245.800762 
L 70.313863 246.714625 
L 69.965904 247.633231 
L 70.022514 248.037146 
L 70.022514 248.037146 
L 70.392436 248.208928 
L 71.372559 248.143562 
L 72.350047 248.07056 
L 72.718604 248.233172 
L 72.779254 248.631416 
L 72.453349 249.555861 
L 72.134127 250.484845 
L 72.203271 250.886803 
L 72.203271 250.886803 
L 72.578357 251.046998 
L 73.555972 250.951182 
L 74.530718 250.847816 
L 74.904154 250.998887 
L 74.977159 251.395052 
L 74.680162 252.329186 
L 74.389986 253.267648 
L 74.471597 253.667261 
L 74.471597 253.667261 
L 74.851484 253.815713 
L 75.825647 253.68954 
L 76.796706 253.555909 
L 77.174659 253.695293 
L 77.25995 254.088997 
L 76.992148 255.031915 
L 76.731299 255.978948 
L 76.825298 256.37583 
L 76.825298 256.37583 
L 77.209618 256.512395 
L 78.179385 256.355987 
L 79.145819 256.192221 
L 79.527924 256.319783 
L 79.625418 256.710644 
L 79.387071 257.661435 
L 79.1558 258.616121 
L 79.262097 259.009888 
L 79.650477 259.134435 
L 80.614912 258.947943 
L 81.575785 258.7542 
L 81.961673 258.869818 
L 82.071275 259.257457 
L 81.862612 260.2152 
L 81.661144 261.176618 
L 81.779636 261.566888 
L 81.779636 261.566888 
L 82.171702 261.679297 
L 83.12987 261.462901 
L 84.084252 261.239369 
L 84.473549 261.342929 
L 84.595154 261.726972 
L 84.416378 262.690742 
L 84.244907 263.65796 
L 84.375479 264.044357 
L 84.375479 264.044357 
L 84.770851 264.144517 
L 85.721826 263.898427 
L 86.668795 263.645322 
L 87.061124 263.736725 
L 87.194614 264.116801 
L 87.045897 265.085664 
L 86.90459 266.057747 
L 87.047115 266.439896 
L 87.047115 266.439896 
L 87.445411 266.527712 
L 88.388273 266.252166 
L 89.326912 265.969733 
L 89.721894 266.04889 
L 89.86714 266.42463 
L 89.748627 267.39765 
L 89.637619 268.373658 
L 89.79196 268.751189 
L 89.79196 268.751189 
L 90.192795 268.826576 
L 91.126631 268.52184 
L 92.056033 268.210352 
L 92.453285 268.277187 
L 92.610146 268.648228 
L 92.521951 269.624463 
L 92.441351 270.603451 
L 92.607359 270.976 
L 92.607359 270.976 
L 93.010344 271.038884 
L 93.934251 270.705254 
L 94.853516 270.365012 
L 95.252655 270.419461 
L 95.420979 270.785444 
L 95.363187 271.763949 
L 95.313072 272.74497 
L 95.490586 273.112176 
L 95.490586 273.112176 
L 95.895332 273.162497 
L 96.808416 272.800295 
L 97.716655 272.431628 
L 98.117295 272.473638 
L 98.296919 272.834209 
L 98.269587 273.814039 
L 98.250006 274.796143 
L 98.438854 275.157651 
L 98.438854 275.157651 
L 98.844969 275.19536 
L 99.746347 274.804936 
L 100.642681 274.408202 
L 101.044434 274.437731 
L 101.235185 274.792542 
L 101.238339 275.772747 
L 101.24931 276.754986 
L 101.44931 277.110446 
L 101.44931 277.110446 
L 101.856401 277.135507 
L 102.745201 276.717239 
L 103.628763 276.292821 
L 104.03124 276.309841 
L 104.232933 276.658548 
L 104.26657 277.638181 
L 104.308083 278.619603 
L 104.519041 278.968671 
L 104.519041 278.968671 
L 104.926715 278.981059 
L 105.802077 278.535352 
L 106.672012 278.083661 
L 107.074823 278.088156 
L 107.287264 278.430421 
L 107.351351 279.408535 
L 107.423366 280.388191 
L 107.645078 280.730529 
L 107.645078 280.730529 
L 108.05294 280.730233 
L 108.914017 280.257518 
L 109.769484 279.77899 
L 110.17224 279.770955 
L 110.395222 280.106449 
L 110.489697 281.082096 
L 110.592145 282.059039 
L 110.824396 282.394316 
L 110.824396 282.394316 
L 111.232052 282.381335 
L 112.078011 281.882069 
L 112.918182 281.377168 
L 113.320493 281.356612 
L 113.553801 281.685008 
L 113.678573 282.657245 
L 113.811354 283.630529 
L 114.05392 283.958422 
L 114.05392 283.958422 
L 114.460975 283.932769 
L 115.290997 283.407435 
L 116.11506 282.876649 
L 116.516537 282.843591 
L 116.759946 283.164573 
L 116.914893 284.132459 
L 117.077879 285.101143 
L 117.330525 285.421333 
L 117.330525 285.421333 
L 117.736585 285.383033 
L 118.549868 284.83214 
L 119.357025 284.275983 
L 119.75728 284.230455 
L 120.010553 284.543711 
L 120.195527 285.50631 
L 120.38856 286.469457 
L 120.651042 286.781634 
L 120.651042 286.781634 
L 121.055714 286.730725 
L 121.851471 286.154805 
L 122.640941 285.573814 
L 123.039586 285.515861 
L 123.302479 285.821088 
L 123.517301 286.777469 
L 123.740194 287.734147 
L 124.012257 288.03801 
L 124.012257 288.03801 
L 124.415151 287.974541 
L 125.192612 287.374152 
L 125.963631 286.768889 
L 126.360281 286.698565 
L 126.63254 286.99547 
L 126.877 287.944707 
L 127.129539 288.89399 
L 127.41092 289.189245 
L 127.41092 289.189245 
L 127.811645 289.113276 
L 128.570058 288.488999 
L 129.32188 287.86005 
L 129.716152 287.777425 
L 129.997512 288.065718 
L 130.271376 289.006894 
L 130.553314 289.947864 
L 130.843742 290.234225 
L 130.843742 290.234225 
L 131.24191 290.145831 
L 131.980542 289.498269 
L 132.71244 288.846243 
L 133.103951 288.751396 
L 133.394141 289.030799 
L 133.697143 289.963003 
L 134.008209 290.894749 
L 134.307403 291.17194 
L 134.307403 291.17194 
L 134.702629 291.071205 
L 135.420764 290.400985 
L 136.132031 289.726512 
L 136.520402 289.619535 
L 136.819142 289.889779 
L 137.150988 290.812108 
L 137.490881 291.733729 
L 137.79855 292.001481 
L 137.79855 292.001481 
L 138.190453 291.888503 
L 138.887396 291.196273 
L 139.577343 290.500007 
L 139.9622 290.381003 
L 140.269199 290.641826 
L 140.629569 291.553388 
L 140.99796 292.463993 
L 141.313808 292.722047 
L 141.313808 292.722047 
L 141.702007 292.596936 
L 142.377085 291.883366 
L 143.045045 291.165979 
L 143.426014 291.035064 
L 143.740977 291.286212 
L 144.129522 292.186127 
L 144.526054 293.084834 
L 144.849774 293.33294 
L 144.849774 293.33294 
L 145.233895 293.195817 
L 145.886455 292.461597 
L 146.53178 291.723784 
L 146.908494 291.581084 
L 147.231115 291.822316 
L 147.647459 292.709711 
L 148.07175 293.595651 
L 148.403029 293.83357 
L 148.403029 293.83357 
L 148.782699 293.684567 
L 149.41211 292.930408 
L 150.034177 292.172882 
L 150.406271 292.018535 
L 150.736238 292.249617 
L 151.179979 293.123634 
L 151.631616 293.995951 
L 151.970135 294.223452 
L 151.970135 294.223452 
L 152.344987 294.062713 
L 152.950639 293.289344 
L 153.548846 292.512839 
L 153.91596 292.346995 
L 154.252954 292.567702 
L 154.723662 293.427497 
L 155.20221 294.285346 
L 155.54764 294.502209 
L 155.54764 294.502209 
L 155.917313 294.32989 
L 156.49862 293.538059 
L 157.072388 292.743325 
L 157.434167 292.566144 
L 157.777862 292.776265 
L 158.275082 293.621005 
L 158.780077 294.463556 
L 159.132085 294.669571 
L 159.132085 294.669571 
L 159.496219 294.485838 
L 160.052619 293.676312 
L 160.601394 292.864119 
L 160.957487 292.675772 
L 161.307551 292.875102 
L 161.830801 293.70397 
L 162.361756 294.530408 
L 162.72 294.725376 
L 162.72 294.725376 
L 163.078244 294.530408 
L 163.609199 293.70397 
L 164.132449 292.875102 
L 164.482513 292.675772 
L 164.838606 292.864119 
L 165.387381 293.676312 
L 165.943781 294.485838 
L 166.307915 294.669571 
L 166.307915 294.669571 
L 166.659923 294.463556 
L 167.164918 293.621005 
L 167.662138 292.776265 
L 168.005833 292.566144 
L 168.367612 292.743325 
L 168.94138 293.538059 
L 169.522687 294.32989 
L 169.89236 294.502209 
L 169.89236 294.502209 
L 170.23779 294.285346 
L 170.716338 293.427497 
L 171.187046 292.567702 
L 171.52404 292.346995 
L 171.891154 292.512839 
L 172.489361 293.289344 
L 173.095013 294.062713 
L 173.469865 294.223452 
L 173.469865 294.223452 
L 173.808384 293.995951 
L 174.260021 293.123634 
L 174.703762 292.249617 
L 175.033729 292.018535 
L 175.405823 292.172882 
L 176.02789 292.930408 
L 176.657301 293.684567 
L 177.036971 293.83357 
L 177.036971 293.83357 
L 177.36825 293.595651 
L 177.792541 292.709711 
L 178.208885 291.822316 
L 178.531506 291.581084 
L 178.90822 291.723784 
L 179.553545 292.461597 
L 180.206105 293.195817 
L 180.590226 293.33294 
L 180.590226 293.33294 
L 180.913946 293.084834 
L 181.310478 292.186127 
L 181.699023 291.286212 
L 182.013986 291.035064 
L 182.394955 291.165979 
L 183.062915 291.883366 
L 183.737993 292.596936 
L 184.126192 292.722047 
L 184.126192 292.722047 
L 184.44204 292.463993 
L 184.810431 291.553388 
L 185.170801 290.641826 
L 185.4778 290.381003 
L 185.862657 290.500007 
L 186.552604 291.196273 
L 187.249547 291.888503 
L 187.64145 292.001481 
L 187.64145 292.001481 
L 187.949119 291.733729 
L 188.289012 290.812108 
L 188.620858 289.889779 
L 188.919598 289.619535 
L 189.307969 289.726512 
L 190.019236 290.400985 
L 190.737371 291.071205 
L 191.132597 291.17194 
L 191.132597 291.17194 
L 191.431791 290.894749 
L 191.742857 289.963003 
L 192.045859 289.030799 
L 192.336049 288.751396 
L 192.72756 288.846243 
L 193.459458 289.498269 
L 194.19809 290.145831 
L 194.596258 290.234225 
L 194.596258 290.234225 
L 194.886686 289.947864 
L 195.168624 289.006894 
L 195.442488 288.065718 
L 195.723848 287.777425 
L 196.11812 287.86005 
L 196.869942 288.488999 
L 197.628355 289.113276 
L 198.02908 289.189245 
L 198.02908 289.189245 
L 198.310461 288.89399 
L 198.563 287.944707 
L 198.80746 286.99547 
L 199.079719 286.698565 
L 199.476369 286.768889 
L 200.247388 287.374152 
L 201.024849 287.974541 
L 201.427743 288.03801 
L 201.427743 288.03801 
L 201.699806 287.734147 
L 201.922699 286.777469 
L 202.137521 285.821088 
L 202.400414 285.515861 
L 202.799059 285.573814 
L 203.588529 286.154805 
L 204.384286 286.730725 
L 204.788958 286.781634 
L 204.788958 286.781634 
L 205.05144 286.469457 
L 205.244473 285.50631 
L 205.429447 284.543711 
L 205.68272 284.230455 
L 206.082975 284.275983 
L 206.890132 284.83214 
L 207.703415 285.383033 
L 208.109475 285.421333 
L 208.109475 285.421333 
L 208.362121 285.101143 
L 208.525107 284.132459 
L 208.680054 283.164573 
L 208.923463 282.843591 
L 209.32494 282.876649 
L 210.149003 283.407435 
L 210.979025 283.932769 
L 211.38608 283.958422 
L 211.628646 283.630529 
L 211.761427 282.657245 
L 211.886199 281.685008 
L 212.119507 281.356612 
L 212.521818 281.377168 
L 213.361989 281.882069 
L 214.207948 282.381335 
L 214.615604 282.394316 
L 214.615604 282.394316 
L 214.847855 282.059039 
L 214.950303 281.082096 
L 215.044778 280.106449 
L 215.26776 279.770955 
L 215.670516 279.77899 
L 216.525983 280.257518 
L 217.38706 280.730233 
L 217.794922 280.730529 
L 217.794922 280.730529 
L 218.016634 280.388191 
L 218.088649 279.408535 
L 218.152736 278.430421 
L 218.365177 278.088156 
L 218.767988 278.083661 
L 219.637923 278.535352 
L 220.513285 278.981059 
L 220.920959 278.968671 
L 220.920959 278.968671 
L 221.131917 278.619603 
L 221.17343 277.638181 
L 221.207067 276.658548 
L 221.40876 276.309841 
L 221.811237 276.292821 
L 222.694799 276.717239 
L 223.583599 277.135507 
L 223.99069 277.110446 
L 223.99069 277.110446 
L 224.19069 276.754986 
L 224.201661 275.772747 
L 224.204815 274.792542 
L 224.395566 274.437731 
L 224.797319 274.408202 
L 225.693653 274.804936 
L 226.595031 275.19536 
L 227.001146 275.157651 
L 227.001146 275.157651 
L 227.189994 274.796143 
L 227.170413 273.814039 
L 227.143081 272.834209 
L 227.322705 272.473638 
L 227.723345 272.431628 
L 228.631584 272.800295 
L 229.544668 273.162497 
L 229.949414 273.112176 
L 229.949414 273.112176 
L 230.126928 272.74497 
L 230.076813 271.763949 
L 230.019021 270.785444 
L 230.187345 270.419461 
L 230.586484 270.365012 
L 231.505749 270.705254 
L 232.429656 271.038884 
L 232.832641 270.976 
L 232.832641 270.976 
L 232.998649 270.603451 
L 232.918049 269.624463 
L 232.829854 268.648228 
L 232.986715 268.277187 
L 233.383967 268.210352 
L 234.313369 268.52184 
L 235.247205 268.826576 
L 235.64804 268.751189 
L 235.64804 268.751189 
L 235.802381 268.373658 
L 235.691373 267.39765 
L 235.57286 266.42463 
L 235.718106 266.04889 
L 236.113088 265.969733 
L 237.051727 266.252166 
L 237.994589 266.527712 
L 238.392885 266.439896 
L 238.392885 266.439896 
L 238.53541 266.057747 
L 238.394103 265.085664 
L 238.245386 264.116801 
L 238.378876 263.736725 
L 238.771205 263.645322 
L 239.718174 263.898427 
L 240.669149 264.144517 
L 241.064521 264.044357 
L 241.064521 264.044357 
L 241.195093 263.65796 
L 241.023622 262.690742 
L 240.844846 261.726972 
L 240.966451 261.342929 
L 241.355748 261.239369 
L 242.31013 261.462901 
L 243.268298 261.679297 
L 243.660364 261.566888 
L 243.778856 261.176618 
L 243.577388 260.2152 
L 243.368725 259.257457 
L 243.478327 258.869818 
L 243.864215 258.7542 
L 244.825088 258.947943 
L 245.789523 259.134435 
L 246.177903 259.009888 
L 246.177903 259.009888 
L 246.2842 258.616121 
L 246.052929 257.661435 
L 245.814582 256.710644 
L 245.912076 256.319783 
L 246.294181 256.192221 
L 247.260615 256.355987 
L 248.230382 256.512395 
L 248.614702 256.37583 
L 248.614702 256.37583 
L 248.708701 255.978948 
L 248.447852 255.031915 
L 248.18005 254.088997 
L 248.265341 253.695293 
L 248.643294 253.555909 
L 249.614353 253.68954 
L 250.588516 253.815713 
L 250.968403 253.667261 
L 250.968403 253.667261 
L 251.050014 253.267648 
L 250.759838 252.329186 
L 250.462841 251.395052 
L 250.535846 250.998887 
L 250.909282 250.847816 
L 251.884028 250.951182 
L 252.861643 251.046998 
L 253.236729 250.886803 
L 253.236729 250.886803 
L 253.305873 250.484845 
L 252.986651 249.555861 
L 252.660746 248.631416 
L 252.721396 248.233172 
L 253.089953 248.07056 
L 254.067441 248.143562 
L 255.047564 248.208928 
L 255.417486 248.037146 
L 255.417486 248.037146 
L 255.474096 247.633231 
L 255.126137 246.714625 
L 254.77164 245.800762 
L 254.819875 245.400825 
L 255.183196 245.226829 
L 256.162482 245.269396 
L 257.144164 245.304249 
L 257.508564 245.121045 
L 257.508564 245.121045 
L 257.552585 244.715566 
L 257.176226 243.808225 
L 256.79348 242.905829 
L 256.829253 242.504585 
L 257.186987 242.319375 
L 258.167124 242.331465 
L 259.149414 242.335771 
L 259.507941 242.141323 
L 259.507941 242.141323 
L 259.53933 241.734671 
L 259.134935 240.839474 
L 258.724309 239.949418 
L 258.747587 239.547255 
L 259.099388 239.351009 
L 260.079426 239.332611 
L 261.061375 239.306366 
L 261.413682 239.100862 
L 261.413682 239.100862 
L 261.432408 238.69343 
L 261.000368 237.811243 
L 260.562261 236.934388 
L 260.57302 236.531696 
L 260.918548 236.324603 
L 261.89754 236.275736 
L 262.878197 236.218964 
L 263.223942 236.002603 
L 263.223942 236.002603 
L 263.229989 235.594786 
L 262.770722 234.726462 
L 262.305556 233.863656 
L 262.303786 233.460824 
L 262.642707 233.243086 
L 263.619705 233.163796 
L 264.598123 233.076553 
L 264.936972 232.849545 
L 264.930333 232.441737 
L 264.444283 231.588115 
L 263.952509 230.740194 
L 263.938212 230.337612 
L 264.270197 230.109438 
L 265.244257 229.999802 
L 266.219488 229.882173 
L 266.551113 229.644736 
L 266.551113 229.644736 
L 266.531794 229.237332 
L 266.019433 228.39924 
L 265.501526 227.567022 
L 265.474716 227.165079 
L 265.799444 226.926692 
L 266.769623 226.786815 
L 267.740724 226.638914 
L 268.064805 226.391278 
L 268.064805 226.391278 
L 268.032825 225.984672 
L 267.494646 225.162919 
L 266.951109 224.347211 
L 266.911811 223.946296 
L 267.228968 223.697925 
L 268.194328 223.527944 
L 269.16036 223.349913 
L 269.476582 223.092318 
L 269.476582 223.092318 
L 269.431972 222.686903 
L 268.868498 221.882285 
L 268.299855 221.083876 
L 268.248107 220.684377 
L 268.557387 220.426263 
L 269.516993 220.226341 
L 270.477021 220.018353 
L 270.785079 219.751048 
L 270.785079 219.751048 
L 270.727882 219.347216 
L 270.139657 218.560512 
L 269.546458 217.780173 
L 269.482312 217.382477 
L 269.783414 217.114869 
L 270.736339 216.885201 
L 271.689434 216.647456 
L 271.98903 216.3707 
L 271.98903 216.3707 
L 271.919302 215.968842 
L 271.306895 215.200812 
L 270.689715 214.439299 
L 270.613231 214.043791 
L 270.905865 213.766948 
L 271.851186 213.507755 
L 272.796427 213.240484 
L 273.08727 212.954544 
L 273.08727 212.954544 
L 273.005078 212.55505 
L 272.369082 211.806437 
L 271.728517 211.064487 
L 271.63977 210.671548 
L 271.923653 210.385738 
L 272.860456 210.097271 
L 273.796927 209.800732 
L 274.078737 209.505886 
L 274.078737 209.505886 
L 273.984161 209.109141 
L 273.32519 208.38067 
L 272.661861 207.659 
L 272.560937 207.269011 
L 272.835794 206.974511 
L 273.763172 206.657049 
L 274.689968 206.331529 
L 274.962472 206.028062 
L 274.962472 206.028062 
L 274.855603 205.63445 
L 274.174295 204.926825 
L 273.488843 204.226133 
L 273.375839 203.839472 
L 273.641404 203.536566 
L 274.558461 203.190416 
L 275.474685 202.836231 
L 275.73762 202.524435 
L 275.73762 202.524435 
L 275.618561 202.134337 
L 274.915576 201.448243 
L 274.208664 200.769208 
L 274.083689 200.386248 
L 274.339705 200.07523 
L 275.245553 199.700727 
L 276.150319 199.318219 
L 276.40343 198.998397 
L 276.40343 198.998397 
L 276.272296 198.61219 
L 275.548314 197.948291 
L 274.820626 197.291569 
L 274.683802 196.912681 
L 274.930022 196.593851 
L 275.823785 196.191358 
L 276.716217 195.780897 
L 276.959258 195.453357 
L 276.816178 195.071416 
L 276.071898 194.430353 
L 275.324139 193.79658 
L 275.175597 193.422131 
L 275.411782 193.095798 
L 276.292595 192.665703 
L 277.17183 192.227686 
L 277.404568 191.892746 
L 277.404568 191.892746 
L 277.249678 191.515439 
L 276.485822 190.897834 
L 275.718714 190.287623 
L 275.558599 189.917974 
L 275.784521 189.584453 
L 276.651532 189.127174 
L 277.516719 188.662024 
L 277.738928 188.320009 
L 277.738928 188.320009 
L 277.572379 187.947701 
L 276.789685 187.35415 
L 276.00397 186.768091 
L 275.832436 186.403601 
L 276.047877 186.063216 
L 276.900247 185.579193 
L 277.75055 185.087362 
L 277.962014 184.738601 
L 277.962014 184.738601 
L 277.783967 184.371653 
L 276.983192 183.802731 
L 276.179631 183.241391 
L 275.996845 182.882412 
L 276.201595 182.535491 
L 277.0385 182.025194 
L 277.873096 181.507156 
L 278.073611 181.151987 
L 278.073611 181.151987 
" clip-path="url(#p0e57e179dc)" style="fill: none; stroke: #ffffff; stroke-width: 0.72; stroke-linejoin: miter"/>
   </g>
   <g id="patch_5">
    <path d="M 301.556945 179.357812 
C 301.556945 182.637299 298.898396 185.295849 295.618909 185.295849 
C 292.339422 185.295849 289.680873 182.637299 289.680873 179.357812 
C 289.680873 176.078326 292.339422 173.419776 295.618909 173.419776 
C 298.898396 173.419776 301.556945 176.078326 301.556945 179.357812 
" clip-path="url(#p0e57e179dc)" style="fill: none; stroke: #ffffff; stroke-width: 0.72; stroke-linejoin: miter"/>
   </g>
   <g id="patch_6">
    <path d="M 235.107491 64.263981 
C 235.107491 67.543468 232.448941 70.202017 229.169455 70.202017 
C 225.889968 70.202017 223.231418 67.543468 223.231418 64.263981 
C 223.231418 60.984494 225.889968 58.325945 229.169455 58.325945 
C 232.448941 58.325945 235.107491 60.984494 235.107491 64.263981 
" clip-path="url(#p0e57e179dc)" style="fill: none; stroke: #ffffff; stroke-width: 0.72; stroke-linejoin: miter"/>
   </g>
   <g id="text_1">
    <!-- Circular Spline - 202 Internal Teeth -->
    <g transform="translate(24.827656 17.837812) scale(0.14 -0.14)">
     <defs>
      <path id="DejaVuSans-Bold-43" d="M 4288 256 
Q 3956 84 3597 -3 
Q 3238 -91 2847 -91 
Q 1681 -91 1000 561 
Q 319 1213 319 2328 
Q 319 3447 1000 4098 
Q 1681 4750 2847 4750 
Q 3238 4750 3597 4662 
Q 3956 4575 4288 4403 
L 4288 3438 
Q 3953 3666 3628 3772 
Q 3303 3878 2944 3878 
Q 2300 3878 1931 3465 
Q 1563 3053 1563 2328 
Q 1563 1606 1931 1193 
Q 2300 781 2944 781 
Q 3303 781 3628 887 
Q 3953 994 4288 1222 
L 4288 256 
z
" transform="scale(0.015625)"/>
      <path id="DejaVuSans-Bold-69" d="M 538 3500 
L 1656 3500 
L 1656 0 
L 538 0 
L 538 3500 
z
M 538 4863 
L 1656 4863 
L 1656 3950 
L 538 3950 
L 538 4863 
z
" transform="scale(0.015625)"/>
      <path id="DejaVuSans-Bold-72" d="M 3138 2547 
Q 2991 2616 2845 2648 
Q 2700 2681 2553 2681 
Q 2122 2681 1889 2404 
Q 1656 2128 1656 1613 
L 1656 0 
L 538 0 
L 538 3500 
L 1656 3500 
L 1656 2925 
Q 1872 3269 2151 3426 
Q 2431 3584 2822 3584 
Q 2878 3584 2943 3579 
Q 3009 3575 3134 3559 
L 3138 2547 
z
" transform="scale(0.015625)"/>
      <path id="DejaVuSans-Bold-63" d="M 3366 3391 
L 3366 2478 
Q 3138 2634 2908 2709 
Q 2678 2784 2431 2784 
Q 1963 2784 1702 2511 
Q 1441 2238 1441 1747 
Q 1441 1256 1702 982 
Q 1963 709 2431 709 
Q 2694 709 2930 787 
Q 3166 866 3366 1019 
L 3366 103 
Q 3103 6 2833 -42 
Q 2563 -91 2291 -91 
Q 1344 -91 809 395 
Q 275 881 275 1747 
Q 275 2613 809 3098 
Q 1344 3584 2291 3584 
Q 2566 3584 2833 3536 
Q 3100 3488 3366 3391 
z
" transform="scale(0.015625)"/>
      <path id="DejaVuSans-Bold-75" d="M 500 1363 
L 500 3500 
L 1625 3500 
L 1625 3150 
Q 1625 2866 1622 2436 
Q 1619 2006 1619 1863 
Q 1619 1441 1641 1255 
Q 1663 1069 1716 984 
Q 1784 875 1895 815 
Q 2006 756 2150 756 
Q 2500 756 2700 1025 
Q 2900 1294 2900 1772 
L 2900 3500 
L 4019 3500 
L 4019 0 
L 2900 0 
L 2900 506 
Q 2647 200 2364 54 
Q 2081 -91 1741 -91 
Q 1134 -91 817 281 
Q 500 653 500 1363 
z
" transform="scale(0.015625)"/>
      <path id="DejaVuSans-Bold-6c" d="M 538 4863 
L 1656 4863 
L 1656 0 
L 538 0 
L 538 4863 
z
" transform="scale(0.015625)"/>
      <path id="DejaVuSans-Bold-61" d="M 2106 1575 
Q 1756 1575 1579 1456 
Q 1403 1338 1403 1106 
Q 1403 894 1545 773 
Q 1688 653 1941 653 
Q 2256 653 2472 879 
Q 2688 1106 2688 1447 
L 2688 1575 
L 2106 1575 
z
M 3816 1997 
L 3816 0 
L 2688 0 
L 2688 519 
Q 2463 200 2181 54 
Q 1900 -91 1497 -91 
Q 953 -91 614 226 
Q 275 544 275 1050 
Q 275 1666 698 1953 
Q 1122 2241 2028 2241 
L 2688 2241 
L 2688 2328 
Q 2688 2594 2478 2717 
Q 2269 2841 1825 2841 
Q 1466 2841 1156 2769 
Q 847 2697 581 2553 
L 581 3406 
Q 941 3494 1303 3539 
Q 1666 3584 2028 3584 
Q 2975 3584 3395 3211 
Q 3816 2838 3816 1997 
z
" transform="scale(0.015625)"/>
      <path id="DejaVuSans-Bold-20" transform="scale(0.015625)"/>
      <path id="DejaVuSans-Bold-53" d="M 3834 4519 
L 3834 3531 
Q 3450 3703 3084 3790 
Q 2719 3878 2394 3878 
Q 1963 3878 1756 3759 
Q 1550 3641 1550 3391 
Q 1550 3203 1689 3098 
Q 1828 2994 2194 2919 
L 2706 2816 
Q 3484 2659 3812 2340 
Q 4141 2022 4141 1434 
Q 4141 663 3683 286 
Q 3225 -91 2284 -91 
Q 1841 -91 1394 -6 
Q 947 78 500 244 
L 500 1259 
Q 947 1022 1364 901 
Q 1781 781 2169 781 
Q 2563 781 2772 912 
Q 2981 1044 2981 1288 
Q 2981 1506 2839 1625 
Q 2697 1744 2272 1838 
L 1806 1941 
Q 1106 2091 782 2419 
Q 459 2747 459 3303 
Q 459 4000 909 4375 
Q 1359 4750 2203 4750 
Q 2588 4750 2994 4692 
Q 3400 4634 3834 4519 
z
" transform="scale(0.015625)"/>
      <path id="DejaVuSans-Bold-70" d="M 1656 506 
L 1656 -1331 
L 538 -1331 
L 538 3500 
L 1656 3500 
L 1656 2988 
Q 1888 3294 2169 3439 
Q 2450 3584 2816 3584 
Q 3463 3584 3878 3070 
Q 4294 2556 4294 1747 
Q 4294 938 3878 423 
Q 3463 -91 2816 -91 
Q 2450 -91 2169 54 
Q 1888 200 1656 506 
z
M 2400 2772 
Q 2041 2772 1848 2508 
Q 1656 2244 1656 1747 
Q 1656 1250 1848 986 
Q 2041 722 2400 722 
Q 2759 722 2948 984 
Q 3138 1247 3138 1747 
Q 3138 2247 2948 2509 
Q 2759 2772 2400 2772 
z
" transform="scale(0.015625)"/>
      <path id="DejaVuSans-Bold-6e" d="M 4056 2131 
L 4056 0 
L 2931 0 
L 2931 347 
L 2931 1631 
Q 2931 2084 2911 2256 
Q 2891 2428 2841 2509 
Q 2775 2619 2662 2680 
Q 2550 2741 2406 2741 
Q 2056 2741 1856 2470 
Q 1656 2200 1656 1722 
L 1656 0 
L 538 0 
L 538 3500 
L 1656 3500 
L 1656 2988 
Q 1909 3294 2193 3439 
Q 2478 3584 2822 3584 
Q 3428 3584 3742 3212 
Q 4056 2841 4056 2131 
z
" transform="scale(0.015625)"/>
      <path id="DejaVuSans-Bold-65" d="M 4031 1759 
L 4031 1441 
L 1416 1441 
Q 1456 1047 1700 850 
Q 1944 653 2381 653 
Q 2734 653 3104 758 
Q 3475 863 3866 1075 
L 3866 213 
Q 3469 63 3072 -14 
Q 2675 -91 2278 -91 
Q 1328 -91 801 392 
Q 275 875 275 1747 
Q 275 2603 792 3093 
Q 1309 3584 2216 3584 
Q 3041 3584 3536 3087 
Q 4031 2591 4031 1759 
z
M 2881 2131 
Q 2881 2450 2695 2645 
Q 2509 2841 2209 2841 
Q 1884 2841 1681 2658 
Q 1478 2475 1428 2131 
L 2881 2131 
z
" transform="scale(0.015625)"/>
      <path id="DejaVuSans-Bold-2d" d="M 347 2297 
L 2309 2297 
L 2309 1388 
L 347 1388 
L 347 2297 
z
" transform="scale(0.015625)"/>
      <path id="DejaVuSans-Bold-32" d="M 1844 884 
L 3897 884 
L 3897 0 
L 506 0 
L 506 884 
L 2209 2388 
Q 2438 2594 2547 2791 
Q 2656 2988 2656 3200 
Q 2656 3528 2436 3728 
Q 2216 3928 1850 3928 
Q 1569 3928 1234 3808 
Q 900 3688 519 3450 
L 519 4475 
Q 925 4609 1322 4679 
Q 1719 4750 2100 4750 
Q 2938 4750 3402 4381 
Q 3866 4013 3866 3353 
Q 3866 2972 3669 2642 
Q 3472 2313 2841 1759 
L 1844 884 
z
" transform="scale(0.015625)"/>
      <path id="DejaVuSans-Bold-30" d="M 2944 2338 
Q 2944 3213 2780 3570 
Q 2616 3928 2228 3928 
Q 1841 3928 1675 3570 
Q 1509 3213 1509 2338 
Q 1509 1453 1675 1090 
Q 1841 728 2228 728 
Q 2613 728 2778 1090 
Q 2944 1453 2944 2338 
z
M 4147 2328 
Q 4147 1169 3647 539 
Q 3147 -91 2228 -91 
Q 1306 -91 806 539 
Q 306 1169 306 2328 
Q 306 3491 806 4120 
Q 1306 4750 2228 4750 
Q 3147 4750 3647 4120 
Q 4147 3491 4147 2328 
z
" transform="scale(0.015625)"/>
      <path id="DejaVuSans-Bold-49" d="M 588 4666 
L 1791 4666 
L 1791 0 
L 588 0 
L 588 4666 
z
" transform="scale(0.015625)"/>
      <path id="DejaVuSans-Bold-74" d="M 1759 4494 
L 1759 3500 
L 2913 3500 
L 2913 2700 
L 1759 2700 
L 1759 1216 
Q 1759 972 1856 886 
Q 1953 800 2241 800 
L 2816 800 
L 2816 0 
L 1856 0 
Q 1194 0 917 276 
Q 641 553 641 1216 
L 641 2700 
L 84 2700 
L 84 3500 
L 641 3500 
L 641 4494 
L 1759 4494 
z
" transform="scale(0.015625)"/>
      <path id="DejaVuSans-Bold-54" d="M 31 4666 
L 4331 4666 
L 4331 3756 
L 2784 3756 
L 2784 0 
L 1581 0 
L 1581 3756 
L 31 3756 
L 31 4666 
z
" transform="scale(0.015625)"/>
      <path id="DejaVuSans-Bold-68" d="M 4056 2131 
L 4056 0 
L 2931 0 
L 2931 347 
L 2931 1625 
Q 2931 2084 2911 2256 
Q 2891 2428 2841 2509 
Q 2775 2619 2662 2680 
Q 2550 2741 2406 2741 
Q 2056 2741 1856 2470 
Q 1656 2200 1656 1722 
L 1656 0 
L 538 0 
L 538 4863 
L 1656 4863 
L 1656 2988 
Q 1909 3294 2193 3439 
Q 2478 3584 2822 3584 
Q 3428 3584 3742 3212 
Q 4056 2841 4056 2131 
z
" transform="scale(0.015625)"/>
     </defs>
     <use xlink:href="#DejaVuSans-Bold-43"/>
     <use xlink:href="#DejaVuSans-Bold-69" transform="translate(73.388672 0)"/>
     <use xlink:href="#DejaVuSans-Bold-72" transform="translate(107.666016 0)"/>
     <use xlink:href="#DejaVuSans-Bold-63" transform="translate(156.982422 0)"/>
     <use xlink:href="#DejaVuSans-Bold-75" transform="translate(216.259766 0)"/>
     <use xlink:href="#DejaVuSans-Bold-6c" transform="translate(287.451172 0)"/>
     <use xlink:href="#DejaVuSans-Bold-61" transform="translate(321.728516 0)"/>
     <use xlink:href="#DejaVuSans-Bold-72" transform="translate(389.208984 0)"/>
     <use xlink:href="#DejaVuSans-Bold-20" transform="translate(438.525391 0)"/>
     <use xlink:href="#DejaVuSans-Bold-53" transform="translate(473.339844 0)"/>
     <use xlink:href="#DejaVuSans-Bold-70" transform="translate(545.361328 0)"/>
     <use xlink:href="#DejaVuSans-Bold-6c" transform="translate(616.943359 0)"/>
     <use xlink:href="#DejaVuSans-Bold-69" transform="translate(651.220703 0)"/>
     <use xlink:href="#DejaVuSans-Bold-6e" transform="translate(685.498047 0)"/>
     <use xlink:href="#DejaVuSans-Bold-65" transform="translate(756.689453 0)"/>
     <use xlink:href="#DejaVuSans-Bold-20" transform="translate(824.511719 0)"/>
     <use xlink:href="#DejaVuSans-Bold-2d" transform="translate(859.326172 0)"/>
     <use xlink:href="#DejaVuSans-Bold-20" transform="translate(900.830078 0)"/>
     <use xlink:href="#DejaVuSans-Bold-32" transform="translate(935.644531 0)"/>
     <use xlink:href="#DejaVuSans-Bold-30" transform="translate(1005.224609 0)"/>
     <use xlink:href="#DejaVuSans-Bold-32" transform="translate(1074.804688 0)"/>
     <use xlink:href="#DejaVuSans-Bold-20" transform="translate(1144.384766 0)"/>
     <use xlink:href="#DejaVuSans-Bold-49" transform="translate(1179.199219 0)"/>
     <use xlink:href="#DejaVuSans-Bold-6e" transform="translate(1216.40625 0)"/>
     <use xlink:href="#DejaVuSans-Bold-74" transform="translate(1287.597656 0)"/>
     <use xlink:href="#DejaVuSans-Bold-65" transform="translate(1335.400391 0)"/>
     <use xlink:href="#DejaVuSans-Bold-72" transform="translate(1403.222656 0)"/>
     <use xlink:href="#DejaVuSans-Bold-6e" transform="translate(1452.539062 0)"/>
     <use xlink:href="#DejaVuSans-Bold-61" transform="translate(1523.730469 0)"/>
     <use xlink:href="#DejaVuSans-Bold-6c" transform="translate(1591.210938 0)"/>
     <use xlink:href="#DejaVuSans-Bold-20" transform="translate(1625.488281 0)"/>
     <use xlink:href="#DejaVuSans-Bold-54" transform="translate(1660.302734 0)"/>
     <use xlink:href="#DejaVuSans-Bold-65" transform="translate(1715.265625 0)"/>
     <use xlink:href="#DejaVuSans-Bold-65" transform="translate(1783.087891 0)"/>
     <use xlink:href="#DejaVuSans-Bold-74" transform="translate(1850.910156 0)"/>
     <use xlink:href="#DejaVuSans-Bold-68" transform="translate(1898.712891 0)"/>
    </g>
   </g>
   <g id="patch_7">
    <path d="M 102.208582 64.263981 
C 102.208582 67.543468 99.550032 70.202017 96.270545 70.202017 
C 92.991059 70.202017 90.332509 67.543468 90.332509 64.263981 
C 90.332509 60.984494 92.991059 58.325945 96.270545 58.325945 
C 99.550032 58.325945 102.208582 60.984494 102.208582 64.263981 
" clip-path="url(#p0e57e179dc)" style="fill: none; stroke: #ffffff; stroke-width: 0.72; stroke-linejoin: miter"/>
   </g>
   <g id="patch_8">
    <path d="M 35.759127 179.357812 
C 35.759127 182.637299 33.100578 185.295849 29.821091 185.295849 
C 26.541604 185.295849 23.883055 182.637299 23.883055 179.357812 
C 23.883055 176.078326 26.541604 173.419776 29.821091 173.419776 
C 33.100578 173.419776 35.759127 176.078326 35.759127 179.357812 
" clip-path="url(#p0e57e179dc)" style="fill: none; stroke: #ffffff; stroke-width: 0.72; stroke-linejoin: miter"/>
   </g>
   <g id="patch_9">
    <path d="M 102.208582 294.451644 
C 102.208582 297.731131 99.550032 300.38968 96.270545 300.38968 
C 92.991059 300.38968 90.332509 297.731131 90.332509 294.451644 
C 90.332509 291.172157 92.991059 288.513608 96.270545 288.513608 
C 99.550032 288.513608 102.208582 291.172157 102.208582 294.451644 
" clip-path="url(#p0e57e179dc)" style="fill: none; stroke: #ffffff; stroke-width: 0.72; stroke-linejoin: miter"/>
   </g>
   <g id="patch_10">
    <path d="M 235.107491 294.451644 
C 235.107491 297.731131 232.448941 300.38968 229.169455 300.38968 
C 225.889968 300.38968 223.231418 297.731131 223.231418 294.451644 
C 223.231418 291.172157 225.889968 288.513608 229.169455 288.513608 
C 232.448941 288.513608 235.107491 291.172157 235.107491 294.451644 
" clip-path="url(#p0e57e179dc)" style="fill: none; stroke: #ffffff; stroke-width: 0.72; stroke-linejoin: miter"/>
   </g>
  </g>
 </g>
 <defs>
  <clipPath id="p0e57e179dc">
   <rect x="7.2" y="23.837812" width="311.04" height="311.04"/>
  </clipPath>
 </defs>
</svg>
