<?xml version="1.0" encoding="UTF-8"?>
<svg xmlns="http://www.w3.org/2000/svg" viewBox="0 0 800 600" width="800" height="600">
  <style>
    .outline { fill: none; stroke: #000; stroke-width: 0.5; }
    .thick { fill: none; stroke: #000; stroke-width: 1; }
    .dim { fill: none; stroke: #000; stroke-width: 0.3; }
    .dim-text { font-family: Arial, sans-serif; font-size: 10px; fill: #000; }
    .title { font-family: Arial, sans-serif; font-size: 14px; font-weight: bold; fill: #000; }
    .note { font-family: Arial, sans-serif; font-size: 9px; fill: #000; }
    .center { fill: none; stroke: #000; stroke-width: 0.3; stroke-dasharray: 10,3,2,3; }
    .hidden { fill: none; stroke: #000; stroke-width: 0.3; stroke-dasharray: 4,2; }
    .hatch { fill: none; stroke: #666; stroke-width: 0.2; }
  </style>

  <!-- Title Block -->
  <rect x="550" y="520" width="240" height="70" class="thick"/>
  <line x1="550" y1="545" x2="790" y2="545" class="outline"/>
  <line x1="550" y1="565" x2="790" y2="565" class="outline"/>
  <line x1="650" y1="520" x2="650" y2="590" class="outline"/>
  <text x="560" y="535" class="note">PART NAME:</text>
  <text x="660" y="535" class="title">FLEX SPLINE</text>
  <text x="560" y="558" class="note">MATERIAL:</text>
  <text x="660" y="558" class="note">17-4 PH STAINLESS (H900)</text>
  <text x="560" y="580" class="note">SCALE: 2:1</text>
  <text x="660" y="580" class="note">DWG: HD-001 REV A</text>

  <!-- Cross Section View (Left) -->
  <text x="150" y="30" class="title">SECTION A-A</text>

  <!-- Center line vertical -->
  <line x1="200" y1="50" x2="200" y2="480" class="center"/>

  <!-- Cup profile - outer -->
  <path d="M 160 100
           L 160 380
           Q 160 400, 180 400
           L 220 400
           Q 240 400, 240 380
           L 240 100" class="thick"/>

  <!-- Cup profile - inner -->
  <path d="M 168 100
           L 168 372
           Q 168 390, 186 390
           L 214 390
           Q 232 390, 232 372
           L 232 100" class="thick"/>

  <!-- Tooth zone indication -->
  <rect x="156" y="100" width="8" height="48" fill="#ddd" stroke="#000" stroke-width="0.3"/>
  <rect x="236" y="100" width="8" height="48" fill="#ddd" stroke="#000" stroke-width="0.3"/>

  <!-- Cross hatching for section -->
  <g class="hatch">
    <line x1="160" y1="105" x2="168" y2="97"/>
    <line x1="160" y1="115" x2="168" y2="107"/>
    <line x1="160" y1="125" x2="168" y2="117"/>
    <line x1="160" y1="135" x2="168" y2="127"/>
    <line x1="160" y1="145" x2="168" y2="137"/>
    <line x1="160" y1="200" x2="168" y2="192"/>
    <line x1="160" y1="210" x2="168" y2="202"/>
    <line x1="160" y1="220" x2="168" y2="212"/>
    <line x1="160" y1="280" x2="168" y2="272"/>
    <line x1="160" y1="290" x2="168" y2="282"/>
    <line x1="160" y1="300" x2="168" y2="292"/>
    <line x1="160" y1="350" x2="168" y2="342"/>
    <line x1="160" y1="360" x2="168" y2="352"/>
    <line x1="160" y1="370" x2="168" y2="362"/>
    <line x1="232" y1="105" x2="240" y2="97"/>
    <line x1="232" y1="115" x2="240" y2="107"/>
    <line x1="232" y1="125" x2="240" y2="117"/>
    <line x1="232" y1="135" x2="240" y2="127"/>
    <line x1="232" y1="145" x2="240" y2="137"/>
    <line x1="232" y1="200" x2="240" y2="192"/>
    <line x1="232" y1="210" x2="240" y2="202"/>
    <line x1="232" y1="220" x2="240" y2="212"/>
    <line x1="232" y1="280" x2="240" y2="272"/>
    <line x1="232" y1="290" x2="240" y2="282"/>
    <line x1="232" y1="300" x2="240" y2="292"/>
    <line x1="232" y1="350" x2="240" y2="342"/>
    <line x1="232" y1="360" x2="240" y2="352"/>
    <line x1="232" y1="370" x2="240" y2="362"/>
  </g>

  <!-- Base cross hatch -->
  <g class="hatch">
    <line x1="170" y1="392" x2="178" y2="400"/>
    <line x1="180" y1="392" x2="188" y2="400"/>
    <line x1="190" y1="392" x2="198" y2="400"/>
    <line x1="200" y1="392" x2="208" y2="400"/>
    <line x1="210" y1="392" x2="218" y2="400"/>
    <line x1="220" y1="392" x2="228" y2="400"/>
  </g>

  <!-- Dimensions - Outer Diameter -->
  <line x1="160" y1="85" x2="160" y2="60" class="dim"/>
  <line x1="240" y1="85" x2="240" y2="60" class="dim"/>
  <line x1="160" y1="70" x2="240" y2="70" class="dim"/>
  <polygon points="160,70 167,67 167,73" fill="#000"/>
  <polygon points="240,70 233,67 233,73" fill="#000"/>
  <text x="185" y="65" class="dim-text">80.64 ±0.02</text>

  <!-- Dimensions - Inner Diameter -->
  <line x1="168" y1="200" x2="145" y2="200" class="dim"/>
  <line x1="232" y1="200" x2="255" y2="200" class="dim"/>
  <line x1="130" y1="200" x2="130" y2="250" class="dim"/>
  <text x="105" y="230" class="dim-text">79.04</text>
  <text x="105" y="242" class="dim-text">±0.02</text>

  <!-- Dimensions - Wall Thickness -->
  <line x1="160" y1="300" x2="140" y2="300" class="dim"/>
  <line x1="168" y1="300" x2="140" y2="300" class="dim"/>
  <line x1="145" y1="295" x2="145" y2="305" class="dim"/>
  <text x="115" y="295" class="dim-text">0.80</text>
  <text x="115" y="307" class="dim-text">±0.05</text>

  <!-- Dimensions - Cup Depth -->
  <line x1="255" y1="100" x2="280" y2="100" class="dim"/>
  <line x1="255" y1="400" x2="280" y2="400" class="dim"/>
  <line x1="270" y1="100" x2="270" y2="400" class="dim"/>
  <polygon points="270,100 267,107 273,107" fill="#000"/>
  <polygon points="270,400 267,393 273,393" fill="#000"/>
  <text x="275" y="255" class="dim-text">24.0 ±0.1</text>

  <!-- Dimensions - Tooth Zone -->
  <line x1="290" y1="100" x2="310" y2="100" class="dim"/>
  <line x1="290" y1="148" x2="310" y2="148" class="dim"/>
  <line x1="300" y1="100" x2="300" y2="148" class="dim"/>
  <polygon points="300,100 297,107 303,107" fill="#000"/>
  <polygon points="300,148 297,141 303,141" fill="#000"/>
  <text x="305" y="128" class="dim-text">9.6</text>

  <!-- Dimensions - Base Thickness -->
  <line x1="200" y1="390" x2="200" y2="420" class="dim"/>
  <line x1="200" y1="400" x2="200" y2="420" class="dim"/>
  <line x1="195" y1="410" x2="220" y2="410" class="dim"/>
  <text x="222" y="413" class="dim-text">2.4 ±0.1</text>

  <!-- Dimensions - Fillet Radius -->
  <path d="M 168 375 Q 168 390 183 390" class="dim" fill="none"/>
  <text x="175" y="385" class="dim-text">R2.0</text>

  <!-- Top View (Right) -->
  <text x="550" y="30" class="title">TOP VIEW</text>

  <!-- Outer circle -->
  <circle cx="550" cy="220" r="100" class="thick"/>

  <!-- Inner circle (teeth root) -->
  <circle cx="550" cy="220" r="96" class="outline"/>

  <!-- Pitch circle -->
  <circle cx="550" cy="220" r="100" class="center"/>

  <!-- Center lines -->
  <line x1="550" y1="100" x2="550" y2="340" class="center"/>
  <line x1="430" y1="220" x2="670" y2="220" class="center"/>

  <!-- Tooth indication (simplified - showing pattern) -->
  <g stroke="#000" stroke-width="0.3" fill="none">
    <circle cx="550" cy="220" r="100.32"/>
    <!-- Teeth marks around circumference -->
    <line x1="550" y1="119" x2="550" y2="123"/>
    <line x1="558" y1="119.2" x2="558" y2="123.2"/>
    <line x1="566" y1="119.8" x2="565.5" y2="123.8"/>
    <line x1="574" y1="120.8" x2="573" y2="124.7"/>
    <line x1="582" y1="122.2" x2="580.5" y2="126"/>
    <line x1="590" y1="124" x2="588" y2="127.7"/>
    <line x1="598" y1="126.2" x2="595.5" y2="129.8"/>
    <line x1="606" y1="128.8" x2="603" y2="132.2"/>
    <line x1="613" y1="132" x2="609.5" y2="135.2"/>
    <line x1="620" y1="135.5" x2="616" y2="138.5"/>
  </g>

  <!-- Diameter dimension -->
  <line x1="550" y1="320" x2="550" y2="360" class="dim"/>
  <line x1="450" y1="220" x2="450" y2="360" class="dim"/>
  <line x1="650" y1="220" x2="650" y2="360" class="dim"/>
  <line x1="450" y1="350" x2="650" y2="350" class="dim"/>
  <polygon points="450,350 457,347 457,353" fill="#000"/>
  <polygon points="650,350 643,347 643,353" fill="#000"/>
  <text x="520" y="345" class="dim-text">80.64 OD</text>

  <!-- Teeth count note -->
  <text x="520" y="380" class="note">200 TEETH</text>
  <text x="510" y="392" class="note">MODULE 0.4</text>

  <!-- Notes Section -->
  <text x="20" y="450" class="title">NOTES:</text>
  <text x="20" y="465" class="note">1. MATERIAL: 17-4 PH STAINLESS STEEL, CONDITION H900</text>
  <text x="20" y="478" class="note">2. HEAT TREAT TO H900 BEFORE FINAL MACHINING</text>
  <text x="20" y="491" class="note">3. SURFACE TREATMENT: NITRIDE 0.1-0.2mm CASE DEPTH</text>
  <text x="20" y="504" class="note">4. TOOTH PROFILE: DOUBLE-ARC (S-CURVE), SEE DETAIL DWG HD-004</text>
  <text x="20" y="517" class="note">5. WALL THICKNESS CRITICAL: MAINTAIN ±0.05mm UNIFORMITY</text>
  <text x="20" y="530" class="note">6. ALL DIMENSIONS IN MILLIMETERS</text>
  <text x="20" y="543" class="note">7. SURFACE FINISH: Ra 0.8 ON TEETH, Ra 1.6 ELSEWHERE</text>
  <text x="20" y="556" class="note">8. BREAK ALL SHARP EDGES 0.2 MAX</text>
</svg>
