<?xml version="1.0" encoding="utf-8" standalone="no"?>
<!DOCTYPE svg PUBLIC "-//W3C//DTD SVG 1.1//EN"
  "http://www.w3.org/Graphics/SVG/1.1/DTD/svg11.dtd">
<svg xmlns:xlink="http://www.w3.org/1999/xlink" width="325.44pt" height="342.077812pt" viewBox="0 0 325.44 342.077812" xmlns="http://www.w3.org/2000/svg" version="1.1">
 <metadata>
  <rdf:RDF xmlns:dc="http://purl.org/dc/elements/1.1/" xmlns:cc="http://creativecommons.org/ns#" xmlns:rdf="http://www.w3.org/1999/02/22-rdf-syntax-ns#">
   <cc:Work>
    <dc:type rdf:resource="http://purl.org/dc/dcmitype/StillImage"/>
    <dc:date>2026-02-03T06:54:46.378194</dc:date>
    <dc:format>image/svg+xml</dc:format>
    <dc:creator>
     <cc:Agent>
      <dc:title>Matplotlib v3.10.8, https://matplotlib.org/</dc:title>
     </cc:Agent>
    </dc:creator>
   </cc:Work>
  </rdf:RDF>
 </metadata>
 <defs>
  <style type="text/css">*{stroke-linejoin: round; stroke-linecap: butt}</style>
 </defs>
 <g id="figure_1">
  <g id="patch_1">
   <path d="M 0 342.077812 
L 325.44 342.077812 
L 325.44 0 
L 0 0 
z
" style="fill: #ffffff"/>
  </g>
  <g id="axes_1">
   <g id="patch_2">
    <path d="M 7.2 334.877813 
L 318.24 334.877813 
L 318.24 23.837812 
L 7.2 23.837812 
z
" style="fill: #ffffff"/>
   </g>
   <g id="patch_3">
    <path d="M 301.560012 181.538886 
L 301.625044 181.321667 
L 302.089072 180.890317 
L 304.039861 179.579797 
L 304.101818 179.357812 
L 304.039861 179.135828 
L 303.5799 178.694021 
L 301.625044 177.393958 
L 301.560012 177.176739 
L 301.560012 177.176739 
L 301.618189 176.957585 
L 302.068439 176.511873 
L 303.977101 175.140724 
L 304.032055 174.916902 
L 303.963155 174.696973 
L 303.489544 174.269832 
L 301.494817 173.031814 
L 301.422994 172.816745 
L 301.422994 172.816745 
L 301.474258 172.595872 
L 301.910285 172.136237 
L 303.774937 170.705812 
L 303.822833 170.480375 
L 303.74706 170.262718 
L 303.260265 169.850664 
L 301.227635 168.675913 
L 301.149093 168.463207 
L 301.149093 168.463207 
L 301.193394 168.240832 
L 301.614768 167.767728 
L 303.433569 166.279439 
L 303.474361 166.052608 
L 303.391787 165.837439 
L 302.89229 165.440879 
L 300.823764 164.330554 
L 300.738578 164.12042 
L 300.738578 164.12042 
L 300.775873 163.896763 
L 301.182179 163.410657 
L 302.953333 161.865972 
L 302.98698 161.637972 
L 302.897689 161.425503 
L 302.385982 161.044828 
L 300.2836 160.000025 
L 300.191856 159.79267 
L 300.191856 159.79267 
L 300.222107 159.567953 
L 300.612944 159.069323 
L 302.334705 157.469768 
L 302.361173 157.240823 
L 302.265253 157.031264 
L 301.741841 156.66685 
L 299.607678 155.6886 
L 299.509466 155.484229 
L 299.509466 155.484229 
L 299.532644 155.258672 
L 299.907625 154.748013 
L 301.578293 153.095164 
L 301.597557 152.865502 
L 301.495102 152.659058 
L 300.960502 152.311265 
L 298.796664 151.400533 
L 298.692082 151.199348 
L 298.692082 151.199348 
L 298.708163 150.973175 
L 299.066919 150.450989 
L 300.684845 148.746479 
L 300.696886 148.516324 
L 300.587996 148.313201 
L 300.042736 147.982372 
L 297.851359 147.140057 
L 297.740509 146.942256 
L 297.740509 146.942256 
L 297.749478 146.715689 
L 298.091654 146.182492 
L 299.655243 144.428003 
L 299.660048 144.197584 
L 299.544832 143.997981 
L 298.989449 143.684443 
L 296.772696 142.911376 
L 296.655687 142.717155 
L 296.655687 142.717155 
L 296.657535 142.490418 
L 296.982795 141.946736 
L 298.490502 140.143999 
L 298.488067 139.913543 
L 298.366638 139.717658 
L 297.801681 139.421718 
L 295.561739 138.718663 
L 295.438687 138.528213 
L 295.438687 138.528213 
L 295.433412 138.30153 
L 295.741434 137.7479 
L 297.191771 135.898694 
L 297.182099 135.668428 
L 297.054577 135.476454 
L 296.480603 135.198406 
L 294.219683 134.566057 
L 294.09071 134.379565 
L 294.09071 134.379565 
L 294.078317 134.15316 
L 294.368797 133.590127 
L 295.760334 131.696278 
L 295.743434 131.466429 
L 295.609944 131.278555 
L 295.02752 131.018674 
L 292.747853 130.457654 
L 292.613085 130.275306 
L 292.613085 130.275306 
L 292.593587 130.049401 
L 292.866238 129.477522 
L 294.197601 127.540898 
L 294.17349 127.311694 
L 294.034165 127.128106 
L 293.443865 126.886647 
L 291.147701 126.397509 
L 291.007272 126.219484 
L 291.007272 126.219484 
L 290.980688 125.994304 
L 291.235241 125.414143 
L 292.505117 123.436656 
L 292.473818 123.208322 
L 292.328795 123.0292 
L 291.731201 122.806403 
L 289.420806 122.389631 
L 289.274855 122.216104 
L 289.274855 122.216104 
L 289.24121 121.99187 
L 289.477415 121.404 
L 290.68455 119.3876 
L 290.646094 119.160362 
L 290.495516 118.985884 
L 289.891219 118.781968 
L 287.568873 118.437972 
L 287.417543 118.269116 
L 287.376872 118.046049 
L 287.594495 117.45105 
L 288.737697 115.397728 
L 288.692122 115.17181 
L 288.536139 115.002148 
L 287.925735 114.817314 
L 285.593729 114.546435 
L 285.43717 114.382415 
L 285.389512 114.160736 
L 285.588338 113.559194 
L 286.66648 111.470977 
L 286.613832 111.246602 
L 286.452596 111.081924 
L 285.836687 110.916353 
L 283.497324 110.718858 
L 283.33569 110.559837 
L 283.33569 110.559837 
L 283.281093 110.339764 
L 283.460926 109.732274 
L 284.472943 107.611222 
L 284.413273 107.388612 
L 284.246944 107.229079 
L 283.626138 107.082936 
L 281.281726 106.95902 
L 281.115177 106.805155 
L 281.115177 106.805155 
L 281.053694 106.586905 
L 281.214356 105.974066 
L 282.15925 103.822273 
L 282.092617 103.601646 
L 281.921359 103.447416 
L 281.29627 103.320846 
L 278.949122 103.270631 
L 278.777822 103.122073 
L 278.777822 103.122073 
L 278.709514 102.905862 
L 278.850847 102.288279 
L 279.727686 100.107867 
L 279.654155 99.889443 
L 279.478137 99.740668 
L 278.849381 99.633795 
L 276.501814 99.65733 
L 276.325932 99.514226 
L 276.325932 99.514226 
L 276.250866 99.300268 
L 276.372731 98.67855 
L 277.180648 96.471672 
L 277.100294 96.255665 
L 276.919689 96.112493 
L 276.287886 96.025422 
L 273.942217 96.122684 
L 273.761927 95.985175 
L 273.761927 95.985175 
L 273.680177 95.773681 
L 273.782453 95.148442 
L 274.520652 92.917276 
L 274.433552 92.703899 
L 274.24854 92.566471 
L 273.614313 92.499288 
L 271.272857 92.670182 
L 271.088337 92.538404 
L 271.088337 92.538404 
L 270.999984 92.329581 
L 271.082571 91.701438 
L 271.750323 89.448185 
L 271.656563 89.23765 
L 271.467326 89.106101 
L 270.831302 89.058873 
L 268.496368 89.303229 
L 268.3078 89.177312 
L 268.3078 89.177312 
L 268.212932 88.971368 
L 268.275747 88.340941 
L 268.872393 86.067825 
L 268.772067 85.860339 
L 268.578791 85.734799 
L 267.941597 85.707572 
L 265.615491 86.02515 
L 265.423061 85.905218 
L 265.423061 85.905218 
L 265.32177 85.702355 
L 265.364753 85.070266 
L 265.889704 82.779531 
L 265.78291 82.575298 
L 265.585786 82.455891 
L 264.948051 82.448692 
L 262.633068 82.839178 
L 262.436966 82.72535 
L 262.436966 82.72535 
L 262.329354 82.525769 
L 262.35246 81.892641 
L 262.805199 79.586548 
L 262.692042 79.38577 
L 262.491265 79.272614 
L 261.853619 79.285451 
L 259.552044 79.748459 
L 259.352463 79.640847 
L 259.352463 79.640847 
L 259.238634 79.444744 
L 259.241842 78.811203 
L 259.621922 76.492027 
L 259.502514 76.294903 
L 259.298282 76.188109 
L 258.661354 76.220968 
L 256.375458 76.756042 
L 256.172595 76.654752 
L 256.172595 76.654752 
L 256.052663 76.462322 
L 256.035969 75.828993 
L 256.343014 73.499022 
L 256.217474 73.305746 
L 256.009987 73.205419 
L 255.374406 73.258269 
L 253.106445 73.864881 
L 252.9005 73.770013 
L 252.9005 73.770013 
L 252.774583 73.581445 
L 252.738005 72.948952 
L 252.971712 70.610487 
L 252.840163 70.421249 
L 252.629627 70.32749 
L 251.996019 70.400278 
L 249.748231 71.077828 
L 249.539409 70.989476 
L 249.539409 70.989476 
L 249.407631 70.804956 
L 249.351203 70.173925 
L 249.511342 67.829272 
L 249.373914 67.64426 
L 249.160537 67.55716 
L 248.529528 67.649814 
L 246.304132 68.397635 
L 246.092637 68.315886 
L 246.092637 68.315886 
L 245.955128 68.135596 
L 245.878907 67.506649 
L 245.965319 65.158123 
L 245.822148 64.977519 
L 245.60614 64.897164 
L 244.978353 65.009593 
L 242.777545 65.826946 
L 242.563586 65.75188 
L 242.563586 65.75188 
L 242.420482 65.575999 
L 242.324543 64.949756 
L 242.337144 62.599675 
L 242.18837 62.423657 
L 241.969945 62.350127 
L 241.345999 62.482219 
L 239.17195 63.368299 
L 238.95574 63.29999 
L 238.807182 63.128691 
L 238.691619 62.505771 
L 238.630396 60.156453 
L 238.476167 59.985195 
L 238.25554 59.918562 
L 237.636051 60.070188 
L 235.490907 61.024119 
L 235.272658 60.962635 
L 235.272658 60.962635 
L 235.118793 60.796087 
L 234.983721 60.177104 
L 234.848734 57.830869 
L 234.689201 57.66454 
L 234.46659 57.60487 
L 233.85217 57.775879 
L 231.738048 58.79672 
L 231.517975 58.742122 
L 231.358954 58.580489 
L 231.204506 57.966054 
L 230.995889 55.625217 
L 230.83121 55.463981 
L 230.606835 55.411333 
L 229.998089 55.601557 
L 227.917076 56.6883 
L 227.695397 56.640642 
L 227.695397 56.640642 
L 227.531378 56.484083 
L 227.357706 55.874803 
L 227.075664 53.541674 
L 226.906002 53.38569 
L 226.680084 53.340116 
L 226.077614 53.549368 
L 224.031763 54.700941 
L 223.808696 54.660269 
L 223.63984 54.508939 
L 223.447116 53.905415 
L 223.091928 51.582296 
L 222.91745 51.431719 
L 222.690212 51.393263 
L 222.094612 51.621336 
L 220.085942 52.836602 
L 219.861708 52.802958 
L 219.688182 52.657006 
L 219.476596 52.059833 
L 219.048612 49.749018 
L 218.869491 49.603995 
L 218.641157 49.572696 
L 218.053014 49.819364 
L 216.083509 51.097125 
L 215.858328 51.07054 
L 215.858328 51.07054 
L 215.680303 50.930112 
L 215.450064 50.339879 
L 214.949707 48.043647 
L 214.766119 47.904322 
L 214.536914 47.880211 
L 213.95681 48.145232 
L 212.028411 49.484226 
L 211.802507 49.464727 
L 211.802507 49.464727 
L 211.620159 49.32996 
L 211.371494 48.747251 
L 210.799257 46.467868 
L 210.611383 46.334379 
L 210.381534 46.317479 
L 209.810041 46.60059 
L 207.924653 47.999496 
L 207.698247 47.987103 
L 207.511756 47.85813 
L 207.24491 47.283519 
L 206.601359 45.023235 
L 206.409385 44.895713 
L 206.179118 44.886041 
L 205.6168 45.186964 
L 203.776283 46.644401 
L 203.549599 46.639125 
L 203.549599 46.639125 
L 203.359149 46.516074 
L 203.074386 45.950128 
L 202.360155 43.711174 
L 202.16427 43.589745 
L 201.933814 43.587311 
L 201.381224 43.905748 
L 199.587395 45.420278 
L 199.360658 45.422125 
L 199.166436 45.305117 
L 198.864037 44.748395 
L 198.079831 42.532981 
L 197.880228 42.417764 
L 197.649809 42.42257 
L 197.107495 42.758207 
L 195.362123 44.328335 
L 195.135556 44.337304 
L 194.937755 44.226453 
L 194.618018 43.679505 
L 193.764611 41.489816 
L 193.561488 41.380926 
L 193.331334 41.392967 
L 192.79983 41.745473 
L 191.104638 43.36965 
L 190.878464 43.385731 
L 190.677279 43.281148 
L 190.34052 42.744513 
L 189.418754 40.582711 
L 189.212311 40.480255 
L 188.982648 40.499519 
L 188.462479 40.868547 
L 186.81914 42.545169 
L 186.593584 42.568346 
L 186.389213 42.470134 
L 186.035763 41.944342 
L 185.046549 39.81256 
L 184.836989 39.716639 
L 184.608045 39.743108 
L 184.099724 40.128292 
L 182.50986 41.855705 
L 182.285142 41.885956 
L 182.285142 41.885956 
L 182.077787 41.794212 
L 181.707997 41.279781 
L 180.65231 39.180123 
L 180.43984 39.090832 
L 180.211841 39.124479 
L 179.715869 39.52544 
L 178.181049 41.30194 
L 177.957393 41.339234 
L 177.747258 41.254049 
L 177.361492 40.751487 
L 176.240373 38.686025 
L 176.025204 38.603452 
L 175.798374 38.644244 
L 175.315242 39.060585 
L 173.83698 40.884419 
L 173.614606 40.92872 
L 173.614606 40.92872 
L 173.401899 40.850177 
L 173.000537 40.359981 
L 171.815094 38.330753 
L 171.597438 38.254979 
L 171.372001 38.302876 
L 170.902185 38.734188 
L 169.48194 40.603554 
L 169.261067 40.654818 
L 169.045998 40.582996 
L 168.629437 40.105648 
L 167.380839 38.114657 
L 167.16091 38.045758 
L 166.937089 38.100712 
L 166.481052 38.546568 
L 165.120227 40.459623 
L 164.901073 40.5178 
L 164.683855 40.452768 
L 164.252505 39.988741 
L 162.941985 38.037952 
L 162.72 37.975994 
L 162.498015 38.037952 
L 162.056208 38.497913 
L 160.756145 40.452768 
L 160.538927 40.5178 
L 160.319773 40.459623 
L 159.87406 40.009374 
L 158.502911 38.100712 
L 158.27909 38.045758 
L 158.059161 38.114657 
L 157.63202 38.588269 
L 156.394002 40.582996 
L 156.178933 40.654818 
L 155.95806 40.603554 
L 155.498424 40.167527 
L 154.067999 38.302876 
L 153.842562 38.254979 
L 153.624906 38.330753 
L 153.212852 38.817547 
L 152.038101 40.850177 
L 151.825394 40.92872 
L 151.60302 40.884419 
L 151.129915 40.463044 
L 149.641626 38.644244 
L 149.414796 38.603452 
L 149.199627 38.686025 
L 148.803067 39.185522 
L 147.692742 41.254049 
L 147.482607 41.339234 
L 147.482607 41.339234 
L 147.258951 41.30194 
L 146.772844 40.895634 
L 145.228159 39.124479 
L 145.00016 39.090832 
L 144.78769 39.180123 
L 144.407016 39.69183 
L 143.362213 41.794212 
L 143.154858 41.885956 
L 142.93014 41.855705 
L 142.431511 41.464869 
L 140.831955 39.743108 
L 140.603011 39.716639 
L 140.393451 39.81256 
L 140.029038 40.335972 
L 139.050787 42.470134 
L 138.846416 42.568346 
L 138.62086 42.545169 
L 138.1102 42.170188 
L 136.457352 40.499519 
L 136.227689 40.480255 
L 136.021246 40.582711 
L 135.673453 41.117311 
L 134.762721 43.281148 
L 134.561536 43.385731 
L 134.561536 43.385731 
L 134.335362 43.36965 
L 133.813176 43.010894 
L 132.108666 41.392967 
L 131.878512 41.380926 
L 131.675389 41.489816 
L 131.34456 42.035077 
L 130.502245 44.226453 
L 130.304444 44.337304 
L 130.077877 44.328335 
L 129.54468 43.986158 
L 127.790191 42.42257 
L 127.559772 42.417764 
L 127.360169 42.532981 
L 127.04663 43.088364 
L 126.273564 45.305117 
L 126.079342 45.422125 
L 125.852605 45.420278 
L 125.308923 45.095018 
L 123.506186 43.587311 
L 123.27573 43.589745 
L 123.079845 43.711174 
L 122.783906 44.276132 
L 122.080851 46.516074 
L 121.890401 46.639125 
L 121.890401 46.639125 
L 121.663717 46.644401 
L 121.110087 46.336379 
L 119.260882 44.886041 
L 119.030615 44.895713 
L 118.838641 45.023235 
L 118.560594 45.59721 
L 117.928244 47.85813 
L 117.741753 47.987103 
L 117.515347 47.999496 
L 116.952315 47.709016 
L 115.058466 46.317479 
L 114.828617 46.334379 
L 114.640743 46.467868 
L 114.380862 47.050293 
L 113.819841 49.32996 
L 113.637493 49.464727 
L 113.637493 49.464727 
L 113.411589 49.484226 
L 112.83971 49.211574 
L 110.903086 47.880211 
L 110.673881 47.904322 
L 110.490293 48.043647 
L 110.248835 48.633948 
L 109.759697 50.930112 
L 109.581672 51.07054 
L 109.356491 51.097125 
L 108.776331 50.842571 
L 106.798843 49.572696 
L 106.570509 49.603995 
L 106.391388 49.749018 
L 106.16859 50.346611 
L 105.751818 52.657006 
L 105.578292 52.802958 
L 105.354058 52.836602 
L 104.766187 52.600397 
L 102.749788 51.393263 
L 102.52255 51.431719 
L 102.348072 51.582296 
L 102.144155 52.186593 
L 101.80016 54.508939 
L 101.631304 54.660269 
L 101.631304 54.660269 
L 101.408237 54.700941 
L 100.813237 54.483318 
L 98.759916 53.340116 
L 98.533998 53.38569 
L 98.364336 53.541674 
L 98.179501 54.152078 
L 97.908622 56.484083 
L 97.744603 56.640642 
L 97.522924 56.6883 
L 96.921382 56.489474 
L 94.833165 55.411333 
L 94.60879 55.463981 
L 94.444111 55.625217 
L 94.278541 56.241125 
L 94.081046 58.580489 
L 93.922025 58.742122 
L 93.922025 58.742122 
L 93.701952 58.79672 
L 93.094462 58.616887 
L 90.97341 57.60487 
L 90.750799 57.66454 
L 90.591266 57.830869 
L 90.445124 58.451674 
L 90.321207 60.796087 
L 90.167342 60.962635 
L 89.949093 61.024119 
L 89.336254 60.863456 
L 87.18446 59.918562 
L 86.963833 59.985195 
L 86.809604 60.156453 
L 86.683034 60.781543 
L 86.632818 63.128691 
L 86.48426 63.29999 
L 86.48426 63.29999 
L 86.26805 63.368299 
L 85.650466 63.226965 
L 83.470055 62.350127 
L 83.25163 62.423657 
L 83.102856 62.599675 
L 82.995983 63.228432 
L 83.019518 65.575999 
L 82.876414 65.75188 
L 82.876414 65.75188 
L 82.662455 65.826946 
L 82.040737 65.705081 
L 79.83386 64.897164 
L 79.617852 64.977519 
L 79.474681 65.158123 
L 79.38761 65.789926 
L 79.484872 68.135596 
L 79.347363 68.315886 
L 79.135868 68.397635 
L 78.510629 68.295359 
L 76.279463 67.55716 
L 76.066086 67.64426 
L 75.928658 67.829272 
L 75.861476 68.463499 
L 76.032369 70.804956 
L 75.900591 70.989476 
L 75.900591 70.989476 
L 75.691769 71.077828 
L 75.063626 70.995242 
L 72.810373 70.32749 
L 72.599837 70.421249 
L 72.468288 70.610487 
L 72.42106 71.246511 
L 72.665417 73.581445 
L 72.5395 73.770013 
L 72.5395 73.770013 
L 72.333555 73.864881 
L 71.703128 73.802066 
L 69.430013 73.205419 
L 69.222526 73.305746 
L 69.096986 73.499022 
L 69.069759 74.136216 
L 69.387337 76.462322 
L 69.267405 76.654752 
L 69.064542 76.756042 
L 68.432453 76.71306 
L 66.141718 76.188109 
L 65.937486 76.294903 
L 65.818078 76.492027 
L 65.81088 77.129761 
L 66.201366 79.444744 
L 66.087537 79.640847 
L 66.087537 79.640847 
L 65.887956 79.748459 
L 65.254829 79.725352 
L 62.948735 79.272614 
L 62.747958 79.38577 
L 62.634801 79.586548 
L 62.647638 80.224194 
L 63.110646 82.525769 
L 63.003034 82.72535 
L 63.003034 82.72535 
L 62.806932 82.839178 
L 62.173391 82.83597 
L 59.854214 82.455891 
L 59.65709 82.575298 
L 59.550296 82.779531 
L 59.583155 83.416459 
L 60.11823 85.702355 
L 60.016939 85.905218 
L 59.824509 86.02515 
L 59.19118 86.041843 
L 56.861209 85.734799 
L 56.667933 85.860339 
L 56.567607 86.067825 
L 56.620457 86.703407 
L 57.227068 88.971368 
L 57.1322 89.177312 
L 57.1322 89.177312 
L 56.943632 89.303229 
L 56.31114 89.339808 
L 53.972674 89.106101 
L 53.783437 89.23765 
L 53.689677 89.448185 
L 53.762465 90.081793 
L 54.440016 92.329581 
L 54.351663 92.538404 
L 54.167143 92.670182 
L 53.536112 92.726609 
L 51.19146 92.566471 
L 51.006448 92.703899 
L 50.919348 92.917276 
L 51.012001 93.548284 
L 51.759823 95.773681 
L 51.678073 95.985175 
L 51.497783 96.122684 
L 50.868836 96.198905 
L 48.520311 96.112493 
L 48.339706 96.255665 
L 48.259352 96.471672 
L 48.37178 97.099459 
L 49.189134 99.300268 
L 49.114068 99.514226 
L 49.114068 99.514226 
L 48.938186 99.65733 
L 48.311944 99.753269 
L 45.961863 99.740668 
L 45.785845 99.889443 
L 45.712314 100.107867 
L 45.844407 100.731813 
L 46.730486 102.905862 
L 46.662178 103.122073 
L 46.662178 103.122073 
L 46.490878 103.270631 
L 45.867958 103.386193 
L 43.518641 103.447416 
L 43.347383 103.601646 
L 43.28075 103.822273 
L 43.432376 104.441762 
L 44.386306 106.586905 
L 44.324823 106.805155 
L 44.158274 106.95902 
L 43.539291 107.094092 
L 41.193056 107.229079 
L 41.026727 107.388612 
L 40.967057 107.611222 
L 41.138067 108.225643 
L 42.158907 110.339764 
L 42.10431 110.559837 
L 42.10431 110.559837 
L 41.942676 110.718858 
L 41.328241 110.873306 
L 38.987404 111.081924 
L 38.826168 111.246602 
L 38.77352 111.470977 
L 38.963745 112.079723 
L 40.050488 114.160736 
L 40.00283 114.382415 
L 40.00283 114.382415 
L 39.846271 114.546435 
L 39.236991 114.720106 
L 36.903861 115.002148 
L 36.747878 115.17181 
L 36.702303 115.397728 
L 36.911555 116.000199 
L 38.063128 118.046049 
L 38.022457 118.269116 
L 38.022457 118.269116 
L 37.871127 118.437972 
L 37.267603 118.630696 
L 34.944484 118.985884 
L 34.793906 119.160362 
L 34.75545 119.3876 
L 34.983523 119.983201 
L 36.19879 121.99187 
L 36.165145 122.216104 
L 36.165145 122.216104 
L 36.019194 122.389631 
L 35.422021 122.601216 
L 33.111205 123.0292 
L 32.966182 123.208322 
L 32.934883 123.436656 
L 33.181552 124.024798 
L 34.459312 125.994304 
L 34.432728 126.219484 
L 34.292299 126.397509 
L 33.702067 126.627748 
L 31.405835 127.128106 
L 31.26651 127.311694 
L 31.242399 127.540898 
L 31.507419 128.121003 
L 32.846413 130.049401 
L 32.826915 130.275306 
L 32.692147 130.457654 
L 32.109438 130.706319 
L 29.830056 131.278555 
L 29.696566 131.466429 
L 29.679666 131.696278 
L 29.962778 132.267772 
L 31.361683 134.15316 
L 31.34929 134.379565 
L 31.34929 134.379565 
L 31.220317 134.566057 
L 30.645706 134.832902 
L 28.385423 135.476454 
L 28.257901 135.668428 
L 28.248229 135.898694 
L 28.549151 136.461013 
L 30.006588 138.30153 
L 30.001313 138.528213 
L 30.001313 138.528213 
L 29.878261 138.718663 
L 29.312316 139.003426 
L 27.073362 139.717658 
L 26.951933 139.913543 
L 26.949498 140.143999 
L 27.267936 140.696588 
L 28.782465 142.490418 
L 28.784313 142.717155 
L 28.784313 142.717155 
L 28.667304 142.911376 
L 28.110583 143.213776 
L 25.895168 143.997981 
L 25.779952 144.197584 
L 25.784757 144.428003 
L 26.120395 144.970317 
L 27.690522 146.715689 
L 27.699491 146.942256 
L 27.588641 147.140057 
L 27.041692 147.459794 
L 24.852004 148.313201 
L 24.743114 148.516324 
L 24.755155 148.746479 
L 25.107661 149.277983 
L 26.731837 150.973175 
L 26.747918 151.199348 
L 26.643336 151.400533 
L 26.106701 151.737293 
L 23.944898 152.659058 
L 23.842443 152.865502 
L 23.861707 153.095164 
L 24.230734 153.615333 
L 25.907356 155.258672 
L 25.930534 155.484229 
L 25.930534 155.484229 
L 25.832322 155.6886 
L 25.30653 156.042049 
L 23.174747 157.031264 
L 23.078827 157.240823 
L 23.105295 157.469768 
L 23.490479 157.978089 
L 25.217893 159.567953 
L 25.248144 159.79267 
L 25.248144 159.79267 
L 25.1564 160.000025 
L 24.641969 160.369816 
L 22.542311 161.425503 
L 22.45302 161.637972 
L 22.486667 161.865972 
L 22.887627 162.361943 
L 24.664127 163.896763 
L 24.701422 164.12042 
L 24.616236 164.330554 
L 24.113675 164.716321 
L 22.048213 165.837439 
L 21.965639 166.052608 
L 22.006431 166.279439 
L 22.422773 166.762571 
L 24.246606 168.240832 
L 24.290907 168.463207 
L 24.290907 168.463207 
L 24.212365 168.675913 
L 23.722168 169.077275 
L 21.69294 170.262718 
L 21.617167 170.480375 
L 21.665063 170.705812 
L 22.096375 171.175628 
L 23.965742 172.595872 
L 24.017006 172.816745 
L 23.945183 173.031814 
L 23.467836 173.448376 
L 21.476845 174.696973 
L 21.407945 174.916902 
L 21.462899 175.140724 
L 21.908756 175.59676 
L 23.821811 176.957585 
L 23.879988 177.176739 
L 23.879988 177.176739 
L 23.814956 177.393958 
L 23.350928 177.825308 
L 21.400139 179.135828 
L 21.338182 179.357812 
L 21.400139 179.579797 
L 21.8601 180.021604 
L 23.814956 181.321667 
L 23.879988 181.538886 
L 23.821811 181.75804 
L 23.371561 182.203752 
L 21.462899 183.574901 
L 21.407945 183.798723 
L 21.476845 184.018652 
L 21.950456 184.445793 
L 23.945183 185.683811 
L 24.017006 185.89888 
L 23.965742 186.119753 
L 23.529715 186.579388 
L 21.665063 188.009813 
L 21.617167 188.23525 
L 21.69294 188.452907 
L 22.179735 188.864961 
L 24.212365 190.039712 
L 24.290907 190.252418 
L 24.290907 190.252418 
L 24.246606 190.474793 
L 23.825232 190.947897 
L 22.006431 192.436186 
L 21.965639 192.663017 
L 22.048213 192.878186 
L 22.54771 193.274746 
L 24.616236 194.385071 
L 24.701422 194.595205 
L 24.664127 194.818862 
L 24.257821 195.304968 
L 22.486667 196.849653 
L 22.45302 197.077653 
L 22.542311 197.290122 
L 23.054018 197.670797 
L 25.1564 198.7156 
L 25.248144 198.922955 
L 25.217893 199.147672 
L 24.827056 199.646302 
L 23.105295 201.245857 
L 23.078827 201.474802 
L 23.174747 201.684361 
L 23.698159 202.048775 
L 25.832322 203.027025 
L 25.930534 203.231396 
L 25.907356 203.456953 
L 25.532375 203.967612 
L 23.861707 205.620461 
L 23.842443 205.850123 
L 23.944898 206.056567 
L 24.479498 206.40436 
L 26.643336 207.315092 
L 26.747918 207.516277 
L 26.747918 207.516277 
L 26.731837 207.74245 
L 26.373081 208.264636 
L 24.755155 209.969146 
L 24.743114 210.199301 
L 24.852004 210.402424 
L 25.397264 210.733253 
L 27.588641 211.575568 
L 27.699491 211.773369 
L 27.690522 211.999936 
L 27.348346 212.533133 
L 25.784757 214.287622 
L 25.779952 214.518041 
L 25.895168 214.717644 
L 26.450551 215.031182 
L 28.667304 215.804249 
L 28.784313 215.99847 
L 28.784313 215.99847 
L 28.782465 216.225207 
L 28.457205 216.768889 
L 26.949498 218.571626 
L 26.951933 218.802082 
L 27.073362 218.997967 
L 27.638319 219.293907 
L 29.878261 219.996962 
L 30.001313 220.187412 
L 30.006588 220.414095 
L 29.698566 220.967725 
L 28.248229 222.816931 
L 28.257901 223.047197 
L 28.385423 223.239171 
L 28.959397 223.517219 
L 31.220317 224.149568 
L 31.34929 224.33606 
L 31.361683 224.562465 
L 31.071203 225.125498 
L 29.679666 227.019347 
L 29.696566 227.249196 
L 29.830056 227.43707 
L 30.41248 227.696951 
L 32.692147 228.257971 
L 32.826915 228.440319 
L 32.826915 228.440319 
L 32.846413 228.666224 
L 32.573762 229.238103 
L 31.242399 231.174727 
L 31.26651 231.403931 
L 31.405835 231.587519 
L 31.996135 231.828978 
L 34.292299 232.318116 
L 34.432728 232.496141 
L 34.432728 232.496141 
L 34.459312 232.721321 
L 34.204759 233.301482 
L 32.934883 235.278969 
L 32.966182 235.507303 
L 33.111205 235.686425 
L 33.708799 235.909222 
L 36.019194 236.325994 
L 36.165145 236.499521 
L 36.165145 236.499521 
L 36.19879 236.723755 
L 35.962585 237.311625 
L 34.75545 239.328025 
L 34.793906 239.555263 
L 34.944484 239.729741 
L 35.548781 239.933657 
L 37.871127 240.277653 
L 38.022457 240.446509 
L 38.063128 240.669576 
L 37.845505 241.264575 
L 36.702303 243.317897 
L 36.747878 243.543815 
L 36.903861 243.713477 
L 37.514265 243.898311 
L 39.846271 244.16919 
L 40.00283 244.33321 
L 40.00283 244.33321 
L 40.050488 244.554889 
L 39.851662 245.156431 
L 38.77352 247.244648 
L 38.826168 247.469023 
L 38.987404 247.633701 
L 39.603313 247.799272 
L 41.942676 247.996767 
L 42.10431 248.155788 
L 42.10431 248.155788 
L 42.158907 248.375861 
L 41.979074 248.983351 
L 40.967057 251.104403 
L 41.026727 251.327013 
L 41.193056 251.486546 
L 41.813862 251.632689 
L 44.158274 251.756605 
L 44.324823 251.91047 
L 44.324823 251.91047 
L 44.386306 252.12872 
L 44.225644 252.741559 
L 43.28075 254.893352 
L 43.347383 255.113979 
L 43.518641 255.268209 
L 44.14373 255.394779 
L 46.490878 255.444994 
L 46.662178 255.593552 
L 46.662178 255.593552 
L 46.730486 255.809763 
L 46.589153 256.427346 
L 45.712314 258.607758 
L 45.785845 258.826182 
L 45.961863 258.974957 
L 46.590619 259.08183 
L 48.938186 259.058295 
L 49.114068 259.201399 
L 49.114068 259.201399 
L 49.189134 259.415357 
L 49.067269 260.037075 
L 48.259352 262.243953 
L 48.339706 262.45996 
L 48.520311 262.603132 
L 49.152114 262.690203 
L 51.497783 262.592941 
L 51.678073 262.73045 
L 51.759823 262.941944 
L 51.657547 263.567183 
L 50.919348 265.798349 
L 51.006448 266.011726 
L 51.19146 266.149154 
L 51.825687 266.216337 
L 54.167143 266.045443 
L 54.351663 266.177221 
L 54.351663 266.177221 
L 54.440016 266.386044 
L 54.357429 267.014187 
L 53.689677 269.26744 
L 53.783437 269.477975 
L 53.972674 269.609524 
L 54.608698 269.656752 
L 56.943632 269.412396 
L 57.1322 269.538313 
L 57.1322 269.538313 
L 57.227068 269.744257 
L 57.164253 270.374684 
L 56.567607 272.6478 
L 56.667933 272.855286 
L 56.861209 272.980826 
L 57.498403 273.008053 
L 59.824509 272.690475 
L 60.016939 272.810407 
L 60.016939 272.810407 
L 60.11823 273.01327 
L 60.075247 273.645359 
L 59.550296 275.936094 
L 59.65709 276.140327 
L 59.854214 276.259734 
L 60.491949 276.266933 
L 62.806932 275.876447 
L 63.003034 275.990275 
L 63.003034 275.990275 
L 63.110646 276.189856 
L 63.08754 276.822984 
L 62.634801 279.129077 
L 62.747958 279.329855 
L 62.948735 279.443011 
L 63.586381 279.430174 
L 65.887956 278.967166 
L 66.087537 279.074778 
L 66.201366 279.270881 
L 66.198158 279.904422 
L 65.818078 282.223598 
L 65.937486 282.420722 
L 66.141718 282.527516 
L 66.778646 282.494657 
L 69.064542 281.959583 
L 69.267405 282.060873 
L 69.267405 282.060873 
L 69.387337 282.253303 
L 69.404031 282.886632 
L 69.096986 285.216603 
L 69.222526 285.409879 
L 69.430013 285.510206 
L 70.065594 285.457356 
L 72.333555 284.850744 
L 72.5395 284.945612 
L 72.5395 284.945612 
L 72.665417 285.13418 
L 72.701995 285.766673 
L 72.468288 288.105138 
L 72.599837 288.294376 
L 72.810373 288.388135 
L 73.443981 288.315347 
L 75.691769 287.637797 
L 75.900591 287.726149 
L 75.900591 287.726149 
L 76.032369 287.910669 
L 76.088797 288.5417 
L 75.928658 290.886353 
L 76.066086 291.071365 
L 76.279463 291.158465 
L 76.910472 291.065811 
L 79.135868 290.31799 
L 79.347363 290.399739 
L 79.347363 290.399739 
L 79.484872 290.580029 
L 79.561093 291.208976 
L 79.474681 293.557502 
L 79.617852 293.738106 
L 79.83386 293.818461 
L 80.461647 293.706032 
L 82.662455 292.888679 
L 82.876414 292.963745 
L 83.019518 293.139626 
L 83.115457 293.765869 
L 83.102856 296.11595 
L 83.25163 296.291968 
L 83.470055 296.365498 
L 84.094001 296.233406 
L 86.26805 295.347326 
L 86.48426 295.415635 
L 86.632818 295.586934 
L 86.748381 296.209854 
L 86.809604 298.559172 
L 86.963833 298.73043 
L 87.18446 298.797063 
L 87.803949 298.645437 
L 89.949093 297.691506 
L 90.167342 297.75299 
L 90.167342 297.75299 
L 90.321207 297.919538 
L 90.456279 298.538521 
L 90.591266 300.884756 
L 90.750799 301.051085 
L 90.97341 301.110755 
L 91.58783 300.939746 
L 93.701952 299.918905 
L 93.922025 299.973503 
L 93.922025 299.973503 
L 94.081046 300.135136 
L 94.235494 300.749571 
L 94.444111 303.090408 
L 94.60879 303.251644 
L 94.833165 303.304292 
L 95.441911 303.114068 
L 97.522924 302.027325 
L 97.744603 302.074983 
L 97.908622 302.231542 
L 98.082294 302.840822 
L 98.364336 305.173951 
L 98.533998 305.329935 
L 98.759916 305.375509 
L 99.362386 305.166257 
L 101.408237 304.014684 
L 101.631304 304.055356 
L 101.80016 304.206686 
L 101.992884 304.81021 
L 102.348072 307.133329 
L 102.52255 307.283906 
L 102.749788 307.322362 
L 103.345388 307.094289 
L 105.354058 305.879023 
L 105.578292 305.912667 
L 105.578292 305.912667 
L 105.751818 306.058619 
L 105.963404 306.655792 
L 106.391388 308.966607 
L 106.570509 309.11163 
L 106.798843 309.142929 
L 107.386986 308.896261 
L 109.356491 307.6185 
L 109.581672 307.645085 
L 109.581672 307.645085 
L 109.759697 307.785513 
L 109.989936 308.375746 
L 110.490293 310.671978 
L 110.673881 310.811303 
L 110.903086 310.835414 
L 111.48319 310.570393 
L 113.411589 309.231399 
L 113.637493 309.250898 
L 113.637493 309.250898 
L 113.819841 309.385665 
L 114.068506 309.968374 
L 114.640743 312.247757 
L 114.828617 312.381246 
L 115.058466 312.398146 
L 115.629959 312.115035 
L 117.515347 310.716129 
L 117.741753 310.728522 
L 117.741753 310.728522 
L 117.928244 310.857495 
L 118.19509 311.432106 
L 118.838641 313.69239 
L 119.030615 313.819912 
L 119.260882 313.829584 
L 119.8232 313.528661 
L 121.663717 312.071224 
L 121.890401 312.0765 
L 121.890401 312.0765 
L 122.080851 312.199551 
L 122.365614 312.765497 
L 123.079845 315.004451 
L 123.27573 315.12588 
L 123.506186 315.128314 
L 124.058776 314.809877 
L 125.852605 313.295347 
L 126.079342 313.2935 
L 126.273564 313.410508 
L 126.575963 313.96723 
L 127.360169 316.182644 
L 127.559772 316.297861 
L 127.790191 316.293055 
L 128.332505 315.957418 
L 130.077877 314.38729 
L 130.304444 314.378321 
L 130.502245 314.489172 
L 130.821982 315.03612 
L 131.675389 317.225809 
L 131.878512 317.334699 
L 132.108666 317.322658 
L 132.64017 316.970152 
L 134.335362 315.345975 
L 134.561536 315.329894 
L 134.561536 315.329894 
L 134.762721 315.434477 
L 135.09948 315.971112 
L 136.021246 318.132914 
L 136.227689 318.23537 
L 136.457352 318.216106 
L 136.977521 317.847078 
L 138.62086 316.170456 
L 138.846416 316.147279 
L 138.846416 316.147279 
L 139.050787 316.245491 
L 139.404237 316.771283 
L 140.393451 318.903065 
L 140.603011 318.998986 
L 140.831955 318.972517 
L 141.340276 318.587333 
L 142.93014 316.85992 
L 143.154858 316.829669 
L 143.154858 316.829669 
L 143.362213 316.921413 
L 143.732003 317.435844 
L 144.78769 319.535502 
L 145.00016 319.624793 
L 145.228159 319.591146 
L 145.724131 319.190185 
L 147.258951 317.413685 
L 147.482607 317.376391 
L 147.692742 317.461576 
L 148.078508 317.964138 
L 149.199627 320.0296 
L 149.414796 320.112173 
L 149.641626 320.071381 
L 150.124758 319.65504 
L 151.60302 317.831206 
L 151.825394 317.786905 
L 151.825394 317.786905 
L 152.038101 317.865448 
L 152.439463 318.355644 
L 153.624906 320.384872 
L 153.842562 320.460646 
L 154.067999 320.412749 
L 154.537815 319.981437 
L 155.95806 318.112071 
L 156.178933 318.060807 
L 156.178933 318.060807 
L 156.394002 318.132629 
L 156.810563 318.609977 
L 158.059161 320.600968 
L 158.27909 320.669867 
L 158.502911 320.614913 
L 158.958948 320.169057 
L 160.319773 318.256002 
L 160.538927 318.197825 
L 160.538927 318.197825 
L 160.756145 318.262857 
L 161.187495 318.726884 
L 162.498015 320.677673 
L 162.72 320.739631 
L 162.941985 320.677673 
L 163.383792 320.217712 
L 164.683855 318.262857 
L 164.901073 318.197825 
L 164.901073 318.197825 
L 165.120227 318.256002 
L 165.56594 318.706251 
L 166.937089 320.614913 
L 167.16091 320.669867 
L 167.380839 320.600968 
L 167.80798 320.127356 
L 169.045998 318.132629 
L 169.261067 318.060807 
L 169.261067 318.060807 
L 169.48194 318.112071 
L 169.941576 318.548098 
L 171.372001 320.412749 
L 171.597438 320.460646 
L 171.815094 320.384872 
L 172.227148 319.898078 
L 173.401899 317.865448 
L 173.614606 317.786905 
L 173.83698 317.831206 
L 174.310085 318.252581 
L 175.798374 320.071381 
L 176.025204 320.112173 
L 176.240373 320.0296 
L 176.636933 319.530103 
L 177.747258 317.461576 
L 177.957393 317.376391 
L 177.957393 317.376391 
L 178.181049 317.413685 
L 178.667156 317.819991 
L 180.211841 319.591146 
L 180.43984 319.624793 
L 180.65231 319.535502 
L 181.032984 319.023795 
L 182.077787 316.921413 
L 182.285142 316.829669 
L 182.285142 316.829669 
L 182.50986 316.85992 
L 183.008489 317.250756 
L 184.608045 318.972517 
L 184.836989 318.998986 
L 185.046549 318.903065 
L 185.410962 318.379653 
L 186.389213 316.245491 
L 186.593584 316.147279 
L 186.593584 316.147279 
L 186.81914 316.170456 
L 187.3298 316.545437 
L 188.982648 318.216106 
L 189.212311 318.23537 
L 189.418754 318.132914 
L 189.766547 317.598314 
L 190.677279 315.434477 
L 190.878464 315.329894 
L 190.878464 315.329894 
L 191.104638 315.345975 
L 191.626824 315.704731 
L 193.331334 317.322658 
L 193.561488 317.334699 
L 193.764611 317.225809 
L 194.09544 316.680548 
L 194.937755 314.489172 
L 195.135556 314.378321 
L 195.362123 314.38729 
L 195.89532 314.729467 
L 197.649809 316.293055 
L 197.880228 316.297861 
L 198.079831 316.182644 
L 198.39337 315.627261 
L 199.166436 313.410508 
L 199.360658 313.2935 
L 199.360658 313.2935 
L 199.587395 313.295347 
L 200.131077 313.620607 
L 201.933814 315.128314 
L 202.16427 315.12588 
L 202.360155 315.004451 
L 202.656094 314.439493 
L 203.359149 312.199551 
L 203.549599 312.0765 
L 203.549599 312.0765 
L 203.776283 312.071224 
L 204.329913 312.379246 
L 206.179118 313.829584 
L 206.409385 313.819912 
L 206.601359 313.69239 
L 206.879406 313.118415 
L 207.511756 310.857495 
L 207.698247 310.728522 
L 207.698247 310.728522 
L 207.924653 310.716129 
L 208.487685 311.006609 
L 210.381534 312.398146 
L 210.611383 312.381246 
L 210.799257 312.247757 
L 211.059138 311.665332 
L 211.620159 309.385665 
L 211.802507 309.250898 
L 211.802507 309.250898 
L 212.028411 309.231399 
L 212.60029 309.504051 
L 214.536914 310.835414 
L 214.766119 310.811303 
L 214.949707 310.671978 
L 215.191165 310.081677 
L 215.680303 307.785513 
L 215.858328 307.645085 
L 215.858328 307.645085 
L 216.083509 307.6185 
L 216.663669 307.873054 
L 218.641157 309.142929 
L 218.869491 309.11163 
L 219.048612 308.966607 
L 219.27141 308.369014 
L 219.688182 306.058619 
L 219.861708 305.912667 
L 219.861708 305.912667 
L 220.085942 305.879023 
L 220.673813 306.115228 
L 222.690212 307.322362 
L 222.91745 307.283906 
L 223.091928 307.133329 
L 223.295845 306.529032 
L 223.63984 304.206686 
L 223.808696 304.055356 
L 223.808696 304.055356 
L 224.031763 304.014684 
L 224.626763 304.232307 
L 226.680084 305.375509 
L 226.906002 305.329935 
L 227.075664 305.173951 
L 227.260499 304.563547 
L 227.531378 302.231542 
L 227.695397 302.074983 
L 227.917076 302.027325 
L 228.518618 302.226151 
L 230.606835 303.304292 
L 230.83121 303.251644 
L 230.995889 303.090408 
L 231.161459 302.4745 
L 231.358954 300.135136 
L 231.517975 299.973503 
L 231.517975 299.973503 
L 231.738048 299.918905 
L 232.345538 300.098738 
L 234.46659 301.110755 
L 234.689201 301.051085 
L 234.848734 300.884756 
L 234.994876 300.263951 
L 235.118793 297.919538 
L 235.272658 297.75299 
L 235.272658 297.75299 
L 235.490907 297.691506 
L 236.103746 297.852169 
L 238.25554 298.797063 
L 238.476167 298.73043 
L 238.630396 298.559172 
L 238.756966 297.934082 
L 238.807182 295.586934 
L 238.95574 295.415635 
L 239.17195 295.347326 
L 239.789534 295.48866 
L 241.969945 296.365498 
L 242.18837 296.291968 
L 242.337144 296.11595 
L 242.444017 295.487193 
L 242.420482 293.139626 
L 242.563586 292.963745 
L 242.563586 292.963745 
L 242.777545 292.888679 
L 243.399263 293.010544 
L 245.60614 293.818461 
L 245.822148 293.738106 
L 245.965319 293.557502 
L 246.05239 292.925699 
L 245.955128 290.580029 
L 246.092637 290.399739 
L 246.092637 290.399739 
L 246.304132 290.31799 
L 246.929371 290.420266 
L 249.160537 291.158465 
L 249.373914 291.071365 
L 249.511342 290.886353 
L 249.578524 290.252126 
L 249.407631 287.910669 
L 249.539409 287.726149 
L 249.539409 287.726149 
L 249.748231 287.637797 
L 250.376374 287.720383 
L 252.629627 288.388135 
L 252.840163 288.294376 
L 252.971712 288.105138 
L 253.01894 287.469114 
L 252.774583 285.13418 
L 252.9005 284.945612 
L 252.9005 284.945612 
L 253.106445 284.850744 
L 253.736872 284.913559 
L 256.009987 285.510206 
L 256.217474 285.409879 
L 256.343014 285.216603 
L 256.370241 284.579409 
L 256.052663 282.253303 
L 256.172595 282.060873 
L 256.172595 282.060873 
L 256.375458 281.959583 
L 257.007547 282.002565 
L 259.298282 282.527516 
L 259.502514 282.420722 
L 259.621922 282.223598 
L 259.62912 281.585864 
L 259.238634 279.270881 
L 259.352463 279.074778 
L 259.352463 279.074778 
L 259.552044 278.967166 
L 260.185171 278.990273 
L 262.491265 279.443011 
L 262.692042 279.329855 
L 262.805199 279.129077 
L 262.792362 278.491431 
L 262.329354 276.189856 
L 262.436966 275.990275 
L 262.633068 275.876447 
L 263.266609 275.879655 
L 265.585786 276.259734 
L 265.78291 276.140327 
L 265.889704 275.936094 
L 265.856845 275.299166 
L 265.32177 273.01327 
L 265.423061 272.810407 
L 265.615491 272.690475 
L 266.24882 272.673782 
L 268.578791 272.980826 
L 268.772067 272.855286 
L 268.872393 272.6478 
L 268.819543 272.012218 
L 268.212932 269.744257 
L 268.3078 269.538313 
L 268.3078 269.538313 
L 268.496368 269.412396 
L 269.12886 269.375817 
L 271.467326 269.609524 
L 271.656563 269.477975 
L 271.750323 269.26744 
L 271.677535 268.633832 
L 270.999984 266.386044 
L 271.088337 266.177221 
L 271.088337 266.177221 
L 271.272857 266.045443 
L 271.903888 265.989016 
L 274.24854 266.149154 
L 274.433552 266.011726 
L 274.520652 265.798349 
L 274.427999 265.167341 
L 273.680177 262.941944 
L 273.761927 262.73045 
L 273.761927 262.73045 
L 273.942217 262.592941 
L 274.571164 262.51672 
L 276.919689 262.603132 
L 277.100294 262.45996 
L 277.180648 262.243953 
L 277.06822 261.616166 
L 276.250866 259.415357 
L 276.325932 259.201399 
L 276.325932 259.201399 
L 276.501814 259.058295 
L 277.128056 258.962356 
L 279.478137 258.974957 
L 279.654155 258.826182 
L 279.727686 258.607758 
L 279.595593 257.983812 
L 278.709514 255.809763 
L 278.777822 255.593552 
L 278.777822 255.593552 
L 278.949122 255.444994 
L 279.572042 255.329432 
L 281.921359 255.268209 
L 282.092617 255.113979 
L 282.15925 254.893352 
L 282.007624 254.273863 
L 281.053694 252.12872 
L 281.115177 251.91047 
L 281.115177 251.91047 
L 281.281726 251.756605 
L 281.900709 251.621533 
L 284.246944 251.486546 
L 284.413273 251.327013 
L 284.472943 251.104403 
L 284.301933 250.489982 
L 283.281093 248.375861 
L 283.33569 248.155788 
L 283.33569 248.155788 
L 283.497324 247.996767 
L 284.111759 247.842319 
L 286.452596 247.633701 
L 286.613832 247.469023 
L 286.66648 247.244648 
L 286.476255 246.635902 
L 285.389512 244.554889 
L 285.43717 244.33321 
L 285.593729 244.16919 
L 286.203009 243.995519 
L 288.536139 243.713477 
L 288.692122 243.543815 
L 288.737697 243.317897 
L 288.528445 242.715426 
L 287.376872 240.669576 
L 287.417543 240.446509 
L 287.417543 240.446509 
L 287.568873 240.277653 
L 288.172397 240.084929 
L 290.495516 239.729741 
L 290.646094 239.555263 
L 290.68455 239.328025 
L 290.456477 238.732424 
L 289.24121 236.723755 
L 289.274855 236.499521 
L 289.420806 236.325994 
L 290.017979 236.114409 
L 292.328795 235.686425 
L 292.473818 235.507303 
L 292.505117 235.278969 
L 292.258448 234.690827 
L 290.980688 232.721321 
L 291.007272 232.496141 
L 291.147701 232.318116 
L 291.737933 232.087877 
L 294.034165 231.587519 
L 294.17349 231.403931 
L 294.197601 231.174727 
L 293.932581 230.594622 
L 292.593587 228.666224 
L 292.613085 228.440319 
L 292.613085 228.440319 
L 292.747853 228.257971 
L 293.330562 228.009306 
L 295.609944 227.43707 
L 295.743434 227.249196 
L 295.760334 227.019347 
L 295.477222 226.447853 
L 294.078317 224.562465 
L 294.09071 224.33606 
L 294.09071 224.33606 
L 294.219683 224.149568 
L 294.794294 223.882723 
L 297.054577 223.239171 
L 297.182099 223.047197 
L 297.191771 222.816931 
L 296.890849 222.254612 
L 295.433412 220.414095 
L 295.438687 220.187412 
L 295.438687 220.187412 
L 295.561739 219.996962 
L 296.127684 219.712199 
L 298.366638 218.997967 
L 298.488067 218.802082 
L 298.490502 218.571626 
L 298.172064 218.019037 
L 296.657535 216.225207 
L 296.655687 215.99847 
L 296.655687 215.99847 
L 296.772696 215.804249 
L 297.329417 215.501849 
L 299.544832 214.717644 
L 299.660048 214.518041 
L 299.655243 214.287622 
L 299.319605 213.745308 
L 297.749478 211.999936 
L 297.740509 211.773369 
L 297.851359 211.575568 
L 298.398308 211.255831 
L 300.587996 210.402424 
L 300.696886 210.199301 
L 300.684845 209.969146 
L 300.332339 209.437642 
L 298.708163 207.74245 
L 298.692082 207.516277 
L 298.796664 207.315092 
L 299.333299 206.978332 
L 301.495102 206.056567 
L 301.597557 205.850123 
L 301.578293 205.620461 
L 301.209266 205.100292 
L 299.532644 203.456953 
L 299.509466 203.231396 
L 299.509466 203.231396 
L 299.607678 203.027025 
L 300.13347 202.673576 
L 302.265253 201.684361 
L 302.361173 201.474802 
L 302.334705 201.245857 
L 301.949521 200.737536 
L 300.222107 199.147672 
L 300.191856 198.922955 
L 300.191856 198.922955 
L 300.2836 198.7156 
L 300.798031 198.345809 
L 302.897689 197.290122 
L 302.98698 197.077653 
L 302.953333 196.849653 
L 302.552373 196.353682 
L 300.775873 194.818862 
L 300.738578 194.595205 
L 300.738578 194.595205 
L 300.823764 194.385071 
L 301.326325 193.999304 
L 303.391787 192.878186 
L 303.474361 192.663017 
L 303.433569 192.436186 
L 303.017227 191.953054 
L 301.193394 190.474793 
L 301.149093 190.252418 
L 301.227635 190.039712 
L 301.717832 189.63835 
L 303.74706 188.452907 
L 303.822833 188.23525 
L 303.774937 188.009813 
L 303.343625 187.539997 
L 301.474258 186.119753 
L 301.422994 185.89888 
L 301.422994 185.89888 
L 301.494817 185.683811 
L 301.972164 185.267249 
L 303.963155 184.018652 
L 304.032055 183.798723 
L 303.977101 183.574901 
L 303.531244 183.118865 
L 301.618189 181.75804 
L 301.560012 181.538886 
L 301.560012 181.538886 
" clip-path="url(#p41ce795c5c)" style="fill: none; stroke: #ffffff; stroke-width: 0.72; stroke-linejoin: miter"/>
   </g>
   <g id="patch_4">
    <path d="M 301.296623 179.357812 
C 301.296623 255.891568 239.253756 317.934436 162.72 317.934436 
C 86.186244 317.934436 24.143377 255.891568 24.143377 179.357812 
C 24.143377 102.824057 86.186244 40.781189 162.72 40.781189 
C 239.253756 40.781189 301.296623 102.824057 301.296623 179.357812 
" clip-path="url(#p41ce795c5c)" style="fill: none; stroke: #ffffff; stroke-width: 0.72; stroke-linejoin: miter"/>
   </g>
   <g id="text_1">
    <!-- Flex Spline - 200 External Teeth -->
    <g transform="translate(37.370781 17.837812) scale(0.14 -0.14)">
     <defs>
      <path id="DejaVuSans-Bold-46" d="M 588 4666 
L 3834 4666 
L 3834 3756 
L 1791 3756 
L 1791 2888 
L 3713 2888 
L 3713 1978 
L 1791 1978 
L 1791 0 
L 588 0 
L 588 4666 
z
" transform="scale(0.015625)"/>
      <path id="DejaVuSans-Bold-6c" d="M 538 4863 
L 1656 4863 
L 1656 0 
L 538 0 
L 538 4863 
z
" transform="scale(0.015625)"/>
      <path id="DejaVuSans-Bold-65" d="M 4031 1759 
L 4031 1441 
L 1416 1441 
Q 1456 1047 1700 850 
Q 1944 653 2381 653 
Q 2734 653 3104 758 
Q 3475 863 3866 1075 
L 3866 213 
Q 3469 63 3072 -14 
Q 2675 -91 2278 -91 
Q 1328 -91 801 392 
Q 275 875 275 1747 
Q 275 2603 792 3093 
Q 1309 3584 2216 3584 
Q 3041 3584 3536 3087 
Q 4031 2591 4031 1759 
z
M 2881 2131 
Q 2881 2450 2695 2645 
Q 2509 2841 2209 2841 
Q 1884 2841 1681 2658 
Q 1478 2475 1428 2131 
L 2881 2131 
z
" transform="scale(0.015625)"/>
      <path id="DejaVuSans-Bold-78" d="M 1422 1791 
L 159 3500 
L 1344 3500 
L 2059 2463 
L 2784 3500 
L 3969 3500 
L 2706 1797 
L 4031 0 
L 2847 0 
L 2059 1106 
L 1281 0 
L 97 0 
L 1422 1791 
z
" transform="scale(0.015625)"/>
      <path id="DejaVuSans-Bold-20" transform="scale(0.015625)"/>
      <path id="DejaVuSans-Bold-53" d="M 3834 4519 
L 3834 3531 
Q 3450 3703 3084 3790 
Q 2719 3878 2394 3878 
Q 1963 3878 1756 3759 
Q 1550 3641 1550 3391 
Q 1550 3203 1689 3098 
Q 1828 2994 2194 2919 
L 2706 2816 
Q 3484 2659 3812 2340 
Q 4141 2022 4141 1434 
Q 4141 663 3683 286 
Q 3225 -91 2284 -91 
Q 1841 -91 1394 -6 
Q 947 78 500 244 
L 500 1259 
Q 947 1022 1364 901 
Q 1781 781 2169 781 
Q 2563 781 2772 912 
Q 2981 1044 2981 1288 
Q 2981 1506 2839 1625 
Q 2697 1744 2272 1838 
L 1806 1941 
Q 1106 2091 782 2419 
Q 459 2747 459 3303 
Q 459 4000 909 4375 
Q 1359 4750 2203 4750 
Q 2588 4750 2994 4692 
Q 3400 4634 3834 4519 
z
" transform="scale(0.015625)"/>
      <path id="DejaVuSans-Bold-70" d="M 1656 506 
L 1656 -1331 
L 538 -1331 
L 538 3500 
L 1656 3500 
L 1656 2988 
Q 1888 3294 2169 3439 
Q 2450 3584 2816 3584 
Q 3463 3584 3878 3070 
Q 4294 2556 4294 1747 
Q 4294 938 3878 423 
Q 3463 -91 2816 -91 
Q 2450 -91 2169 54 
Q 1888 200 1656 506 
z
M 2400 2772 
Q 2041 2772 1848 2508 
Q 1656 2244 1656 1747 
Q 1656 1250 1848 986 
Q 2041 722 2400 722 
Q 2759 722 2948 984 
Q 3138 1247 3138 1747 
Q 3138 2247 2948 2509 
Q 2759 2772 2400 2772 
z
" transform="scale(0.015625)"/>
      <path id="DejaVuSans-Bold-69" d="M 538 3500 
L 1656 3500 
L 1656 0 
L 538 0 
L 538 3500 
z
M 538 4863 
L 1656 4863 
L 1656 3950 
L 538 3950 
L 538 4863 
z
" transform="scale(0.015625)"/>
      <path id="DejaVuSans-Bold-6e" d="M 4056 2131 
L 4056 0 
L 2931 0 
L 2931 347 
L 2931 1631 
Q 2931 2084 2911 2256 
Q 2891 2428 2841 2509 
Q 2775 2619 2662 2680 
Q 2550 2741 2406 2741 
Q 2056 2741 1856 2470 
Q 1656 2200 1656 1722 
L 1656 0 
L 538 0 
L 538 3500 
L 1656 3500 
L 1656 2988 
Q 1909 3294 2193 3439 
Q 2478 3584 2822 3584 
Q 3428 3584 3742 3212 
Q 4056 2841 4056 2131 
z
" transform="scale(0.015625)"/>
      <path id="DejaVuSans-Bold-2d" d="M 347 2297 
L 2309 2297 
L 2309 1388 
L 347 1388 
L 347 2297 
z
" transform="scale(0.015625)"/>
      <path id="DejaVuSans-Bold-32" d="M 1844 884 
L 3897 884 
L 3897 0 
L 506 0 
L 506 884 
L 2209 2388 
Q 2438 2594 2547 2791 
Q 2656 2988 2656 3200 
Q 2656 3528 2436 3728 
Q 2216 3928 1850 3928 
Q 1569 3928 1234 3808 
Q 900 3688 519 3450 
L 519 4475 
Q 925 4609 1322 4679 
Q 1719 4750 2100 4750 
Q 2938 4750 3402 4381 
Q 3866 4013 3866 3353 
Q 3866 2972 3669 2642 
Q 3472 2313 2841 1759 
L 1844 884 
z
" transform="scale(0.015625)"/>
      <path id="DejaVuSans-Bold-30" d="M 2944 2338 
Q 2944 3213 2780 3570 
Q 2616 3928 2228 3928 
Q 1841 3928 1675 3570 
Q 1509 3213 1509 2338 
Q 1509 1453 1675 1090 
Q 1841 728 2228 728 
Q 2613 728 2778 1090 
Q 2944 1453 2944 2338 
z
M 4147 2328 
Q 4147 1169 3647 539 
Q 3147 -91 2228 -91 
Q 1306 -91 806 539 
Q 306 1169 306 2328 
Q 306 3491 806 4120 
Q 1306 4750 2228 4750 
Q 3147 4750 3647 4120 
Q 4147 3491 4147 2328 
z
" transform="scale(0.015625)"/>
      <path id="DejaVuSans-Bold-45" d="M 588 4666 
L 3834 4666 
L 3834 3756 
L 1791 3756 
L 1791 2888 
L 3713 2888 
L 3713 1978 
L 1791 1978 
L 1791 909 
L 3903 909 
L 3903 0 
L 588 0 
L 588 4666 
z
" transform="scale(0.015625)"/>
      <path id="DejaVuSans-Bold-74" d="M 1759 4494 
L 1759 3500 
L 2913 3500 
L 2913 2700 
L 1759 2700 
L 1759 1216 
Q 1759 972 1856 886 
Q 1953 800 2241 800 
L 2816 800 
L 2816 0 
L 1856 0 
Q 1194 0 917 276 
Q 641 553 641 1216 
L 641 2700 
L 84 2700 
L 84 3500 
L 641 3500 
L 641 4494 
L 1759 4494 
z
" transform="scale(0.015625)"/>
      <path id="DejaVuSans-Bold-72" d="M 3138 2547 
Q 2991 2616 2845 2648 
Q 2700 2681 2553 2681 
Q 2122 2681 1889 2404 
Q 1656 2128 1656 1613 
L 1656 0 
L 538 0 
L 538 3500 
L 1656 3500 
L 1656 2925 
Q 1872 3269 2151 3426 
Q 2431 3584 2822 3584 
Q 2878 3584 2943 3579 
Q 3009 3575 3134 3559 
L 3138 2547 
z
" transform="scale(0.015625)"/>
      <path id="DejaVuSans-Bold-61" d="M 2106 1575 
Q 1756 1575 1579 1456 
Q 1403 1338 1403 1106 
Q 1403 894 1545 773 
Q 1688 653 1941 653 
Q 2256 653 2472 879 
Q 2688 1106 2688 1447 
L 2688 1575 
L 2106 1575 
z
M 3816 1997 
L 3816 0 
L 2688 0 
L 2688 519 
Q 2463 200 2181 54 
Q 1900 -91 1497 -91 
Q 953 -91 614 226 
Q 275 544 275 1050 
Q 275 1666 698 1953 
Q 1122 2241 2028 2241 
L 2688 2241 
L 2688 2328 
Q 2688 2594 2478 2717 
Q 2269 2841 1825 2841 
Q 1466 2841 1156 2769 
Q 847 2697 581 2553 
L 581 3406 
Q 941 3494 1303 3539 
Q 1666 3584 2028 3584 
Q 2975 3584 3395 3211 
Q 3816 2838 3816 1997 
z
" transform="scale(0.015625)"/>
      <path id="DejaVuSans-Bold-54" d="M 31 4666 
L 4331 4666 
L 4331 3756 
L 2784 3756 
L 2784 0 
L 1581 0 
L 1581 3756 
L 31 3756 
L 31 4666 
z
" transform="scale(0.015625)"/>
      <path id="DejaVuSans-Bold-68" d="M 4056 2131 
L 4056 0 
L 2931 0 
L 2931 347 
L 2931 1625 
Q 2931 2084 2911 2256 
Q 2891 2428 2841 2509 
Q 2775 2619 2662 2680 
Q 2550 2741 2406 2741 
Q 2056 2741 1856 2470 
Q 1656 2200 1656 1722 
L 1656 0 
L 538 0 
L 538 4863 
L 1656 4863 
L 1656 2988 
Q 1909 3294 2193 3439 
Q 2478 3584 2822 3584 
Q 3428 3584 3742 3212 
Q 4056 2841 4056 2131 
z
" transform="scale(0.015625)"/>
     </defs>
     <use xlink:href="#DejaVuSans-Bold-46"/>
     <use xlink:href="#DejaVuSans-Bold-6c" transform="translate(68.310547 0)"/>
     <use xlink:href="#DejaVuSans-Bold-65" transform="translate(102.587891 0)"/>
     <use xlink:href="#DejaVuSans-Bold-78" transform="translate(170.410156 0)"/>
     <use xlink:href="#DejaVuSans-Bold-20" transform="translate(234.912109 0)"/>
     <use xlink:href="#DejaVuSans-Bold-53" transform="translate(269.726562 0)"/>
     <use xlink:href="#DejaVuSans-Bold-70" transform="translate(341.748047 0)"/>
     <use xlink:href="#DejaVuSans-Bold-6c" transform="translate(413.330078 0)"/>
     <use xlink:href="#DejaVuSans-Bold-69" transform="translate(447.607422 0)"/>
     <use xlink:href="#DejaVuSans-Bold-6e" transform="translate(481.884766 0)"/>
     <use xlink:href="#DejaVuSans-Bold-65" transform="translate(553.076172 0)"/>
     <use xlink:href="#DejaVuSans-Bold-20" transform="translate(620.898438 0)"/>
     <use xlink:href="#DejaVuSans-Bold-2d" transform="translate(655.712891 0)"/>
     <use xlink:href="#DejaVuSans-Bold-20" transform="translate(697.216797 0)"/>
     <use xlink:href="#DejaVuSans-Bold-32" transform="translate(732.03125 0)"/>
     <use xlink:href="#DejaVuSans-Bold-30" transform="translate(801.611328 0)"/>
     <use xlink:href="#DejaVuSans-Bold-30" transform="translate(871.191406 0)"/>
     <use xlink:href="#DejaVuSans-Bold-20" transform="translate(940.771484 0)"/>
     <use xlink:href="#DejaVuSans-Bold-45" transform="translate(975.585938 0)"/>
     <use xlink:href="#DejaVuSans-Bold-78" transform="translate(1043.896484 0)"/>
     <use xlink:href="#DejaVuSans-Bold-74" transform="translate(1108.398438 0)"/>
     <use xlink:href="#DejaVuSans-Bold-65" transform="translate(1156.201172 0)"/>
     <use xlink:href="#DejaVuSans-Bold-72" transform="translate(1224.023438 0)"/>
     <use xlink:href="#DejaVuSans-Bold-6e" transform="translate(1273.339844 0)"/>
     <use xlink:href="#DejaVuSans-Bold-61" transform="translate(1344.53125 0)"/>
     <use xlink:href="#DejaVuSans-Bold-6c" transform="translate(1412.011719 0)"/>
     <use xlink:href="#DejaVuSans-Bold-20" transform="translate(1446.289062 0)"/>
     <use xlink:href="#DejaVuSans-Bold-54" transform="translate(1481.103516 0)"/>
     <use xlink:href="#DejaVuSans-Bold-65" transform="translate(1536.066406 0)"/>
     <use xlink:href="#DejaVuSans-Bold-65" transform="translate(1603.888672 0)"/>
     <use xlink:href="#DejaVuSans-Bold-74" transform="translate(1671.710938 0)"/>
     <use xlink:href="#DejaVuSans-Bold-68" transform="translate(1719.513672 0)"/>
    </g>
   </g>
  </g>
 </g>
 <defs>
  <clipPath id="p41ce795c5c">
   <rect x="7.2" y="23.837812" width="311.04" height="311.04"/>
  </clipPath>
 </defs>
</svg>
