  0
SECTION
  2
HEADER
  9
$ACADVER
  1
AC1024
  9
$ACADMAINTVER
 70
6
  9
$DWGCODEPAGE
  3
ANSI_1252
  9
$LASTSAVEDBY
  1
ezdxf
  9
$INSBASE
 10
0.0
 20
0.0
 30
0.0
  9
$EXTMIN
 10
1e+20
 20
1e+20
 30
1e+20
  9
$EXTMAX
 10
-1e+20
 20
-1e+20
 30
-1e+20
  9
$LIMMIN
 10
0.0
 20
0.0
  9
$LIMMAX
 10
420.0
 20
297.0
  9
$ORTHOMODE
 70
0
  9
$REGENMODE
 70
1
  9
$FILLMODE
 70
1
  9
$QTEXTMODE
 70
0
  9
$MIRRTEXT
 70
1
  9
$LTSCALE
 40
1.0
  9
$ATTMODE
 70
1
  9
$TEXTSIZE
 40
2.5
  9
$TRACEWID
 40
1.0
  9
$TEXTSTYLE
  7
Standard
  9
$CLAYER
  8
0
  9
$CELTYPE
  6
ByLayer
  9
$CECOLOR
 62
256
  9
$CELTSCALE
 40
1.0
  9
$DISPSILH
 70
0
  9
$DIMSCALE
 40
1.0
  9
$DIMASZ
 40
2.5
  9
$DIMEXO
 40
0.625
  9
$DIMDLI
 40
3.75
  9
$DIMRND
 40
0.0
  9
$DIMDLE
 40
0.0
  9
$DIMEXE
 40
1.25
  9
$DIMTP
 40
0.0
  9
$DIMTM
 40
0.0
  9
$DIMTXT
 40
2.5
  9
$DIMCEN
 40
2.5
  9
$DIMTSZ
 40
0.0
  9
$DIMTOL
 70
0
  9
$DIMLIM
 70
0
  9
$DIMTIH
 70
0
  9
$DIMTOH
 70
0
  9
$DIMSE1
 70
0
  9
$DIMSE2
 70
0
  9
$DIMTAD
 70
1
  9
$DIMZIN
 70
8
  9
$DIMBLK
  1

  9
$DIMASO
 70
1
  9
$DIMSHO
 70
1
  9
$DIMPOST
  1

  9
$DIMAPOST
  1

  9
$DIMALT
 70
0
  9
$DIMALTD
 70
3
  9
$DIMALTF
 40
0.03937007874
  9
$DIMLFAC
 40
1.0
  9
$DIMTOFL
 70
1
  9
$DIMTVP
 40
0.0
  9
$DIMTIX
 70
0
  9
$DIMSOXD
 70
0
  9
$DIMSAH
 70
0
  9
$DIMBLK1
  1

  9
$DIMBLK2
  1

  9
$DIMSTYLE
  2
ISO-25
  9
$DIMCLRD
 70
0
  9
$DIMCLRE
 70
0
  9
$DIMCLRT
 70
0
  9
$DIMTFAC
 40
1.0
  9
$DIMGAP
 40
0.625
  9
$DIMJUST
 70
0
  9
$DIMSD1
 70
0
  9
$DIMSD2
 70
0
  9
$DIMTOLJ
 70
0
  9
$DIMTZIN
 70
8
  9
$DIMALTZ
 70
0
  9
$DIMALTTZ
 70
0
  9
$DIMUPT
 70
0
  9
$DIMDEC
 70
2
  9
$DIMTDEC
 70
2
  9
$DIMALTU
 70
2
  9
$DIMALTTD
 70
3
  9
$DIMTXSTY
  7
Standard
  9
$DIMAUNIT
 70
0
  9
$DIMADEC
 70
0
  9
$DIMALTRND
 40
0.0
  9
$DIMAZIN
 70
0
  9
$DIMDSEP
 70
44
  9
$DIMATFIT
 70
3
  9
$DIMFRAC
 70
0
  9
$DIMLDRBLK
  1

  9
$DIMLUNIT
 70
2
  9
$DIMLWD
 70
-2
  9
$DIMLWE
 70
-2
  9
$DIMTMOVE
 70
0
  9
$DIMFXL
 40
1.0
  9
$DIMFXLON
 70
0
  9
$DIMJOGANG
 40
0.785398163397
  9
$DIMTFILL
 70
0
  9
$DIMTFILLCLR
 70
0
  9
$DIMARCSYM
 70
0
  9
$DIMLTYPE
  6

  9
$DIMLTEX1
  6

  9
$DIMLTEX2
  6

  9
$DIMTXTDIRECTION
 70
0
  9
$LUNITS
 70
2
  9
$LUPREC
 70
4
  9
$SKETCHINC
 40
1.0
  9
$FILLETRAD
 40
10.0
  9
$AUNITS
 70
0
  9
$AUPREC
 70
2
  9
$MENU
  1
.
  9
$ELEVATION
 40
0.0
  9
$PELEVATION
 40
0.0
  9
$THICKNESS
 40
0.0
  9
$LIMCHECK
 70
0
  9
$CHAMFERA
 40
0.0
  9
$CHAMFERB
 40
0.0
  9
$CHAMFERC
 40
0.0
  9
$CHAMFERD
 40
0.0
  9
$SKPOLY
 70
0
  9
$TDCREATE
 40
2461075.2871296294
  9
$TDUCREATE
 40
2458532.153996898
  9
$TDUPDATE
 40
2461075.2871296294
  9
$TDUUPDATE
 40
2458532.1544311
  9
$TDINDWG
 40
0.0
  9
$TDUSRTIMER
 40
0.0
  9
$USRTIMER
 70
1
  9
$ANGBASE
 50
0.0
  9
$ANGDIR
 70
0
  9
$PDMODE
 70
0
  9
$PDSIZE
 40
0.0
  9
$PLINEWID
 40
0.0
  9
$SPLFRAME
 70
0
  9
$SPLINETYPE
 70
6
  9
$SPLINESEGS
 70
8
  9
$HANDSEED
  5
36
  9
$SURFTAB1
 70
6
  9
$SURFTAB2
 70
6
  9
$SURFTYPE
 70
6
  9
$SURFU
 70
6
  9
$SURFV
 70
6
  9
$UCSBASE
  2

  9
$UCSNAME
  2

  9
$UCSORG
 10
0.0
 20
0.0
 30
0.0
  9
$UCSXDIR
 10
1.0
 20
0.0
 30
0.0
  9
$UCSYDIR
 10
0.0
 20
1.0
 30
0.0
  9
$UCSORTHOREF
  2

  9
$UCSORTHOVIEW
 70
0
  9
$UCSORGTOP
 10
0.0
 20
0.0
 30
0.0
  9
$UCSORGBOTTOM
 10
0.0
 20
0.0
 30
0.0
  9
$UCSORGLEFT
 10
0.0
 20
0.0
 30
0.0
  9
$UCSORGRIGHT
 10
0.0
 20
0.0
 30
0.0
  9
$UCSORGFRONT
 10
0.0
 20
0.0
 30
0.0
  9
$UCSORGBACK
 10
0.0
 20
0.0
 30
0.0
  9
$PUCSBASE
  2

  9
$PUCSNAME
  2

  9
$PUCSORG
 10
0.0
 20
0.0
 30
0.0
  9
$PUCSXDIR
 10
1.0
 20
0.0
 30
0.0
  9
$PUCSYDIR
 10
0.0
 20
1.0
 30
0.0
  9
$PUCSORTHOREF
  2

  9
$PUCSORTHOVIEW
 70
0
  9
$PUCSORGTOP
 10
0.0
 20
0.0
 30
0.0
  9
$PUCSORGBOTTOM
 10
0.0
 20
0.0
 30
0.0
  9
$PUCSORGLEFT
 10
0.0
 20
0.0
 30
0.0
  9
$PUCSORGRIGHT
 10
0.0
 20
0.0
 30
0.0
  9
$PUCSORGFRONT
 10
0.0
 20
0.0
 30
0.0
  9
$PUCSORGBACK
 10
0.0
 20
0.0
 30
0.0
  9
$USERI1
 70
0
  9
$USERI2
 70
0
  9
$USERI3
 70
0
  9
$USERI4
 70
0
  9
$USERI5
 70
0
  9
$USERR1
 40
0.0
  9
$USERR2
 40
0.0
  9
$USERR3
 40
0.0
  9
$USERR4
 40
0.0
  9
$USERR5
 40
0.0
  9
$WORLDVIEW
 70
1
  9
$SHADEDGE
 70
3
  9
$SHADEDIF
 70
70
  9
$TILEMODE
 70
1
  9
$MAXACTVP
 70
64
  9
$PINSBASE
 10
0.0
 20
0.0
 30
0.0
  9
$PLIMCHECK
 70
0
  9
$PEXTMIN
 10
1e+20
 20
1e+20
 30
1e+20
  9
$PEXTMAX
 10
-1e+20
 20
-1e+20
 30
-1e+20
  9
$PLIMMIN
 10
0.0
 20
0.0
  9
$PLIMMAX
 10
420.0
 20
297.0
  9
$UNITMODE
 70
0
  9
$VISRETAIN
 70
1
  9
$PLINEGEN
 70
0
  9
$PSLTSCALE
 70
1
  9
$TREEDEPTH
 70
3020
  9
$CMLSTYLE
  2
Standard
  9
$CMLJUST
 70
0
  9
$CMLSCALE
 40
20.0
  9
$PROXYGRAPHICS
 70
1
  9
$MEASUREMENT
 70
1
  9
$CELWEIGHT
370
-1
  9
$ENDCAPS
280
0
  9
$JOINSTYLE
280
0
  9
$LWDISPLAY
290
0
  9
$INSUNITS
 70
4
  9
$HYPERLINKBASE
  1

  9
$STYLESHEET
  1

  9
$XEDIT
290
1
  9
$CEPSNTYPE
380
0
  9
$PSTYLEMODE
290
1
  9
$FINGERPRINTGUID
  2
{3A2AF95A-01C9-4814-9E29-21ACCEB2B352}
  9
$VERSIONGUID
  2
{82AFB06A-AF8A-4D7C-8045-F8BF34D34154}
  9
$EXTNAMES
290
1
  9
$PSVPSCALE
 40
0.0
  9
$OLESTARTUP
290
0
  9
$SORTENTS
280
127
  9
$INDEXCTL
280
0
  9
$HIDETEXT
280
1
  9
$XCLIPFRAME
280
1
  9
$HALOGAP
280
0
  9
$OBSCOLOR
 70
257
  9
$OBSLTYPE
280
0
  9
$INTERSECTIONDISPLAY
280
0
  9
$INTERSECTIONCOLOR
 70
257
  9
$DIMASSOC
280
2
  9
$PROJECTNAME
  1

  9
$CAMERADISPLAY
290
0
  9
$LENSLENGTH
 40
50.0
  9
$CAMERAHEIGHT
 40
0.0
  9
$STEPSPERSEC
 40
24.0
  9
$STEPSIZE
 40
100.0
  9
$3DDWFPREC
 40
2.0
  9
$PSOLWIDTH
 40
0.005
  9
$PSOLHEIGHT
 40
0.08
  9
$LOFTANG1
 40
1.570796326795
  9
$LOFTANG2
 40
1.570796326795
  9
$LOFTMAG1
 40
0.0
  9
$LOFTMAG2
 40
0.0
  9
$LOFTPARAM
 70
7
  9
$LOFTNORMALS
280
1
  9
$LATITUDE
 40
37.795
  9
$LONGITUDE
 40
-122.394
  9
$NORTHDIRECTION
 40
0.0
  9
$TIMEZONE
 70
-8000
  9
$LIGHTGLYPHDISPLAY
280
1
  9
$TILEMODELIGHTSYNCH
280
1
  9
$CMATERIAL
347
20
  9
$SOLIDHIST
280
0
  9
$SHOWHIST
280
1
  9
$DWFFRAME
280
2
  9
$DGNFRAME
280
2
  9
$REALWORLDSCALE
290
1
  9
$INTERFERECOLOR
 62
256
  9
$CSHADOW
280
0
  9
$SHADOWPLANELOCATION
 40
0.0
  0
ENDSEC
  0
SECTION
  2
CLASSES
  0
CLASS
  1
ACDBDICTIONARYWDFLT
  2
AcDbDictionaryWithDefault
  3
ObjectDBX Classes
 90
0
 91
0
280
0
281
0
  0
CLASS
  1
SUN
  2
AcDbSun
  3
SCENEOE
 90
1153
 91
0
280
0
281
0
  0
CLASS
  1
VISUALSTYLE
  2
AcDbVisualStyle
  3
ObjectDBX Classes
 90
4095
 91
0
280
0
281
0
  0
CLASS
  1
MATERIAL
  2
AcDbMaterial
  3
ObjectDBX Classes
 90
1153
 91
0
280
0
281
0
  0
CLASS
  1
SCALE
  2
AcDbScale
  3
ObjectDBX Classes
 90
1153
 91
0
280
0
281
0
  0
CLASS
  1
TABLESTYLE
  2
AcDbTableStyle
  3
ObjectDBX Classes
 90
4095
 91
0
280
0
281
0
  0
CLASS
  1
MLEADERSTYLE
  2
AcDbMLeaderStyle
  3
ACDB_MLEADERSTYLE_CLASS
 90
4095
 91
0
280
0
281
0
  0
CLASS
  1
DICTIONARYVAR
  2
AcDbDictionaryVar
  3
ObjectDBX Classes
 90
0
 91
0
280
0
281
0
  0
CLASS
  1
CELLSTYLEMAP
  2
AcDbCellStyleMap
  3
ObjectDBX Classes
 90
1152
 91
0
280
0
281
0
  0
CLASS
  1
MENTALRAYRENDERSETTINGS
  2
AcDbMentalRayRenderSettings
  3
SCENEOE
 90
1024
 91
0
280
0
281
0
  0
CLASS
  1
ACDBDETAILVIEWSTYLE
  2
AcDbDetailViewStyle
  3
ObjectDBX Classes
 90
1025
 91
0
280
0
281
0
  0
CLASS
  1
ACDBSECTIONVIEWSTYLE
  2
AcDbSectionViewStyle
  3
ObjectDBX Classes
 90
1025
 91
0
280
0
281
0
  0
CLASS
  1
RASTERVARIABLES
  2
AcDbRasterVariables
  3
ISM
 90
0
 91
0
280
0
281
0
  0
CLASS
  1
ACDBPLACEHOLDER
  2
AcDbPlaceHolder
  3
ObjectDBX Classes
 90
0
 91
0
280
0
281
0
  0
CLASS
  1
LAYOUT
  2
AcDbLayout
  3
ObjectDBX Classes
 90
0
 91
0
280
0
281
0
  0
ENDSEC
  0
SECTION
  2
TABLES
  0
TABLE
  2
VPORT
  5
8
330
0
100
AcDbSymbolTable
 70
1
  0
VPORT
  5
23
330
8
100
AcDbSymbolTableRecord
100
AcDbViewportTableRecord
  2
*Active
 70
0
 10
0.0
 20
0.0
 11
1.0
 21
1.0
 12
0.0
 22
0.0
 13
0.0
 23
0.0
 14
0.5
 24
0.5
 15
0.5
 25
0.5
 16
0.0
 26
0.0
 36
1.0
 17
0.0
 27
0.0
 37
0.0
 40
1000.0
 41
1.34
 42
50.0
 43
0.0
 44
0.0
 50
0.0
 51
0.0
 71
0
 72
1000
 73
1
 74
3
 75
0
 76
0
 77
0
 78
0
281
0
 65
0
146
0.0
  0
ENDTAB
  0
TABLE
  2
LTYPE
  5
2
330
0
100
AcDbSymbolTable
 70
3
  0
LTYPE
  5
24
330
2
100
AcDbSymbolTableRecord
100
AcDbLinetypeTableRecord
  2
ByBlock
 70
0
  3

 72
65
 73
0
 40
0.0
  0
LTYPE
  5
25
330
2
100
AcDbSymbolTableRecord
100
AcDbLinetypeTableRecord
  2
ByLayer
 70
0
  3

 72
65
 73
0
 40
0.0
  0
LTYPE
  5
26
330
2
100
AcDbSymbolTableRecord
100
AcDbLinetypeTableRecord
  2
Continuous
 70
0
  3

 72
65
 73
0
 40
0.0
  0
ENDTAB
  0
TABLE
  2
LAYER
  5
1
330
0
100
AcDbSymbolTable
 70
2
  0
LAYER
  5
27
330
1
100
AcDbSymbolTableRecord
100
AcDbLayerTableRecord
  2
0
 70
0
 62
7
  6
Continuous
370
-3
390
13
347
21
  0
LAYER
  5
28
330
1
100
AcDbSymbolTableRecord
100
AcDbLayerTableRecord
  2
Defpoints
 70
0
 62
7
  6
Continuous
290
0
370
-3
390
13
347
21
  0
ENDTAB
  0
TABLE
  2
STYLE
  5
5
330
0
100
AcDbSymbolTable
 70
1
  0
STYLE
  5
29
330
5
100
AcDbSymbolTableRecord
100
AcDbTextStyleTableRecord
  2
Standard
 70
0
 40
0.0
 41
1.0
 50
0.0
 71
0
 42
2.5
  3
txt
  4

  0
ENDTAB
  0
TABLE
  2
VIEW
  5
7
330
0
100
AcDbSymbolTable
 70
0
  0
ENDTAB
  0
TABLE
  2
UCS
  5
6
330
0
100
AcDbSymbolTable
 70
0
  0
ENDTAB
  0
TABLE
  2
APPID
  5
3
330
0
100
AcDbSymbolTable
 70
3
  0
APPID
  5
2A
330
3
100
AcDbSymbolTableRecord
100
AcDbRegAppTableRecord
  2
ACAD
 70
0
  0
APPID
  5
33
330
3
100
AcDbSymbolTableRecord
100
AcDbRegAppTableRecord
  2
HATCHBACKGROUNDCOLOR
 70
0
  0
APPID
  5
34
330
3
100
AcDbSymbolTableRecord
100
AcDbRegAppTableRecord
  2
EZDXF
 70
0
  0
ENDTAB
  0
TABLE
  2
DIMSTYLE
  5
4
330
0
100
AcDbSymbolTable
 70
1
100
AcDbDimStyleTable
  0
DIMSTYLE
105
2B
330
4
100
AcDbSymbolTableRecord
100
AcDbDimStyleTableRecord
  2
Standard
 70
0
 40
1.0
 41
2.5
 42
0.625
 43
3.75
 44
1.25
 45
0.0
 46
0.0
 47
0.0
 48
0.0
 49
2.5
140
2.5
141
2.5
142
0.0
143
0.03937007874
144
1.0
145
0.0
146
1.0
147
0.625
148
0.0
 69
0
 70
0
 71
0
 72
0
 73
0
 74
0
 75
0
 76
0
 77
1
 78
8
 79
3
170
0
171
3
172
1
173
0
174
0
175
0
176
0
177
0
178
0
179
2
271
2
272
2
273
2
274
3
275
0
276
0
277
2
278
44
279
0
280
0
281
0
282
0
283
0
284
8
285
0
286
0
288
0
289
3
290
0
371
-2
372
-2
  0
ENDTAB
  0
TABLE
  2
BLOCK_RECORD
  5
9
330
0
100
AcDbSymbolTable
 70
2
  0
BLOCK_RECORD
  5
17
330
9
100
AcDbSymbolTableRecord
100
AcDbBlockTableRecord
  2
*Model_Space
340
1A
 70
0
280
1
281
0
  0
BLOCK_RECORD
  5
1B
330
9
100
AcDbSymbolTableRecord
100
AcDbBlockTableRecord
  2
*Paper_Space
340
1E
 70
0
280
1
281
0
  0
ENDTAB
  0
ENDSEC
  0
SECTION
  2
BLOCKS
  0
BLOCK
  5
18
330
17
100
AcDbEntity
  8
0
100
AcDbBlockBegin
  2
*Model_Space
 70
0
 10
0.0
 20
0.0
 30
0.0
  3
*Model_Space
  1

  0
ENDBLK
  5
19
330
17
100
AcDbEntity
  8
0
100
AcDbBlockEnd
  0
BLOCK
  5
1C
330
1B
100
AcDbEntity
  8
0
100
AcDbBlockBegin
  2
*Paper_Space
 70
0
 10
0.0
 20
0.0
 30
0.0
  3
*Paper_Space
  1

  0
ENDBLK
  5
1D
330
1B
100
AcDbEntity
  8
0
100
AcDbBlockEnd
  0
ENDSEC
  0
SECTION
  2
ENTITIES
  0
LWPOLYLINE
  5
2F
330
17
100
AcDbEntity
  8
CAM
100
AcDbPolyline
 90
361
 70
1
 10
40.42
 20
0.0
 10
40.41384383822134
 20
0.6888464820795803
 10
40.395377228111855
 20
1.3774831348477135
 10
40.36460579477988
 20
2.0657001929089933
 10
40.321538911502095
 20
2.753288018680626
 10
40.26618969686836
 20
3.440037166250068
 10
40.19857501078561
 20
4.1257384451742825
 10
40.11871544934224
 20
4.810182984201171
 10
40.02663533853428
 20
5.493162294893784
 10
39.92236272685547
 20
6.174468335137913
 10
39.80592937675345
 20
6.8538935725137415
 10
39.67737075495458
 20
7.531231047512224
 10
39.53672602166043
 20
8.206274436576962
 10
39.38403801861921
 20
8.878818114952352
 10
39.21935325607578
 20
9.548657219318887
 10
39.04272189860414
 20
10.215587710196495
 10
38.85419774982685
 20
10.879406434096959
 10
38.65383823602589
 20
11.539911185406423
 10
38.44170438865011
 20
12.196900767979175
 10
38.21786082572439
 20
12.850175056423975
 10
37.98237573216642
 20
13.499535057064147
 10
37.73532083901689
 20
14.144782968553004
 10
37.47677140158955
 20
14.785722242126049
 10
37.206806176547644
 20
15.422157641471635
 10
36.925507397913925
 20
16.053895302201834
 10
36.63296075202139
 20
16.68074279090541
 10
36.329255351412336
 20
17.30250916376489
 10
36.014483707693834
 20
17.91900502471991
 10
35.68874170335783
 20
18.530042583159112
 10
35.35212856257438
 20
19.135435711122927
 10
35.004746820967014
 20
19.735
 10
34.64670229437938
 20
20.32855281669984
 10
34.27810404664274
 20
20.915913359284602
 10
33.89906435635404
 20
21.496902712043124
 10
33.50969868267478
 20
22.071343899990385
 10
33.11012563016105
 20
22.63906194277579
 10
32.70046691263538
 20
23.199883907983917
 10
32.280847316111576
 20
23.753638963811348
 10
31.851394660783704
 20
24.300158431103732
 10
31.412239762090763
 20
24.839275834737087
 10
30.963516390869092
 20
25.370826954327708
 10
30.50536123260445
 20
25.89464987425532
 10
30.037913845796275
 20
26.410585032984137
 10
29.561316619446877
 20
26.918475271666818
 10
29.075714729688283
 20
27.418165882016627
 10
28.581256095560253
 20
27.909504653433032
 10
28.078091333952674
 20
28.39234191936656
 10
27.56637371372619
 20
28.86653060290866
 10
27.04625910902505
 20
29.331926261592752
 10
26.517905951796305
 20
29.788387131392817
 10
25.981475183529923
 20
30.235774169906065
 10
25.437130206234432
 20
30.67395109870664
 10
24.885036832663108
 20
31.102784444857324
 10
24.325363235805796
 20
31.522143581566652
 10
23.758279897661765
 20
31.93190076797918
 10
23.183959557309286
 20
32.331931188086514
 10
22.602577158287588
 20
32.722112988747504
 10
22.0143097953074
 20
33.10232731680589
 10
21.419336660306143
 20
33.47245835529414
 10
20.8178389878644
 20
33.83239335871237
 10
20.210000000000004
 20
34.1820226873718
 10
19.596004850356948
 20
34.52123984079196
 10
18.97604056780571
 20
34.84994149014185
 10
18.350295999472483
 20
35.16802750971488
 10
17.71896175321451
 20
35.475401007428125
 10
17.082230139559073
 20
35.77196835433658
 10
16.440295113123845
 20
36.057639213153465
 10
15.793352213536453
 20
36.33232656576782
 10
15.141598505871162
 20
36.595946739751106
 10
14.485232520621041
 20
36.84841943384456
 10
13.824454193223534
 20
37.089667742419806
 10
13.159464803158277
 20
37.31961817890504
 10
12.490466912635377
 20
37.53820069816972
 10
11.81766430489302
 20
37.74534871786101
 10
11.141261922123107
 20
37.940999138685456
 10
10.461465803043888
 20
38.125092363629534
 10
9.778483020138577
 20
38.29757231611359
 10
9.09252161657902
 20
38.45838645707324
 10
8.403790542853837
 20
38.60748580096331
 10
7.712499593119945
 20
38.7448249306793
 10
7.018859341297327
 20
38.870362011391855
 10
6.323081076926134
 20
38.9840588032901
 10
5.625376740805855
 20
39.08588067322978
 10
4.925958860436062
 20
39.17579660528298
 10
4.225040485278553
 20
39.253779210185755
 10
3.522835121860342
 20
39.3198047336812
 10
2.819556668737551
 20
39.37385306375527
 10
2.115419351339795
 20
39.41590773676303
 10
1.4106376567150938
 20
39.44595594244372
 10
0.7054262681949941
 20
39.46398852782277
 10
2.4750111810768008e-15
 20
39.470000000000006
 10
-0.7054262681949982
 20
39.46398852782277
 10
-1.4106376567150798
 20
39.44595594244372
 10
-2.115419351339781
 20
39.41590773676303
 10
-2.819556668737546
 20
39.37385306375527
 10
-3.522835121860346
 20
39.3198047336812
 10
-4.225040485278548
 20
39.253779210185755
 10
-4.925958860436057
 20
39.17579660528299
 10
-5.625376740805842
 20
39.08588067322979
 10
-6.3230810769261385
 20
38.98405880329009
 10
-7.018859341297323
 20
38.870362011391855
 10
-7.712499593119941
 20
38.7448249306793
 10
-8.403790542853825
 20
38.60748580096332
 10
-9.092521616579017
 20
38.45838645707324
 10
-9.778483020138573
 20
38.29757231611359
 10
-10.461465803043893
 20
38.125092363629534
 10
-11.141261922123102
 20
37.940999138685456
 10
-11.817664304893016
 20
37.74534871786102
 10
-12.490466912635371
 20
37.53820069816972
 10
-13.159464803158263
 20
37.31961817890504
 10
-13.82445419322353
 20
37.08966774241981
 10
-14.485232520621038
 20
36.84841943384456
 10
-15.141598505871167
 20
36.595946739751106
 10
-15.79335221353644
 20
36.33232656576783
 10
-16.440295113123838
 20
36.057639213153465
 10
-17.08223013955907
 20
35.771968354336586
 10
-17.718961753214515
 20
35.475401007428125
 10
-18.35029599947248
 20
35.16802750971489
 10
-18.976040567805697
 20
34.84994149014186
 10
-19.59600485035694
 20
34.52123984079196
 10
-20.20999999999999
 20
34.1820226873718
 10
-20.817838987864395
 20
33.83239335871238
 10
-21.41933666030614
 20
33.472458355294144
 10
-22.014309795307394
 20
33.10232731680589
 10
-22.60257715828758
 20
32.722112988747504
 10
-23.183959557309272
 20
32.33193118808652
 10
-23.75827989766176
 20
31.93190076797918
 10
-24.325363235805796
 20
31.52214358156665
 10
-24.885036832663108
 20
31.102784444857324
 10
-25.437130206234425
 20
30.67395109870665
 10
-25.981475183529923
 20
30.235774169906065
 10
-26.517905951796315
 20
29.788387131392806
 10
-27.04625910902505
 20
29.331926261592756
 10
-27.566373713726186
 20
28.866530602908668
 10
-28.07809133395266
 20
28.392341919366576
 10
-28.58125609556025
 20
27.909504653433036
 10
-29.075714729688283
 20
27.41816588201662
 10
-29.56131661944687
 20
26.918475271666825
 10
-30.037913845796268
 20
26.410585032984145
 10
-30.505361232604447
 20
25.894649874255325
 10
-30.96351639086909
 20
25.37082695432772
 10
-31.412239762090756
 20
24.839275834737098
 10
-31.8513946607837
 20
24.30015843110374
 10
-32.28084731611158
 20
23.753638963811344
 10
-32.70046691263537
 20
23.199883907983924
 10
-33.11012563016104
 20
22.639061942775804
 10
-33.50969868267478
 20
22.071343899990385
 10
-33.899064356354046
 20
21.496902712043116
 10
-34.27810404664274
 20
20.915913359284602
 10
-34.64670229437938
 20
20.32855281669985
 10
-35.004746820967014
 20
19.735
 10
-35.35212856257438
 20
19.13543571112293
 10
-35.68874170335782
 20
18.530042583159123
 10
-36.01448370769383
 20
17.91900502471992
 10
-36.329255351412336
 20
17.302509163764885
 10
-36.63296075202139
 20
16.680742790905413
 10
-36.925507397913925
 20
16.053895302201845
 10
-37.20680617654763
 20
15.422157641471653
 10
-37.476771401589545
 20
14.785722242126058
 10
-37.73532083901689
 20
14.144782968553
 10
-37.98237573216642
 20
13.499535057064152
 10
-38.21786082572439
 20
12.85017505642399
 10
-38.44170438865011
 20
12.19690076797918
 10
-38.65383823602589
 20
11.539911185406433
 10
-38.854197749826845
 20
10.879406434096978
 10
-39.042721898604135
 20
10.215587710196505
 10
-39.21935325607578
 20
9.548657219318887
 10
-39.38403801861921
 20
8.878818114952344
 10
-39.53672602166043
 20
8.206274436576962
 10
-39.67737075495458
 20
7.5312310475122315
 10
-39.80592937675345
 20
6.853893572513739
 10
-39.92236272685547
 20
6.1744683351379175
 10
-40.02663533853427
 20
5.4931622948937955
 10
-40.11871544934224
 20
4.810182984201174
 10
-40.19857501078561
 20
4.125738445174293
 10
-40.26618969686836
 20
3.440037166250087
 10
-40.321538911502095
 20
2.7532880186806348
 10
-40.36460579477988
 20
2.0657001929089924
 10
-40.395377228111855
 20
1.3774831348477028
 10
-40.41384383822134
 20
0.6888464820795774
 10
-40.42
 20
4.8336809162346035e-15
 10
-40.41384383822134
 20
-0.6888464820795677
 10
-40.395377228111855
 20
-1.3774831348477108
 10
-40.36460579477988
 20
-2.0657001929089827
 10
-40.3215389115021
 20
-2.7532880186806077
 10
-40.26618969686836
 20
-3.4400371662500597
 10
-40.19857501078561
 20
-4.1257384451742665
 10
-40.11871544934224
 20
-4.810182984201182
 10
-40.02663533853427
 20
-5.493162294893787
 10
-39.92236272685547
 20
-6.174468335137908
 10
-39.80592937675345
 20
-6.853893572513747
 10
-39.67737075495458
 20
-7.531231047512222
 10
-39.53672602166043
 20
-8.206274436576951
 10
-39.38403801861921
 20
-8.878818114952352
 10
-39.21935325607578
 20
-9.548657219318878
 10
-39.04272189860415
 20
-10.21558771019648
 10
-38.85419774982685
 20
-10.879406434096952
 10
-38.6538382360259
 20
-11.539911185406407
 10
-38.44170438865011
 20
-12.196900767979189
 10
-38.21786082572439
 20
-12.850175056423979
 10
-37.98237573216642
 20
-13.499535057064143
 10
-37.73532083901689
 20
-14.14478296855301
 10
-37.47677140158955
 20
-14.785722242126049
 10
-37.206806176547644
 20
-15.42215764147163
 10
-36.92550739791394
 20
-16.05389530220182
 10
-36.6329607520214
 20
-16.680742790905402
 10
-36.329255351412336
 20
-17.302509163764874
 10
-36.01448370769384
 20
-17.919005024719894
 10
-35.68874170335783
 20
-18.530042583159116
 10
-35.35212856257438
 20
-19.135435711122923
 10
-35.00474682096701
 20
-19.735000000000007
 10
-34.64670229437938
 20
-20.32855281669984
 10
-34.278104046642746
 20
-20.915913359284595
 10
-33.89906435635404
 20
-21.496902712043124
 10
-33.509698682674795
 20
-22.071343899990374
 10
-33.11012563016106
 20
-22.639061942775783
 10
-32.700466912635385
 20
-23.199883907983914
 10
-32.28084731611159
 20
-23.75363896381134
 10
-31.851394660783715
 20
-24.300158431103718
 10
-31.41223976209076
 20
-24.839275834737094
 10
-30.963516390869092
 20
-25.370826954327708
 10
-30.505361232604443
 20
-25.89464987425533
 10
-30.037913845796275
 20
-26.410585032984137
 10
-29.561316619446877
 20
-26.918475271666814
 10
-29.07571472968828
 20
-27.41816588201663
 10
-28.58125609556026
 20
-27.909504653433032
 10
-28.078091333952685
 20
-28.392341919366554
 10
-27.566373713726207
 20
-28.86653060290865
 10
-27.04625910902506
 20
-29.331926261592745
 10
-26.51790595179632
 20
-29.788387131392803
 10
-25.981475183529927
 20
-30.235774169906062
 10
-25.437130206234418
 20
-30.673951098706656
 10
-24.8850368326631
 20
-31.102784444857328
 10
-24.325363235805792
 20
-31.522143581566652
 10
-23.75827989766177
 20
-31.931900767979176
 10
-23.183959557309297
 20
-32.3319311880865
 10
-22.602577158287605
 20
-32.72211298874749
 10
-22.01430979530739
 20
-33.10232731680589
 10
-21.419336660306147
 20
-33.47245835529414
 10
-20.817838987864402
 20
-33.83239335871237
 10
-20.21000000000002
 20
-34.182022687371784
 10
-19.596004850356938
 20
-34.521239840791964
 10
-18.976040567805704
 20
-34.84994149014185
 10
-18.350295999472486
 20
-35.16802750971488
 10
-17.718961753214522
 20
-35.47540100742812
 10
-17.082230139559094
 20
-35.77196835433657
 10
-16.44029511312384
 20
-36.057639213153465
 10
-15.79335221353645
 20
-36.33232656576782
 10
-15.141598505871176
 20
-36.5959467397511
 10
-14.485232520621055
 20
-36.848419433844555
 10
-13.824454193223557
 20
-37.089667742419806
 10
-13.159464803158272
 20
-37.31961817890504
 10
-12.49046691263538
 20
-37.53820069816972
 10
-11.817664304893034
 20
-37.74534871786101
 10
-11.141261922123096
 20
-37.940999138685456
 10
-10.461465803043884
 20
-38.125092363629534
 10
-9.778483020138573
 20
-38.29757231611359
 10
-9.092521616579035
 20
-38.45838645707324
 10
-8.403790542853852
 20
-38.60748580096331
 10
-7.7124995931199685
 20
-38.7448249306793
 10
-7.018859341297325
 20
-38.870362011391855
 10
-6.3230810769261385
 20
-38.98405880329009
 10
-5.625376740805825
 20
-39.08588067322979
 10
-4.925958860436049
 20
-39.17579660528299
 10
-4.225040485278549
 20
-39.253779210185755
 10
-3.5228351218603464
 20
-39.3198047336812
 10
-2.819556668737556
 20
-39.37385306375527
 10
-2.115419351339809
 20
-39.41590773676303
 10
-1.4106376567151167
 20
-39.44595594244371
 10
-0.705426268194999
 20
-39.46398852782277
 10
-7.425033543230402e-15
 20
-39.470000000000006
 10
0.7054262681949841
 20
-39.46398852782277
 10
1.4106376567151018
 20
-39.44595594244372
 10
2.1154193513397943
 20
-39.41590773676303
 10
2.8195566687375413
 20
-39.37385306375527
 10
3.522835121860332
 20
-39.3198047336812
 10
4.225040485278534
 20
-39.253779210185755
 10
4.92595886043607
 20
-39.17579660528298
 10
5.625376740805846
 20
-39.08588067322979
 10
6.323081076926124
 20
-38.9840588032901
 10
7.0188593412973095
 20
-38.87036201139186
 10
7.712499593119919
 20
-38.74482493067931
 10
8.403790542853802
 20
-38.60748580096332
 10
9.09252161657902
 20
-38.45838645707324
 10
9.778483020138559
 20
-38.29757231611359
 10
10.461465803043904
 20
-38.12509236362953
 10
11.141261922123116
 20
-37.94099913868545
 10
11.817664304893018
 20
-37.74534871786101
 10
12.490466912635368
 20
-37.53820069816972
 10
13.159464803158258
 20
-37.319618178905046
 10
13.824454193223508
 20
-37.08966774241981
 10
14.485232520621008
 20
-36.84841943384457
 10
15.141598505871162
 20
-36.595946739751106
 10
15.793352213536435
 20
-36.33232656576783
 10
16.44029511312386
 20
-36.05763921315346
 10
17.08223013955908
 20
-35.77196835433658
 10
17.718961753214508
 20
-35.475401007428125
 10
18.350295999472475
 20
-35.16802750971489
 10
18.97604056780569
 20
-34.84994149014186
 10
19.596004850356923
 20
-34.52123984079197
 10
20.210000000000004
 20
-34.1820226873718
 10
20.81783898786439
 20
-33.83239335871238
 10
21.419336660306133
 20
-33.472458355294144
 10
22.014309795307376
 20
-33.1023273168059
 10
22.602577158287563
 20
-32.72211298874752
 10
23.183959557309283
 20
-32.331931188086514
 10
23.758279897661755
 20
-31.931900767979187
 10
24.325363235805778
 20
-31.522143581566663
 10
24.88503683266312
 20
-31.102784444857313
 10
25.437130206234432
 20
-30.67395109870664
 10
25.981475183529916
 20
-30.235774169906072
 10
26.517905951796298
 20
-29.788387131392824
 10
27.046259109025033
 20
-29.33192626159277
 10
27.566373713726172
 20
-28.866530602908686
 10
28.078091333952642
 20
-28.39234191936659
 10
28.581256095560246
 20
-27.909504653433043
 10
29.07571472968827
 20
-27.418165882016638
 10
29.56131661944688
 20
-26.91847527166681
 10
30.037913845796275
 20
-26.410585032984134
 10
30.505361232604443
 20
-25.89464987425533
 10
30.963516390869085
 20
-25.370826954327722
 10
31.412239762090753
 20
-24.8392758347371
 10
31.851394660783686
 20
-24.300158431103757
 10
32.280847316111576
 20
-23.753638963811348
 10
32.70046691263537
 20
-23.199883907983928
 10
33.11012563016104
 20
-22.639061942775808
 10
33.509698682674774
 20
-22.071343899990403
 10
33.89906435635404
 20
-21.496902712043116
 10
34.27810404664272
 20
-20.915913359284637
 10
34.646702294379374
 20
-20.328552816699855
 10
35.004746820967
 20
-19.73500000000002
 10
35.35212856257438
 20
-19.13543571112292
 10
35.68874170335783
 20
-18.530042583159112
 10
36.01448370769383
 20
-17.919005024719922
 10
36.329255351412336
 20
-17.30250916376487
 10
36.63296075202138
 20
-16.68074279090543
 10
36.92550739791393
 20
-16.053895302201834
 10
37.20680617654762
 20
-15.422157641471676
 10
37.476771401589545
 20
-14.785722242126063
 10
37.735320839016886
 20
-14.144782968553024
 10
37.98237573216642
 20
-13.499535057064142
 10
38.21786082572437
 20
-12.85017505642401
 10
38.44170438865011
 20
-12.196900767979184
 10
38.653838236025905
 20
-11.539911185406403
 10
38.854197749826845
 20
-10.879406434096984
 10
39.04272189860414
 20
-10.215587710196493
 10
39.21935325607578
 20
-9.548657219318892
 10
39.38403801861921
 20
-8.878818114952367
 10
39.53672602166042
 20
-8.206274436576983
 10
39.67737075495458
 20
-7.531231047512219
 10
39.80592937675345
 20
-6.853893572513779
 10
39.92236272685547
 20
-6.174468335137923
 10
40.02663533853427
 20
-5.493162294893801
 10
40.11871544934224
 20
-4.810182984201197
 10
40.19857501078561
 20
-4.125738445174281
 10
40.26618969686836
 20
-3.4400371662500744
 10
40.3215389115021
 20
-2.7532880186806046
 10
40.36460579477988
 20
-2.0657001929090146
 10
40.395377228111855
 20
-1.3774831348477077
 10
40.41384383822134
 20
-0.6888464820796173
 10
40.42
 20
0.0
  0
CIRCLE
  5
30
330
17
100
AcDbEntity
  8
BEARING
100
AcDbCircle
 10
0.0
 20
0.0
 30
0.0
 40
21.0
  0
CIRCLE
  5
31
330
17
100
AcDbEntity
  8
HUB
100
AcDbCircle
 10
0.0
 20
0.0
 30
0.0
 40
15.0
  0
CIRCLE
  5
32
330
17
100
AcDbEntity
  8
BORE
100
AcDbCircle
 10
0.0
 20
0.0
 30
0.0
 40
5.0
  0
ENDSEC
  0
SECTION
  2
OBJECTS
  0
DICTIONARY
  5
A
330
0
100
AcDbDictionary
281
1
  3
ACAD_COLOR
350
B
  3
ACAD_GROUP
350
C
  3
ACAD_LAYOUT
350
D
  3
ACAD_MATERIAL
350
E
  3
ACAD_MLEADERSTYLE
350
F
  3
ACAD_MLINESTYLE
350
10
  3
ACAD_PLOTSETTINGS
350
11
  3
ACAD_PLOTSTYLENAME
350
12
  3
ACAD_SCALELIST
350
14
  3
ACAD_TABLESTYLE
350
15
  3
ACAD_VISUALSTYLE
350
16
  3
EZDXF_META
350
2D
  0
DICTIONARY
  5
B
330
A
100
AcDbDictionary
281
1
  0
DICTIONARY
  5
C
330
A
100
AcDbDictionary
281
1
  0
DICTIONARY
  5
D
330
A
100
AcDbDictionary
281
1
  3
Model
350
1A
  3
Layout1
350
1E
  0
DICTIONARY
  5
E
330
A
100
AcDbDictionary
281
1
  3
ByBlock
350
1F
  3
ByLayer
350
20
  3
Global
350
21
  0
DICTIONARY
  5
F
330
A
100
AcDbDictionary
281
1
  3
Standard
350
2C
  0
DICTIONARY
  5
10
330
A
100
AcDbDictionary
281
1
  3
Standard
350
22
  0
DICTIONARY
  5
11
330
A
100
AcDbDictionary
281
1
  0
ACDBDICTIONARYWDFLT
  5
12
330
A
100
AcDbDictionary
281
1
  3
Normal
350
13
100
AcDbDictionaryWithDefault
340
13
  0
ACDBPLACEHOLDER
  5
13
330
12
  0
DICTIONARY
  5
14
330
A
100
AcDbDictionary
281
1
  0
DICTIONARY
  5
15
330
A
100
AcDbDictionary
281
1
  0
DICTIONARY
  5
16
330
A
100
AcDbDictionary
281
1
  0
LAYOUT
  5
1A
330
D
100
AcDbPlotSettings
  1

  4
A3
  6

 40
7.5
 41
20.0
 42
7.5
 43
20.0
 44
420.0
 45
297.0
 46
0.0
 47
0.0
 48
0.0
 49
0.0
140
0.0
141
0.0
142
1.0
143
1.0
 70
1024
 72
1
 73
0
 74
5
  7

 75
16
 76
0
 77
2
 78
300
147
1.0
148
0.0
149
0.0
100
AcDbLayout
  1
Model
 70
1
 71
0
 10
0.0
 20
0.0
 11
420.0
 21
297.0
 12
0.0
 22
0.0
 32
0.0
 14
1e+20
 24
1e+20
 34
1e+20
 15
-1e+20
 25
-1e+20
 35
-1e+20
146
0.0
 13
0.0
 23
0.0
 33
0.0
 16
1.0
 26
0.0
 36
0.0
 17
0.0
 27
1.0
 37
0.0
 76
1
330
17
  0
LAYOUT
  5
1E
330
D
100
AcDbPlotSettings
  1

  4
A3
  6

 40
7.5
 41
20.0
 42
7.5
 43
20.0
 44
420.0
 45
297.0
 46
0.0
 47
0.0
 48
0.0
 49
0.0
140
0.0
141
0.0
142
1.0
143
1.0
 70
0
 72
1
 73
0
 74
5
  7

 75
16
 76
0
 77
2
 78
300
147
1.0
148
0.0
149
0.0
100
AcDbLayout
  1
Layout1
 70
1
 71
1
 10
0.0
 20
0.0
 11
420.0
 21
297.0
 12
0.0
 22
0.0
 32
0.0
 14
1e+20
 24
1e+20
 34
1e+20
 15
-1e+20
 25
-1e+20
 35
-1e+20
146
0.0
 13
0.0
 23
0.0
 33
0.0
 16
1.0
 26
0.0
 36
0.0
 17
0.0
 27
1.0
 37
0.0
 76
1
330
1B
  0
MATERIAL
  5
1F
102
{ACAD_REACTORS
330
E
102
}
330
E
100
AcDbMaterial
  1
ByBlock
  2

 70
0
 40
1.0
 71
1
 41
1.0
 91
-1023410177
 42
1.0
 72
1
  3

 73
1
 74
1
 75
1
 44
0.5
 73
0
 45
1.0
 46
1.0
 77
1
  4

 78
1
 79
1
170
1
 48
1.0
171
1
  6

172
1
173
1
174
1
140
1.0
141
1.0
175
1
  7

176
1
177
1
178
1
143
1.0
179
1
  8

270
1
271
1
272
1
145
1.0
146
1.0
273
1
  9

274
1
275
1
276
1
 42
1.0
 72
1
  3

 73
1
 74
1
 75
1
 94
63
  0
MATERIAL
  5
20
102
{ACAD_REACTORS
330
E
102
}
330
E
100
AcDbMaterial
  1
ByLayer
  2

 70
0
 40
1.0
 71
1
 41
1.0
 91
-1023410177
 42
1.0
 72
1
  3

 73
1
 74
1
 75
1
 44
0.5
 73
0
 45
1.0
 46
1.0
 77
1
  4

 78
1
 79
1
170
1
 48
1.0
171
1
  6

172
1
173
1
174
1
140
1.0
141
1.0
175
1
  7

176
1
177
1
178
1
143
1.0
179
1
  8

270
1
271
1
272
1
145
1.0
146
1.0
273
1
  9

274
1
275
1
276
1
 42
1.0
 72
1
  3

 73
1
 74
1
 75
1
 94
63
  0
MATERIAL
  5
21
102
{ACAD_REACTORS
330
E
102
}
330
E
100
AcDbMaterial
  1
Global
  2

 70
0
 40
1.0
 71
1
 41
1.0
 91
-1023410177
 42
1.0
 72
1
  3

 73
1
 74
1
 75
1
 44
0.5
 73
0
 45
1.0
 46
1.0
 77
1
  4

 78
1
 79
1
170
1
 48
1.0
171
1
  6

172
1
173
1
174
1
140
1.0
141
1.0
175
1
  7

176
1
177
1
178
1
143
1.0
179
1
  8

270
1
271
1
272
1
145
1.0
146
1.0
273
1
  9

274
1
275
1
276
1
 42
1.0
 72
1
  3

 73
1
 74
1
 75
1
 94
63
  0
MLINESTYLE
  5
22
102
{ACAD_REACTORS
330
10
102
}
330
10
100
AcDbMlineStyle
  2
Standard
 70
0
  3

 62
256
 51
90.0
 52
90.0
 71
2
 49
0.5
 62
256
  6
BYLAYER
 49
-0.5
 62
256
  6
BYLAYER
  0
MLEADERSTYLE
  5
2C
102
{ACAD_REACTORS
330
F
102
}
330
F
100
AcDbMLeaderStyle
179
2
170
2
171
1
172
0
 90
2
 40
0.0
 41
0.0
173
1
 91
-1056964608
 92
-2
290
1
 42
2.0
291
1
 43
8.0
  3
Standard
 44
4.0
300

342
29
174
1
175
1
176
0
178
1
 93
-1056964608
 45
4.0
292
0
297
0
 46
4.0
 94
-1056964608
 47
1.0
 49
1.0
140
1.0
294
1
141
0.0
177
0
142
1.0
295
0
296
0
143
3.75
271
0
272
9
273
9
  0
DICTIONARY
  5
2D
330
A
100
AcDbDictionary
280
1
281
1
  3
CREATED_BY_EZDXF
350
2E
  3
WRITTEN_BY_EZDXF
350
35
  0
DICTIONARYVAR
  5
2E
330
2D
100
DictionaryVariables
280
0
  1
1.4.3 @ 2026-02-03T06:53:28.926753+00:00
  0
DICTIONARYVAR
  5
35
330
2D
100
DictionaryVariables
280
0
  1
1.4.3 @ 2026-02-03T06:53:28.929746+00:00
  0
ENDSEC
  0
EOF
