<?xml version="1.0" encoding="utf-8" standalone="no"?>
<!DOCTYPE svg PUBLIC "-//W3C//DTD SVG 1.1//EN"
  "http://www.w3.org/Graphics/SVG/1.1/DTD/svg11.dtd">
<svg xmlns:xlink="http://www.w3.org/1999/xlink" width="332.926395pt" height="342.077812pt" viewBox="0 0 332.926395 342.077812" xmlns="http://www.w3.org/2000/svg" version="1.1">
 <metadata>
  <rdf:RDF xmlns:dc="http://purl.org/dc/elements/1.1/" xmlns:cc="http://creativecommons.org/ns#" xmlns:rdf="http://www.w3.org/1999/02/22-rdf-syntax-ns#">
   <cc:Work>
    <dc:type rdf:resource="http://purl.org/dc/dcmitype/StillImage"/>
    <dc:date>2026-02-03T06:54:46.664421</dc:date>
    <dc:format>image/svg+xml</dc:format>
    <dc:creator>
     <cc:Agent>
      <dc:title>Matplotlib v3.10.8, https://matplotlib.org/</dc:title>
     </cc:Agent>
    </dc:creator>
   </cc:Work>
  </rdf:RDF>
 </metadata>
 <defs>
  <style type="text/css">*{stroke-linejoin: round; stroke-linecap: butt}</style>
 </defs>
 <g id="figure_1">
  <g id="patch_1">
   <path d="M 0 342.077812 
L 332.926395 342.077812 
L 332.926395 0 
L 0 0 
z
" style="fill: #ffffff"/>
  </g>
  <g id="axes_1">
   <g id="patch_2">
    <path d="M 7.2 334.877813 
L 325.726395 334.877813 
L 325.726395 23.837812 
L 7.2 23.837812 
z
" style="fill: #ffffff"/>
   </g>
   <g id="patch_3">
    <path d="M 311.247922 179.357812 
L 311.159723 174.423658 
L 310.895234 169.495515 
L 310.454776 164.579388 
L 309.838887 159.681266 
L 309.048317 154.807117 
L 308.084029 149.96288 
L 306.947197 145.154455 
L 305.639208 140.387702 
L 304.161653 135.668428 
L 302.516335 131.002383 
L 300.705257 126.395251 
L 298.730625 121.852646 
L 296.594846 117.380103 
L 294.300522 112.983069 
L 291.850447 108.666903 
L 289.247608 104.436863 
L 286.495174 100.298103 
L 283.5965 96.255665 
L 280.555118 92.314474 
L 277.374731 88.479332 
L 274.059216 84.754911 
L 270.612612 81.145749 
L 267.039118 77.656244 
L 263.343088 74.290646 
L 259.529025 71.053056 
L 255.601575 67.947419 
L 251.565523 64.977519 
L 247.425788 62.146973 
L 243.187412 59.459231 
L 238.85556 56.917566 
L 234.435508 54.525076 
L 229.932643 52.284676 
L 225.35245 50.199095 
L 220.70051 48.270873 
L 215.98249 46.502361 
L 211.204138 44.895713 
L 206.371276 43.452886 
L 201.489792 42.175639 
L 196.565634 41.065526 
L 191.604801 40.123902 
L 186.613336 39.351912 
L 181.597322 38.750499 
L 176.562869 38.320393 
L 171.516111 38.06212 
L 166.463197 37.975994 
L 161.410283 38.06212 
L 156.363526 38.320393 
L 151.329073 38.750499 
L 146.313058 39.351912 
L 141.321594 40.123902 
L 136.36076 41.065526 
L 131.436602 42.175639 
L 126.555119 43.452886 
L 121.722257 44.895713 
L 116.943905 46.502361 
L 112.225885 48.270873 
L 107.573944 50.199095 
L 102.993751 52.284676 
L 98.490886 54.525076 
L 94.070835 56.917566 
L 89.738982 59.459231 
L 85.500607 62.146973 
L 81.360871 64.977519 
L 77.32482 67.947419 
L 73.39737 71.053056 
L 69.583307 74.290646 
L 65.887276 77.656244 
L 62.313782 81.145749 
L 58.867178 84.754911 
L 55.551663 88.479332 
L 52.371277 92.314474 
L 49.329894 96.255665 
L 46.431221 100.298103 
L 43.678787 104.436863 
L 41.075948 108.666903 
L 38.625873 112.983069 
L 36.331549 117.380103 
L 34.19577 121.852646 
L 32.221138 126.395251 
L 30.41006 131.002383 
L 28.764741 135.668428 
L 27.287187 140.387702 
L 25.979198 145.154455 
L 24.842366 149.96288 
L 23.878078 154.807117 
L 23.087507 159.681266 
L 22.471618 164.579388 
L 22.031161 169.495515 
L 21.766671 174.423658 
L 21.678472 179.357812 
L 21.766671 184.291967 
L 22.031161 189.22011 
L 22.471618 194.136237 
L 23.087507 199.034359 
L 23.878078 203.908508 
L 24.842366 208.752745 
L 25.979198 213.56117 
L 27.287187 218.327923 
L 28.764741 223.047197 
L 30.41006 227.713242 
L 32.221138 232.320374 
L 34.19577 236.862979 
L 36.331549 241.335522 
L 38.625873 245.732556 
L 41.075948 250.048722 
L 43.678787 254.278762 
L 46.431221 258.417522 
L 49.329894 262.45996 
L 52.371277 266.401151 
L 55.551663 270.236293 
L 58.867178 273.960714 
L 62.313782 277.569876 
L 65.887276 281.059381 
L 69.583307 284.424979 
L 73.39737 287.662569 
L 77.32482 290.768206 
L 81.360871 293.738106 
L 85.500607 296.568652 
L 89.738982 299.256394 
L 94.070835 301.798059 
L 98.490886 304.190549 
L 102.993751 306.430949 
L 107.573944 308.51653 
L 112.225885 310.444752 
L 116.943905 312.213264 
L 121.722257 313.819912 
L 126.555119 315.262739 
L 131.436602 316.539986 
L 136.36076 317.650099 
L 141.321594 318.591723 
L 146.313058 319.363713 
L 151.329073 319.965126 
L 156.363526 320.395232 
L 161.410283 320.653505 
L 166.463197 320.739631 
L 171.516111 320.653505 
L 176.562869 320.395232 
L 181.597322 319.965126 
L 186.613336 319.363713 
L 191.604801 318.591723 
L 196.565634 317.650099 
L 201.489792 316.539986 
L 206.371276 315.262739 
L 211.204138 313.819912 
L 215.98249 312.213264 
L 220.70051 310.444752 
L 225.35245 308.51653 
L 229.932643 306.430949 
L 234.435508 304.190549 
L 238.85556 301.798059 
L 243.187412 299.256394 
L 247.425788 296.568652 
L 251.565523 293.738106 
L 255.601575 290.768206 
L 259.529025 287.662569 
L 263.343088 284.424979 
L 267.039118 281.059381 
L 270.612612 277.569876 
L 274.059216 273.960714 
L 277.374731 270.236293 
L 280.555118 266.401151 
L 283.5965 262.45996 
L 286.495174 258.417522 
L 289.247608 254.278762 
L 291.850447 250.048722 
L 294.300522 245.732556 
L 296.594846 241.335522 
L 298.730625 236.862979 
L 300.705257 232.320374 
L 302.516335 227.713242 
L 304.161653 223.047197 
L 305.639208 218.327923 
L 306.947197 213.56117 
L 308.084029 208.752745 
L 309.048317 203.908508 
L 309.838887 199.034359 
L 310.454776 194.136237 
L 310.895234 189.22011 
L 311.159723 184.291967 
L 311.247922 179.357812 
L 311.247922 179.357812 
" clip-path="url(#p1141be5de0)" style="fill: none; stroke: #ffffff; stroke-width: 0.72; stroke-linejoin: miter"/>
   </g>
   <g id="patch_4">
    <path d="M 241.685345 179.357812 
C 241.685345 220.901858 208.007243 254.579961 166.463197 254.579961 
C 124.919152 254.579961 91.241049 220.901858 91.241049 179.357812 
C 91.241049 137.813767 124.919152 104.135664 166.463197 104.135664 
C 208.007243 104.135664 241.685345 137.813767 241.685345 179.357812 
" clip-path="url(#p1141be5de0)" style="fill: none; stroke: #ffffff; stroke-width: 0.72; stroke-linejoin: miter"/>
   </g>
   <g id="patch_5">
    <path d="M 220.193303 179.357812 
C 220.193303 209.03213 196.137515 233.087918 166.463197 233.087918 
C 136.788879 233.087918 112.733092 209.03213 112.733092 179.357812 
C 112.733092 149.683495 136.788879 125.627707 166.463197 125.627707 
C 196.137515 125.627707 220.193303 149.683495 220.193303 179.357812 
" clip-path="url(#p1141be5de0)" style="fill: none; stroke: #ffffff; stroke-width: 0.72; stroke-linejoin: miter"/>
   </g>
   <g id="patch_6">
    <path d="M 184.373233 179.357812 
C 184.373233 189.249252 176.354637 197.267848 166.463197 197.267848 
C 156.571758 197.267848 148.553162 189.249252 148.553162 179.357812 
C 148.553162 169.466373 156.571758 161.447777 166.463197 161.447777 
C 176.354637 161.447777 184.373233 169.466373 184.373233 179.357812 
" clip-path="url(#p1141be5de0)" style="fill: none; stroke: #ffffff; stroke-width: 0.72; stroke-linejoin: miter"/>
   </g>
   <g id="text_1">
    <!-- Wave Generator - Elliptical Cam -->
    <g transform="translate(41.135854 17.837812) scale(0.14 -0.14)">
     <defs>
      <path id="DejaVuSans-Bold-57" d="M 191 4666 
L 1344 4666 
L 2150 1275 
L 2950 4666 
L 4109 4666 
L 4909 1275 
L 5716 4666 
L 6859 4666 
L 5759 0 
L 4372 0 
L 3525 3547 
L 2688 0 
L 1300 0 
L 191 4666 
z
" transform="scale(0.015625)"/>
      <path id="DejaVuSans-Bold-61" d="M 2106 1575 
Q 1756 1575 1579 1456 
Q 1403 1338 1403 1106 
Q 1403 894 1545 773 
Q 1688 653 1941 653 
Q 2256 653 2472 879 
Q 2688 1106 2688 1447 
L 2688 1575 
L 2106 1575 
z
M 3816 1997 
L 3816 0 
L 2688 0 
L 2688 519 
Q 2463 200 2181 54 
Q 1900 -91 1497 -91 
Q 953 -91 614 226 
Q 275 544 275 1050 
Q 275 1666 698 1953 
Q 1122 2241 2028 2241 
L 2688 2241 
L 2688 2328 
Q 2688 2594 2478 2717 
Q 2269 2841 1825 2841 
Q 1466 2841 1156 2769 
Q 847 2697 581 2553 
L 581 3406 
Q 941 3494 1303 3539 
Q 1666 3584 2028 3584 
Q 2975 3584 3395 3211 
Q 3816 2838 3816 1997 
z
" transform="scale(0.015625)"/>
      <path id="DejaVuSans-Bold-76" d="M 97 3500 
L 1216 3500 
L 2088 1081 
L 2956 3500 
L 4078 3500 
L 2700 0 
L 1472 0 
L 97 3500 
z
" transform="scale(0.015625)"/>
      <path id="DejaVuSans-Bold-65" d="M 4031 1759 
L 4031 1441 
L 1416 1441 
Q 1456 1047 1700 850 
Q 1944 653 2381 653 
Q 2734 653 3104 758 
Q 3475 863 3866 1075 
L 3866 213 
Q 3469 63 3072 -14 
Q 2675 -91 2278 -91 
Q 1328 -91 801 392 
Q 275 875 275 1747 
Q 275 2603 792 3093 
Q 1309 3584 2216 3584 
Q 3041 3584 3536 3087 
Q 4031 2591 4031 1759 
z
M 2881 2131 
Q 2881 2450 2695 2645 
Q 2509 2841 2209 2841 
Q 1884 2841 1681 2658 
Q 1478 2475 1428 2131 
L 2881 2131 
z
" transform="scale(0.015625)"/>
      <path id="DejaVuSans-Bold-20" transform="scale(0.015625)"/>
      <path id="DejaVuSans-Bold-47" d="M 4781 347 
Q 4331 128 3847 18 
Q 3363 -91 2847 -91 
Q 1681 -91 1000 561 
Q 319 1213 319 2328 
Q 319 3456 1012 4103 
Q 1706 4750 2913 4750 
Q 3378 4750 3804 4662 
Q 4231 4575 4609 4403 
L 4609 3438 
Q 4219 3659 3833 3768 
Q 3447 3878 3059 3878 
Q 2341 3878 1952 3476 
Q 1563 3075 1563 2328 
Q 1563 1588 1938 1184 
Q 2313 781 3003 781 
Q 3191 781 3352 804 
Q 3513 828 3641 878 
L 3641 1784 
L 2906 1784 
L 2906 2591 
L 4781 2591 
L 4781 347 
z
" transform="scale(0.015625)"/>
      <path id="DejaVuSans-Bold-6e" d="M 4056 2131 
L 4056 0 
L 2931 0 
L 2931 347 
L 2931 1631 
Q 2931 2084 2911 2256 
Q 2891 2428 2841 2509 
Q 2775 2619 2662 2680 
Q 2550 2741 2406 2741 
Q 2056 2741 1856 2470 
Q 1656 2200 1656 1722 
L 1656 0 
L 538 0 
L 538 3500 
L 1656 3500 
L 1656 2988 
Q 1909 3294 2193 3439 
Q 2478 3584 2822 3584 
Q 3428 3584 3742 3212 
Q 4056 2841 4056 2131 
z
" transform="scale(0.015625)"/>
      <path id="DejaVuSans-Bold-72" d="M 3138 2547 
Q 2991 2616 2845 2648 
Q 2700 2681 2553 2681 
Q 2122 2681 1889 2404 
Q 1656 2128 1656 1613 
L 1656 0 
L 538 0 
L 538 3500 
L 1656 3500 
L 1656 2925 
Q 1872 3269 2151 3426 
Q 2431 3584 2822 3584 
Q 2878 3584 2943 3579 
Q 3009 3575 3134 3559 
L 3138 2547 
z
" transform="scale(0.015625)"/>
      <path id="DejaVuSans-Bold-74" d="M 1759 4494 
L 1759 3500 
L 2913 3500 
L 2913 2700 
L 1759 2700 
L 1759 1216 
Q 1759 972 1856 886 
Q 1953 800 2241 800 
L 2816 800 
L 2816 0 
L 1856 0 
Q 1194 0 917 276 
Q 641 553 641 1216 
L 641 2700 
L 84 2700 
L 84 3500 
L 641 3500 
L 641 4494 
L 1759 4494 
z
" transform="scale(0.015625)"/>
      <path id="DejaVuSans-Bold-6f" d="M 2203 2784 
Q 1831 2784 1636 2517 
Q 1441 2250 1441 1747 
Q 1441 1244 1636 976 
Q 1831 709 2203 709 
Q 2569 709 2762 976 
Q 2956 1244 2956 1747 
Q 2956 2250 2762 2517 
Q 2569 2784 2203 2784 
z
M 2203 3584 
Q 3106 3584 3614 3096 
Q 4122 2609 4122 1747 
Q 4122 884 3614 396 
Q 3106 -91 2203 -91 
Q 1297 -91 786 396 
Q 275 884 275 1747 
Q 275 2609 786 3096 
Q 1297 3584 2203 3584 
z
" transform="scale(0.015625)"/>
      <path id="DejaVuSans-Bold-2d" d="M 347 2297 
L 2309 2297 
L 2309 1388 
L 347 1388 
L 347 2297 
z
" transform="scale(0.015625)"/>
      <path id="DejaVuSans-Bold-45" d="M 588 4666 
L 3834 4666 
L 3834 3756 
L 1791 3756 
L 1791 2888 
L 3713 2888 
L 3713 1978 
L 1791 1978 
L 1791 909 
L 3903 909 
L 3903 0 
L 588 0 
L 588 4666 
z
" transform="scale(0.015625)"/>
      <path id="DejaVuSans-Bold-6c" d="M 538 4863 
L 1656 4863 
L 1656 0 
L 538 0 
L 538 4863 
z
" transform="scale(0.015625)"/>
      <path id="DejaVuSans-Bold-69" d="M 538 3500 
L 1656 3500 
L 1656 0 
L 538 0 
L 538 3500 
z
M 538 4863 
L 1656 4863 
L 1656 3950 
L 538 3950 
L 538 4863 
z
" transform="scale(0.015625)"/>
      <path id="DejaVuSans-Bold-70" d="M 1656 506 
L 1656 -1331 
L 538 -1331 
L 538 3500 
L 1656 3500 
L 1656 2988 
Q 1888 3294 2169 3439 
Q 2450 3584 2816 3584 
Q 3463 3584 3878 3070 
Q 4294 2556 4294 1747 
Q 4294 938 3878 423 
Q 3463 -91 2816 -91 
Q 2450 -91 2169 54 
Q 1888 200 1656 506 
z
M 2400 2772 
Q 2041 2772 1848 2508 
Q 1656 2244 1656 1747 
Q 1656 1250 1848 986 
Q 2041 722 2400 722 
Q 2759 722 2948 984 
Q 3138 1247 3138 1747 
Q 3138 2247 2948 2509 
Q 2759 2772 2400 2772 
z
" transform="scale(0.015625)"/>
      <path id="DejaVuSans-Bold-63" d="M 3366 3391 
L 3366 2478 
Q 3138 2634 2908 2709 
Q 2678 2784 2431 2784 
Q 1963 2784 1702 2511 
Q 1441 2238 1441 1747 
Q 1441 1256 1702 982 
Q 1963 709 2431 709 
Q 2694 709 2930 787 
Q 3166 866 3366 1019 
L 3366 103 
Q 3103 6 2833 -42 
Q 2563 -91 2291 -91 
Q 1344 -91 809 395 
Q 275 881 275 1747 
Q 275 2613 809 3098 
Q 1344 3584 2291 3584 
Q 2566 3584 2833 3536 
Q 3100 3488 3366 3391 
z
" transform="scale(0.015625)"/>
      <path id="DejaVuSans-Bold-43" d="M 4288 256 
Q 3956 84 3597 -3 
Q 3238 -91 2847 -91 
Q 1681 -91 1000 561 
Q 319 1213 319 2328 
Q 319 3447 1000 4098 
Q 1681 4750 2847 4750 
Q 3238 4750 3597 4662 
Q 3956 4575 4288 4403 
L 4288 3438 
Q 3953 3666 3628 3772 
Q 3303 3878 2944 3878 
Q 2300 3878 1931 3465 
Q 1563 3053 1563 2328 
Q 1563 1606 1931 1193 
Q 2300 781 2944 781 
Q 3303 781 3628 887 
Q 3953 994 4288 1222 
L 4288 256 
z
" transform="scale(0.015625)"/>
      <path id="DejaVuSans-Bold-6d" d="M 3781 2919 
Q 3994 3244 4286 3414 
Q 4578 3584 4928 3584 
Q 5531 3584 5847 3212 
Q 6163 2841 6163 2131 
L 6163 0 
L 5038 0 
L 5038 1825 
Q 5041 1866 5042 1909 
Q 5044 1953 5044 2034 
Q 5044 2406 4934 2573 
Q 4825 2741 4581 2741 
Q 4263 2741 4089 2478 
Q 3916 2216 3909 1719 
L 3909 0 
L 2784 0 
L 2784 1825 
Q 2784 2406 2684 2573 
Q 2584 2741 2328 2741 
Q 2006 2741 1831 2477 
Q 1656 2213 1656 1722 
L 1656 0 
L 531 0 
L 531 3500 
L 1656 3500 
L 1656 2988 
Q 1863 3284 2130 3434 
Q 2397 3584 2719 3584 
Q 3081 3584 3359 3409 
Q 3638 3234 3781 2919 
z
" transform="scale(0.015625)"/>
     </defs>
     <use xlink:href="#DejaVuSans-Bold-57"/>
     <use xlink:href="#DejaVuSans-Bold-61" transform="translate(106.677734 0)"/>
     <use xlink:href="#DejaVuSans-Bold-76" transform="translate(174.158203 0)"/>
     <use xlink:href="#DejaVuSans-Bold-65" transform="translate(239.34375 0)"/>
     <use xlink:href="#DejaVuSans-Bold-20" transform="translate(307.166016 0)"/>
     <use xlink:href="#DejaVuSans-Bold-47" transform="translate(341.980469 0)"/>
     <use xlink:href="#DejaVuSans-Bold-65" transform="translate(424.060547 0)"/>
     <use xlink:href="#DejaVuSans-Bold-6e" transform="translate(491.882812 0)"/>
     <use xlink:href="#DejaVuSans-Bold-65" transform="translate(563.074219 0)"/>
     <use xlink:href="#DejaVuSans-Bold-72" transform="translate(630.896484 0)"/>
     <use xlink:href="#DejaVuSans-Bold-61" transform="translate(680.212891 0)"/>
     <use xlink:href="#DejaVuSans-Bold-74" transform="translate(747.693359 0)"/>
     <use xlink:href="#DejaVuSans-Bold-6f" transform="translate(795.496094 0)"/>
     <use xlink:href="#DejaVuSans-Bold-72" transform="translate(864.197266 0)"/>
     <use xlink:href="#DejaVuSans-Bold-20" transform="translate(913.513672 0)"/>
     <use xlink:href="#DejaVuSans-Bold-2d" transform="translate(948.328125 0)"/>
     <use xlink:href="#DejaVuSans-Bold-20" transform="translate(989.832031 0)"/>
     <use xlink:href="#DejaVuSans-Bold-45" transform="translate(1024.646484 0)"/>
     <use xlink:href="#DejaVuSans-Bold-6c" transform="translate(1092.957031 0)"/>
     <use xlink:href="#DejaVuSans-Bold-6c" transform="translate(1127.234375 0)"/>
     <use xlink:href="#DejaVuSans-Bold-69" transform="translate(1161.511719 0)"/>
     <use xlink:href="#DejaVuSans-Bold-70" transform="translate(1195.789062 0)"/>
     <use xlink:href="#DejaVuSans-Bold-74" transform="translate(1267.371094 0)"/>
     <use xlink:href="#DejaVuSans-Bold-69" transform="translate(1315.173828 0)"/>
     <use xlink:href="#DejaVuSans-Bold-63" transform="translate(1349.451172 0)"/>
     <use xlink:href="#DejaVuSans-Bold-61" transform="translate(1408.728516 0)"/>
     <use xlink:href="#DejaVuSans-Bold-6c" transform="translate(1476.208984 0)"/>
     <use xlink:href="#DejaVuSans-Bold-20" transform="translate(1510.486328 0)"/>
     <use xlink:href="#DejaVuSans-Bold-43" transform="translate(1545.300781 0)"/>
     <use xlink:href="#DejaVuSans-Bold-61" transform="translate(1618.689453 0)"/>
     <use xlink:href="#DejaVuSans-Bold-6d" transform="translate(1686.169922 0)"/>
    </g>
   </g>
  </g>
 </g>
 <defs>
  <clipPath id="p1141be5de0">
   <rect x="7.2" y="23.837812" width="318.526395" height="311.04"/>
  </clipPath>
 </defs>
</svg>
